<svg width="163" height="56" viewBox="0 0 163 56" fill="none" xmlns="http://www.w3.org/2000/svg">
<path d="M77.9082 48.6582H78.7391V53.7227H77.9082V48.6582Z" fill="url(#paint0_linear_3145_2286)"/>
<path d="M79.934 49.4903L80.3495 50.3584L76.7133 52.8906L76.2979 52.0226L79.934 49.4903Z" fill="url(#paint1_linear_3145_2286)"/>
<path d="M80.3495 52.0226L79.934 52.8906L76.2979 50.3584L76.7133 49.4903L80.3495 52.0226Z" fill="url(#paint2_linear_3145_2286)"/>
<path d="M30.3803 27.7196C33.4601 24.7821 35 20.9099 35 16.103C35 11.2427 33.434 7.34383 30.302 4.4063C27.2222 1.46877 22.6286 0 16.5213 0H0V6.43893C0.322817 6.25116 0.646277 6.0676 0.968139 5.88496C1.28763 5.70366 1.60555 5.52325 1.9197 5.34049C2.86033 4.78805 2.40747 3.61278 1.93831 2.39521C1.90565 2.31045 1.87286 2.22534 1.84051 2.14037C1.77474 1.96763 1.97416 1.82051 2.12087 1.92998C4.68502 3.84325 9.26734 5.9853 12.9707 6.70604C13.0235 6.71632 13.0687 6.74956 13.0951 6.79729C13.136 6.871 13.177 6.94467 13.2181 7.01834C13.7387 7.95265 14.2593 8.88667 14.3416 9.90654C14.3458 9.95837 14.3698 10.0067 14.4096 10.0393C14.7228 10.2968 15.0307 10.5418 15.3302 10.7802C17.4489 12.4665 19.1446 13.8162 19.3036 16.8186C19.3117 16.9721 19.1357 17.0584 19.0141 16.9674C9.76171 10.0413 2.35848 14.9367 13.1648 28.0678C13.2673 28.1924 13.1821 28.3866 13.0239 28.3653C11.5111 28.1616 9.81212 27.3142 8.77013 25.8587C8.66883 25.7172 8.4461 25.7682 8.44061 25.9433C8.40058 27.2212 8.80948 28.7182 9.65677 29.9079C9.7625 30.0563 9.62783 30.2705 9.45679 30.2132C7.5034 29.5599 5.82219 28.2817 4.99656 26.7602C4.90138 26.5848 4.59582 26.6338 4.5875 26.834C4.5098 28.7042 7.54764 30.5559 8.34491 32.1259H16.5213C22.6808 32.1259 27.3005 30.6571 30.3803 27.7196Z" fill="#C80000"/>
<path d="M8.00998 32.3566C5.78426 31.2651 1.68121 29.2257 0.656182 27.6357C0.475602 27.3556 0.303991 27.0894 0.138 26.8448C0.104127 26.7949 0.0523828 26.7691 0 26.767V56H8.00998V32.3566Z" fill="#C80000"/>
<path d="M10.4473 9.33395C10.5186 9.34643 10.5687 9.26441 10.5206 9.2094C10.0553 8.67737 9.26839 8.18962 8.27412 7.73415C8.21613 7.70759 8.15292 7.75991 8.16307 7.82386C8.23888 8.30179 8.17192 8.75643 7.76363 9.14988C7.70569 9.20572 7.74843 9.31846 7.82793 9.31201C8.9144 9.22372 9.78395 9.21784 10.4473 9.33395Z" fill="#C80000"/>
<path d="M110.907 51.443C108.27 51.443 105.833 50.9991 103.596 50.1114C101.359 49.1895 99.4231 47.9092 97.7872 46.2703C96.1514 44.6315 94.8661 42.7024 93.9313 40.4831C93.0299 38.2639 92.5792 35.8397 92.5792 33.2107C92.5792 30.5817 93.0299 28.1576 93.9313 25.9383C94.8661 23.7191 96.1514 21.79 97.7872 20.1511C99.4565 18.5123 101.409 17.249 103.646 16.3613C105.883 15.4394 108.32 14.9785 110.958 14.9785C113.495 14.9785 115.882 15.4224 118.119 16.3101C120.355 17.1637 122.242 18.4611 123.777 20.2024L121.424 22.6094C119.988 21.1071 118.402 20.0316 116.666 19.3829C114.93 18.7001 113.061 18.3586 111.058 18.3586C108.954 18.3586 107.001 18.7342 105.199 19.4854C103.396 20.2024 101.827 21.2437 100.491 22.6094C99.156 23.941 98.1044 25.5115 97.3365 27.3211C96.6021 29.0965 96.2348 31.0597 96.2348 33.2107C96.2348 35.3617 96.6021 37.342 97.3365 39.1516C98.1044 40.927 99.156 42.4976 100.491 43.8633C101.827 45.1948 103.396 46.2362 105.199 46.9873C107.001 47.7043 108.954 48.0628 111.058 48.0628C113.061 48.0628 114.93 47.7214 116.666 47.0385C118.402 46.3557 119.988 45.2631 121.424 43.7608L123.777 46.1679C122.242 47.9092 120.355 49.2237 118.119 50.1114C115.882 50.9991 113.478 51.443 110.907 51.443Z" fill="#515151"/>
<path d="M46.9954 15.2858L30.9707 51.1357H34.8266L39.0171 41.5586H55.3491L53.9747 38.4858H40.3616L48.7981 19.2047L62.7697 51.1357H66.6757L50.651 15.2858H46.9954Z" fill="#515151"/>
<path d="M76.2795 36.4073V46.992H79.9351V36.4073L93.9567 15.2858H90.251L78.2325 33.1085L76.2795 36.4073Z" fill="#515151"/>
<path d="M74.3072 33.4363L76.3586 30.3296L66.214 15.2858H62.2579L74.3072 33.4363Z" fill="#515151"/>
<path fill-rule="evenodd" clip-rule="evenodd" d="M143.763 51.443C141.126 51.443 138.672 50.9991 136.402 50.1114C134.165 49.1895 132.212 47.9092 130.543 46.2703C128.907 44.5973 127.622 42.6683 126.687 40.4831C125.785 38.2639 125.335 35.8397 125.335 33.2107C125.335 30.5817 125.785 28.1747 126.687 25.9895C127.622 23.7703 128.907 21.8412 130.543 20.2024C132.212 18.5294 134.165 17.249 136.402 16.3613C138.639 15.4394 141.092 14.9785 143.763 14.9785C146.4 14.9785 148.838 15.4394 151.074 16.3613C153.311 17.249 155.247 18.5123 156.883 20.1511C158.553 21.79 159.838 23.7191 160.739 25.9383C161.674 28.1576 162.141 30.5817 162.141 33.2107C162.141 35.8397 161.674 38.2639 160.739 40.4831C159.838 42.7024 158.553 44.6315 156.883 46.2703C155.247 47.9092 153.311 49.1895 151.074 50.1114C148.838 50.9991 146.4 51.443 143.763 51.443ZM143.763 48.0628C145.866 48.0628 147.803 47.7043 149.572 46.9873C151.375 46.2362 152.927 45.1948 154.229 43.8633C155.565 42.4976 156.6 40.927 157.334 39.1516C158.068 37.342 158.436 35.3617 158.436 33.2107C158.436 31.0597 158.068 29.0965 157.334 27.3211C156.6 25.5115 155.565 23.941 154.229 22.6094C152.927 21.2437 151.375 20.2024 149.572 19.4854C147.803 18.7342 145.866 18.3586 143.763 18.3586C141.66 18.3586 139.707 18.7342 137.904 19.4854C136.101 20.2024 134.532 21.2437 133.197 22.6094C131.895 23.941 130.86 25.5115 130.092 27.3211C129.358 29.0965 128.99 31.0597 128.99 33.2107C128.99 35.3276 129.358 37.2908 130.092 39.1004C130.86 40.9099 131.895 42.4976 133.197 43.8633C134.532 45.1948 136.101 46.2362 137.904 46.9873C139.707 47.7043 141.66 48.0628 143.763 48.0628Z" fill="#515151"/>
<defs>
<linearGradient id="paint0_linear_3145_2286" x1="78.3237" y1="48.6582" x2="78.3237" y2="53.7227" gradientUnits="userSpaceOnUse">
<stop stop-color="#FF0000"/>
<stop offset="1" stop-color="#DC0303"/>
</linearGradient>
<linearGradient id="paint1_linear_3145_2286" x1="78.3237" y1="48.6582" x2="78.3237" y2="53.7227" gradientUnits="userSpaceOnUse">
<stop stop-color="#FF0000"/>
<stop offset="1" stop-color="#DC0303"/>
</linearGradient>
<linearGradient id="paint2_linear_3145_2286" x1="78.3237" y1="48.6582" x2="78.3237" y2="53.7227" gradientUnits="userSpaceOnUse">
<stop stop-color="#FF0000"/>
<stop offset="1" stop-color="#DC0303"/>
</linearGradient>
</defs>
</svg>
