<svg width="605" height="451" viewBox="0 0 605 451" fill="none" xmlns="http://www.w3.org/2000/svg">
<g clipPath="url(#clip0_2795_54289)">
<path d="M605 396.154H0V396.517H605V396.154Z" fill="#EBEBEB"/>
<path d="M544.379 415.635H504.328V415.998H544.379V415.635Z" fill="#EBEBEB"/>
<path d="M400.752 419.023H390.225V419.386H400.752V419.023Z" fill="#EBEBEB"/>
<path d="M503.118 404.504H479.886V404.867H503.118V404.504Z" fill="#EBEBEB"/>
<path d="M115.797 406.439H63.5249V406.802H115.797V406.439Z" fill="#EBEBEB"/>
<path d="M134.189 406.439H126.566V406.802H134.189V406.439Z" fill="#EBEBEB"/>
<path d="M272.492 411.643H159.115V412.006H272.492V411.643Z" fill="#EBEBEB"/>
<path d="M286.77 342.188H53.1189C49.3679 342.188 46.2219 339.042 46.2219 335.291V6.897C46.2219 3.146 49.3679 0 53.1189 0H286.77C290.521 0 293.667 3.146 293.667 6.897V335.291C293.667 339.163 290.642 342.188 286.77 342.188ZM53.1189 0.363C49.4889 0.363 46.4639 3.267 46.4639 7.018V335.412C46.4639 339.042 49.3679 342.067 53.1189 342.067H286.77C290.4 342.067 293.425 339.163 293.425 335.412V6.897C293.425 3.267 290.521 0.242 286.77 0.242H53.1189V0.363Z" fill="#EBEBEB"/>
<path d="M548.493 342.188H314.842C311.091 342.188 307.945 339.042 307.945 335.291V6.897C307.945 3.146 311.091 0 314.842 0H548.493C552.244 0 555.39 3.146 555.39 6.897V335.291C555.39 339.163 552.365 342.188 548.493 342.188ZM314.842 0.363C311.212 0.363 308.187 3.267 308.187 7.018V335.412C308.187 339.042 311.091 342.067 314.842 342.067H548.493C552.123 342.067 555.148 339.163 555.148 335.412V6.897C555.148 3.267 552.244 0.242 548.493 0.242H314.842V0.363Z" fill="#EBEBEB"/>
<path d="M272.371 71.5114L284.834 69.5754L272.371 67.7604L275.396 62.9204L270.556 66.0664L268.741 53.4824L266.926 66.0664L261.965 62.9204L265.111 67.7604L252.648 69.5754L265.111 71.5114L261.965 76.3514L266.926 73.2054L268.741 85.7894L270.556 73.2054L275.396 76.3514L272.371 71.5114Z" fill="#F5F5F5"/>
<path d="M397.969 104.787L410.553 102.972L397.969 101.157L401.115 96.3169L396.154 99.3419L394.339 86.8789L392.524 99.3419L387.684 96.3169L390.709 101.157L378.246 102.972L390.709 104.787L387.684 109.748L392.524 106.602L394.339 119.065L396.154 106.602L401.115 109.748L397.969 104.787Z" fill="#F5F5F5"/>
<path d="M222.277 158.994L234.74 157.179L222.277 155.364L225.423 150.524L220.462 153.549L218.647 141.086L216.832 153.549L211.992 150.524L215.017 155.364L202.554 157.179L215.017 158.994L211.992 163.955L216.832 160.809L218.647 173.272L220.462 160.809L225.423 163.955L222.277 158.994Z" fill="#F5F5F5"/>
<path d="M116.644 158.994L129.107 157.179L116.644 155.364L119.669 150.524L114.829 153.549L113.014 141.086L111.199 153.549L106.238 150.524L109.384 155.364L96.9211 157.179L109.384 158.994L106.238 163.955L111.199 160.809L113.014 173.272L114.829 160.809L119.669 163.955L116.644 158.994Z" fill="#F5F5F5"/>
<path d="M176.539 233.41L189.002 231.595L176.539 229.78L179.564 224.94L174.724 227.965L172.909 215.502L170.973 227.965L166.133 224.94L169.279 229.78L156.695 231.595L169.279 233.41L166.133 238.371L170.973 235.225L172.909 247.688L174.724 235.225L179.564 238.371L176.539 233.41Z" fill="#F5F5F5"/>
<path d="M422.048 193.359L434.511 191.544L422.048 189.729L425.073 184.889L420.233 187.914L418.418 175.451L416.603 187.914L411.642 184.889L414.788 189.729L402.204 191.544L414.788 193.359L411.642 198.199L416.603 195.174L418.418 207.637L420.233 195.174L425.073 198.199L422.048 193.359Z" fill="#F5F5F5"/>
<path d="M510.136 304.074L522.599 302.259L510.136 300.444L513.282 295.604L508.321 298.629L506.506 286.166L504.691 298.629L499.851 295.604L502.876 300.444L490.413 302.259L502.876 304.074L499.851 309.035L504.691 305.889L506.506 318.352L508.321 305.889L513.282 309.035L510.136 304.074Z" fill="#F5F5F5"/>
<path d="M405.834 300.322L418.418 298.386L405.834 296.571L408.98 291.731L404.14 294.877L402.204 282.293L400.389 294.877L395.549 291.731L398.695 296.571L386.111 298.386L398.695 300.322L395.549 305.162L400.389 302.016L402.204 314.6L404.14 302.016L408.98 305.162L405.834 300.322Z" fill="#F5F5F5"/>
<path d="M176.539 326.338L189.002 324.523L176.539 322.587L179.564 317.747L174.724 320.893L172.909 308.309L170.973 320.893L166.133 317.747L169.279 322.587L156.695 324.523L169.279 326.338L166.133 331.178L170.973 328.153L172.909 340.616L174.724 328.153L179.564 331.178L176.539 326.338Z" fill="#F5F5F5"/>
<path d="M312.301 269.467L324.764 267.652L312.301 265.837L315.326 260.997L310.486 264.022L308.671 251.559L306.856 264.022L301.895 260.997L305.041 265.837L292.578 267.652L305.041 269.467L301.895 274.428L306.856 271.282L308.671 283.745L310.486 271.282L315.326 274.428L312.301 269.467Z" fill="#F5F5F5"/>
<path d="M241.395 404.14L253.858 402.204L241.395 400.389L244.42 395.549L239.58 398.695L237.765 386.111L235.95 398.695L230.989 395.549L234.135 400.389L221.672 402.204L234.135 404.14L230.989 408.98L235.95 405.834L237.765 418.418L239.58 405.834L244.42 408.98L241.395 404.14Z" fill="#F5F5F5"/>
<path d="M380.424 395.912L392.887 394.097L380.424 392.282L383.57 387.442L378.609 390.467L376.794 378.004L374.979 390.467L370.139 387.442L373.164 392.282L360.701 394.097L373.164 395.912L370.139 400.873L374.979 397.727L376.794 410.19L378.609 397.727L383.57 400.873L380.424 395.912Z" fill="#F5F5F5"/>
<path d="M381.997 170.369C374.616 159.358 371.349 142.176 364.573 135.279C370.744 130.681 376.189 127.293 381.271 124.51C385.506 136.489 387.926 155.123 398.695 159.6C392.645 164.198 387.2 167.586 381.997 170.369Z" fill="#EBEBEB"/>
<path d="M394.581 161.536C393.492 160.81 393.855 159.479 395.065 158.632C387.563 152.582 384.901 138.667 381.513 128.261C380.424 128.866 379.093 128.261 378.609 126.93C375.342 128.745 371.954 130.802 368.324 133.343C368.929 134.311 368.445 135.884 367.114 136.731C372.196 143.87 375.221 157.059 380.787 166.86C381.876 166.376 383.449 166.86 384.296 167.949C387.563 166.134 390.951 164.077 394.581 161.536ZM376.431 149.315C375.342 146.411 376.31 143.144 378.609 142.176C380.908 141.087 383.449 142.902 384.417 145.927C385.506 148.952 384.659 152.098 382.36 153.066C380.303 154.034 377.52 152.34 376.431 149.315Z" fill="#E0E0E0"/>
<path d="M378.609 149.073C378.367 149.194 378.246 149.194 378.004 149.315C377.883 149.073 377.883 148.952 377.762 148.71C378.004 148.589 378.125 148.589 378.367 148.468C378.125 147.742 378.125 147.016 378.246 146.532C378.488 146.532 378.73 146.532 378.851 146.653C378.73 147.137 378.851 147.742 378.972 148.226C379.335 148.105 379.698 147.863 380.061 147.742C379.94 146.895 379.819 145.927 380.545 145.564C381.029 145.322 381.755 145.685 382.239 146.774C382.481 146.653 382.602 146.653 382.844 146.532C382.965 146.774 382.965 146.895 383.086 147.137C382.844 147.258 382.723 147.258 382.481 147.379C382.602 147.863 382.723 148.468 382.723 148.952C382.481 148.952 382.239 148.952 382.118 148.831C382.118 148.347 382.118 147.984 381.997 147.5C381.634 147.621 381.271 147.863 380.908 147.984C381.029 148.831 381.15 149.799 380.424 150.162C379.698 150.525 379.093 150.162 378.609 149.073ZM380.666 147.5C381.029 147.379 381.271 147.258 381.634 147.137C381.392 146.653 381.15 146.532 380.908 146.653C380.545 146.774 380.545 147.137 380.666 147.5ZM379.819 149.436C380.061 149.315 380.061 148.952 380.061 148.468C379.698 148.589 379.456 148.71 379.093 148.831C379.335 149.436 379.698 149.557 379.819 149.436Z" fill="#E0E0E0"/>
<path d="M213.081 134.189C202.433 139.876 186.34 140.602 179.564 146.41C175.692 139.755 172.909 133.947 170.731 128.623C182.105 126.203 199.408 126.324 204.248 116.402C208.12 122.936 210.903 128.865 213.081 134.189Z" fill="#EBEBEB"/>
<path d="M205.821 120.759C205.095 121.727 203.885 121.243 203.159 119.912C197.109 126.325 184.041 127.051 174.24 128.866C174.724 130.076 173.998 131.286 172.788 131.528C174.24 134.916 175.934 138.546 177.991 142.418C178.959 141.934 180.29 142.66 181.016 144.112C187.913 140.119 200.255 139.03 209.693 134.916C209.209 133.706 209.814 132.254 210.903 131.649C209.572 128.14 207.878 124.51 205.821 120.759ZM193.358 136.731C190.575 137.336 187.671 136.005 186.945 133.585C186.098 131.286 187.913 128.987 190.817 128.382C193.6 127.777 196.504 128.987 197.23 131.286C197.835 133.706 196.141 136.126 193.358 136.731Z" fill="#E0E0E0"/>
<path d="M193.237 134.674C193.358 134.916 193.358 135.037 193.479 135.279C193.237 135.279 193.116 135.4 192.874 135.4C192.753 135.158 192.753 135.037 192.632 134.795C191.906 134.916 191.301 134.916 190.817 134.674C190.817 134.432 190.938 134.311 190.938 134.069C191.301 134.19 191.906 134.311 192.39 134.19C192.269 133.827 192.148 133.464 192.027 133.101C191.18 133.101 190.333 133.101 190.091 132.375C189.97 131.77 190.212 131.165 191.301 130.923C191.18 130.681 191.18 130.56 191.059 130.318C191.301 130.318 191.422 130.197 191.664 130.197C191.785 130.439 191.785 130.56 191.906 130.802C192.39 130.681 192.995 130.681 193.358 130.802C193.358 131.044 193.237 131.165 193.237 131.407C192.874 131.286 192.39 131.286 192.027 131.407C192.148 131.77 192.269 132.133 192.39 132.496C193.237 132.496 194.084 132.496 194.326 133.222C194.689 133.706 194.326 134.311 193.237 134.674ZM191.906 132.375C191.785 132.012 191.664 131.77 191.543 131.407C191.059 131.528 190.938 131.77 191.059 132.012C191.18 132.375 191.543 132.375 191.906 132.375ZM193.6 133.343C193.479 133.101 193.116 132.98 192.753 132.98C192.874 133.343 192.995 133.585 193.116 133.948C193.6 133.827 193.721 133.585 193.6 133.343Z" fill="#E0E0E0"/>
<path d="M318.593 118.097C309.518 110.111 303.347 95.1066 295.724 90.7506C300.564 84.8216 305.162 80.2236 309.518 76.3516C315.689 86.1526 321.497 102.609 332.387 103.698C327.426 109.627 322.949 114.225 318.593 118.097Z" fill="#EBEBEB"/>
<path d="M328.757 106.723C327.668 106.36 327.668 105.029 328.636 103.94C320.529 100.431 315.447 88.452 310.244 79.861C309.276 80.708 307.945 80.466 307.219 79.377C304.436 81.918 301.653 84.701 298.749 88.089C299.475 88.815 299.233 90.388 298.265 91.477C304.315 96.68 309.639 107.812 316.657 115.314C317.625 114.467 319.198 114.588 320.166 115.314C323.07 112.773 325.853 109.99 328.757 106.723ZM309.518 100.431C307.945 98.011 308.308 94.865 310.244 93.292C312.18 91.719 314.842 92.566 316.415 95.107C317.988 97.527 317.746 100.673 315.81 102.125C313.874 103.698 311.091 102.851 309.518 100.431Z" fill="#E0E0E0"/>
<path d="M311.454 99.7038C311.333 99.8248 311.091 99.9458 310.97 100.067C310.849 99.9458 310.728 99.7038 310.607 99.5828C310.728 99.4618 310.97 99.3408 311.091 99.2198C310.728 98.6148 310.607 98.0098 310.607 97.5258C310.849 97.5258 310.97 97.4048 311.212 97.4048C311.212 97.8888 311.333 98.3728 311.575 98.8568C311.938 98.6148 312.18 98.3728 312.543 98.1308C312.301 97.4048 311.938 96.5578 312.664 96.0738C313.148 95.7108 313.753 95.8318 314.479 96.6788C314.6 96.5578 314.842 96.4368 314.963 96.3158C315.084 96.4368 315.205 96.6788 315.326 96.7998C315.205 96.9208 314.963 97.0418 314.842 97.1628C315.084 97.6468 315.326 98.1308 315.326 98.6148C315.084 98.6148 314.963 98.7358 314.721 98.7358C314.721 98.3728 314.479 97.8888 314.358 97.6468C313.995 97.8888 313.753 98.1308 313.39 98.3728C313.632 99.0988 313.995 99.9458 313.39 100.43C312.785 100.672 312.059 100.551 311.454 99.7038ZM313.027 97.6468C313.269 97.4048 313.632 97.2838 313.874 97.0418C313.511 96.6788 313.269 96.5578 313.027 96.7998C312.906 96.9208 312.906 97.2838 313.027 97.6468ZM312.664 99.5828C312.906 99.4618 312.785 99.0988 312.664 98.6148C312.422 98.8568 312.18 98.9778 311.817 99.2198C312.18 99.7038 312.543 99.7038 312.664 99.5828Z" fill="#E0E0E0"/>
<path d="M346.907 244.3C342.793 232.926 344.487 216.833 339.768 209.331C346.907 206.427 353.078 204.612 358.765 203.281C359.491 214.897 356.829 232.079 365.904 238.25C358.765 241.033 352.594 242.969 346.907 244.3Z" fill="#EBEBEB"/>
<path d="M361.306 239.218C360.459 238.371 361.064 237.282 362.516 236.798C357.071 229.901 358.281 216.954 357.797 206.911C356.587 207.153 355.498 206.306 355.377 205.096C351.747 206.064 347.996 207.153 343.761 208.726C344.124 209.694 343.156 211.025 341.704 211.509C344.608 218.89 344.003 231.353 346.544 241.275C347.754 241.033 349.085 241.759 349.569 242.969C353.441 241.759 357.192 240.67 361.306 239.218ZM347.391 224.456C347.149 221.552 348.964 219.011 351.384 218.527C353.804 218.043 355.74 220.1 355.982 223.004C356.224 225.908 354.53 228.57 352.11 228.933C349.69 229.417 347.512 227.36 347.391 224.456Z" fill="#E0E0E0"/>
<path d="M349.448 224.698C349.206 224.698 348.964 224.819 348.843 224.819C348.843 224.577 348.843 224.456 348.843 224.214C349.085 224.214 349.327 224.093 349.448 224.093C349.448 223.367 349.569 222.762 349.811 222.278C350.053 222.399 350.174 222.399 350.416 222.52C350.174 222.883 350.053 223.488 350.053 223.972C350.416 223.851 350.779 223.851 351.142 223.73C351.263 222.883 351.384 222.036 352.231 221.915C352.836 221.794 353.32 222.278 353.441 223.367C353.683 223.367 353.925 223.246 354.046 223.246C354.046 223.488 354.046 223.609 354.046 223.851C353.804 223.851 353.683 223.972 353.441 223.972C353.441 224.456 353.32 225.061 353.199 225.424C352.957 225.303 352.836 225.303 352.594 225.182C352.715 224.819 352.836 224.335 352.836 223.972C352.473 224.093 352.11 224.093 351.626 224.214C351.505 225.061 351.384 225.908 350.658 226.029C350.174 226.271 349.569 225.787 349.448 224.698ZM351.868 223.73C352.231 223.73 352.594 223.609 352.836 223.609C352.715 223.125 352.473 223.004 352.231 223.004C351.989 223.004 351.868 223.367 351.868 223.73ZM350.537 225.303C350.779 225.303 350.9 224.94 351.021 224.456C350.658 224.456 350.295 224.577 350.053 224.577C350.174 225.061 350.295 225.303 350.537 225.303Z" fill="#E0E0E0"/>
<path d="M507.716 198.077C498.641 190.091 492.47 175.087 484.847 170.731C489.687 164.802 494.285 160.204 498.641 156.332C504.812 166.133 510.62 182.589 521.51 183.678C516.549 189.486 511.951 194.084 507.716 198.077Z" fill="#EBEBEB"/>
<path d="M517.88 186.582C516.791 186.219 516.791 184.888 517.759 183.799C509.652 180.29 504.57 168.311 499.367 159.72C498.399 160.567 497.068 160.325 496.342 159.236C493.559 161.777 490.776 164.56 487.872 167.948C488.598 168.674 488.356 170.247 487.388 171.336C493.438 176.539 498.762 187.671 505.78 195.173C506.748 194.326 508.321 194.447 509.289 195.173C512.193 192.753 514.976 189.849 517.88 186.582ZM498.52 180.411C496.947 177.991 497.31 174.845 499.246 173.272C501.182 171.699 503.844 172.546 505.417 175.087C506.99 177.507 506.748 180.653 504.812 182.105C502.997 183.557 500.093 182.831 498.52 180.411Z" fill="#E0E0E0"/>
<path d="M500.456 179.563C500.335 179.684 500.093 179.805 499.972 179.926C499.851 179.805 499.73 179.563 499.609 179.442C499.73 179.321 499.972 179.2 500.093 179.079C499.73 178.474 499.609 177.869 499.609 177.385C499.851 177.385 499.972 177.264 500.214 177.264C500.214 177.748 500.335 178.232 500.577 178.716C500.94 178.474 501.182 178.232 501.545 177.99C501.303 177.264 500.94 176.417 501.666 175.933C502.15 175.57 502.755 175.691 503.481 176.538C503.602 176.417 503.844 176.296 503.965 176.175C504.086 176.296 504.207 176.538 504.328 176.659C504.207 176.78 503.965 176.901 503.844 177.022C504.086 177.506 504.328 177.99 504.328 178.474C504.086 178.474 503.965 178.595 503.723 178.595C503.723 178.232 503.481 177.748 503.36 177.506C502.997 177.748 502.755 177.99 502.392 178.232C502.634 178.958 502.997 179.805 502.392 180.289C501.908 180.531 501.182 180.41 500.456 179.563ZM502.15 177.627C502.392 177.385 502.755 177.264 502.997 177.022C502.634 176.659 502.392 176.538 502.15 176.78C501.908 176.901 502.029 177.143 502.15 177.627ZM501.787 179.563C502.029 179.442 501.908 179.079 501.787 178.595C501.545 178.837 501.303 178.958 500.94 179.2C501.303 179.563 501.545 179.684 501.787 179.563Z" fill="#E0E0E0"/>
<path d="M293.304 174.119C285.197 184.646 277.816 195.778 274.549 207.757C269.104 205.458 263.417 203.159 257.972 200.618C262.207 188.155 269.709 177.265 276.727 166.98C282.293 169.279 287.859 171.578 293.304 174.119Z" fill="#EBEBEB"/>
<path d="M279.268 169.037C278.421 170.126 276.848 170.61 275.638 170.126C269.83 178.717 263.901 187.671 260.029 197.714C261.239 198.319 261.844 199.771 261.36 201.102C264.748 202.675 268.257 204.127 271.645 205.579C272.008 204.248 273.339 203.643 274.67 204.248C277.937 194.447 283.866 185.372 290.279 176.66C289.069 176.055 288.706 174.724 289.553 173.514C286.165 171.941 282.777 170.489 279.268 169.037ZM278.3 188.881C276.848 191.301 273.823 192.511 271.403 191.422C268.983 190.333 268.015 187.308 269.467 184.767C270.919 182.347 274.065 181.258 276.606 182.347C278.905 183.436 279.631 186.34 278.3 188.881Z" fill="#E0E0E0"/>
<path d="M276.485 187.429C276.727 187.55 276.969 187.671 277.09 187.792C276.969 187.913 276.848 188.155 276.848 188.276C276.606 188.155 276.364 188.034 276.243 188.034C275.88 188.639 275.396 189.123 274.912 189.244C274.791 189.123 274.67 188.881 274.428 188.76C274.791 188.518 275.275 188.155 275.517 187.792C275.154 187.55 274.791 187.429 274.307 187.308C273.823 187.913 273.097 188.518 272.371 188.155C271.766 187.913 271.524 187.187 272.008 186.219C271.766 186.098 271.524 185.977 271.403 185.856C271.524 185.735 271.645 185.493 271.645 185.372C271.887 185.493 272.129 185.614 272.25 185.735C272.492 185.251 272.976 184.888 273.339 184.646C273.46 184.767 273.581 185.009 273.823 185.13C273.46 185.372 273.218 185.614 272.976 185.977C273.339 186.219 273.823 186.34 274.186 186.582C274.67 185.977 275.396 185.372 276.122 185.735C276.606 185.735 276.848 186.461 276.485 187.429ZM273.702 186.703C273.339 186.582 272.976 186.34 272.613 186.219C272.492 186.703 272.492 186.945 272.855 187.066C273.097 187.187 273.339 187.066 273.702 186.703ZM275.638 186.219C275.396 186.098 275.033 186.34 274.791 186.582C275.154 186.703 275.517 186.945 275.88 187.066C276.001 186.703 275.88 186.34 275.638 186.219Z" fill="#E0E0E0"/>
<path d="M499.609 236.192C491.502 246.719 484.121 257.851 480.854 269.83C475.409 267.531 469.722 265.232 464.277 262.691C468.512 250.228 476.014 239.338 483.032 229.053C488.598 231.231 494.164 233.53 499.609 236.192Z" fill="#EBEBEB"/>
<path d="M485.573 231.109C484.726 232.198 483.153 232.682 481.943 232.198C476.135 240.789 470.206 249.743 466.334 259.786C467.544 260.391 468.149 261.843 467.665 263.174C471.053 264.747 474.562 266.199 477.95 267.651C478.313 266.32 479.644 265.715 480.975 266.32C484.242 256.519 490.171 247.444 496.584 238.732C495.374 238.127 495.011 236.796 495.858 235.586C492.47 234.013 489.082 232.561 485.573 231.109ZM484.605 250.953C483.153 253.373 480.128 254.583 477.708 253.494C475.288 252.405 474.32 249.38 475.772 246.839C477.224 244.419 480.37 243.33 482.911 244.419C485.331 245.508 485.936 248.412 484.605 250.953Z" fill="#E0E0E0"/>
<path d="M482.79 249.502C483.032 249.623 483.274 249.744 483.395 249.865C483.274 249.986 483.153 250.228 483.153 250.349C482.911 250.228 482.669 250.107 482.548 250.107C482.185 250.712 481.701 251.196 481.217 251.317C481.096 251.196 480.975 250.954 480.733 250.833C481.096 250.591 481.58 250.228 481.822 249.865C481.459 249.623 481.096 249.502 480.612 249.381C480.128 249.986 479.402 250.591 478.676 250.228C478.071 249.986 477.829 249.26 478.313 248.292C478.071 248.171 477.829 248.05 477.708 247.929C477.829 247.808 477.95 247.566 477.95 247.445C478.192 247.566 478.434 247.687 478.555 247.808C478.797 247.324 479.281 246.961 479.644 246.719C479.765 246.84 479.886 247.082 480.128 247.203C479.765 247.445 479.523 247.687 479.281 248.05C479.644 248.292 480.128 248.413 480.491 248.655C480.975 248.05 481.701 247.445 482.427 247.808C483.032 247.808 483.274 248.534 482.79 249.502ZM480.007 248.776C479.644 248.655 479.281 248.413 478.918 248.292C478.797 248.776 478.797 249.018 479.16 249.139C479.402 249.26 479.644 249.139 480.007 248.776ZM481.943 248.292C481.701 248.171 481.338 248.413 481.096 248.655C481.459 248.776 481.822 249.018 482.185 249.139C482.306 248.655 482.185 248.413 481.943 248.292Z" fill="#E0E0E0"/>
<path d="M447.458 95.2274C446.853 82.0384 434.995 72.9634 434.39 59.7744C440.077 57.7174 445.643 55.6604 451.33 53.4824C451.935 66.6714 463.793 75.7464 464.398 88.9354C458.711 91.1134 453.145 93.1704 447.458 95.2274Z" fill="#EBEBEB"/>
<path d="M461.131 89.1772C461.01 87.7252 461.736 86.2733 463.067 85.9103C461.01 75.6253 452.903 67.6393 450.846 57.3543C449.636 57.8383 448.305 57.1123 448.184 55.7812C444.675 57.1123 441.166 58.3223 437.657 59.6533C437.778 61.1053 436.931 62.5573 435.721 62.9203C437.778 73.2053 445.885 81.1912 447.942 91.4762C449.152 90.9923 450.483 91.7183 450.604 93.0493C454.113 91.8393 457.622 90.5082 461.131 89.1772ZM444.796 75.8673C443.465 73.4473 444.433 70.6643 447.095 69.6963C449.636 68.7283 452.782 69.9383 454.234 72.3583C455.565 74.7783 454.597 77.5613 451.935 78.5293C449.394 79.4973 446.248 78.2873 444.796 75.8673Z" fill="#E0E0E0"/>
<path d="M447.337 75.5046C447.095 75.6256 446.853 75.6256 446.611 75.7466C446.49 75.6256 446.49 75.3836 446.369 75.2626C446.611 75.1416 446.853 75.1416 447.095 75.0206C446.853 74.4156 446.732 73.8106 446.853 73.4476C447.095 73.4476 447.337 73.4476 447.579 73.4476C447.458 73.8106 447.579 74.2946 447.7 74.7786C448.063 74.6576 448.547 74.4156 448.91 74.2946C448.668 73.5686 448.547 72.8426 449.394 72.4796C449.999 72.2376 450.846 72.4796 451.451 73.3266C451.693 73.2056 451.935 73.2056 452.177 73.0846C452.298 73.2056 452.298 73.4476 452.419 73.5686C452.177 73.6896 451.935 73.6896 451.693 73.8106C451.935 74.2946 452.056 74.7786 451.935 75.1416C451.693 75.1416 451.451 75.1416 451.209 75.1416C451.209 74.7786 451.209 74.4156 450.967 74.0526C450.604 74.1736 450.12 74.4156 449.757 74.5366C449.999 75.2626 450.12 75.9886 449.273 76.3516C448.668 76.5936 447.942 76.3516 447.337 75.5046ZM449.757 74.0526C450.12 73.9316 450.483 73.8106 450.846 73.6896C450.604 73.3266 450.241 73.2056 449.999 73.3266C449.636 73.3266 449.636 73.6896 449.757 74.0526ZM448.91 75.6256C449.273 75.5046 449.273 75.1416 449.152 74.7786C448.789 74.8996 448.426 75.0206 448.063 75.1416C448.305 75.6256 448.547 75.7466 448.91 75.6256Z" fill="#E0E0E0"/>
<path d="M104.544 251.559C103.939 238.37 92.0811 229.295 91.4761 216.106C97.1631 214.049 102.729 211.992 108.416 209.814C109.021 223.003 120.879 232.078 121.484 245.267C115.797 247.445 110.231 249.502 104.544 251.559Z" fill="#EBEBEB"/>
<path d="M118.217 245.509C118.096 244.057 118.822 242.605 120.153 242.242C118.096 231.957 109.989 223.971 107.932 213.686C106.722 214.17 105.391 213.444 105.27 212.113C101.761 213.444 98.2521 214.654 94.7431 215.985C94.8641 217.437 94.0171 218.889 92.8071 219.252C94.8641 229.537 102.971 237.523 105.028 247.808C106.238 247.324 107.569 248.05 107.69 249.381C111.199 248.171 114.708 246.84 118.217 245.509ZM101.882 232.199C100.551 229.779 101.519 226.996 104.181 226.028C106.722 225.06 109.868 226.27 111.32 228.69C112.651 231.11 111.683 233.893 109.021 234.861C106.48 235.829 103.334 234.619 101.882 232.199Z" fill="#E0E0E0"/>
<path d="M104.423 231.837C104.181 231.958 103.939 231.958 103.697 232.079C103.576 231.958 103.576 231.716 103.455 231.595C103.697 231.474 103.939 231.474 104.181 231.353C103.939 230.748 103.818 230.143 103.939 229.78C104.181 229.78 104.423 229.78 104.665 229.78C104.544 230.143 104.665 230.627 104.786 231.111C105.149 230.99 105.633 230.748 105.996 230.627C105.754 229.901 105.633 229.175 106.48 228.812C107.085 228.57 107.932 228.812 108.537 229.659C108.779 229.538 109.021 229.538 109.263 229.417C109.384 229.538 109.384 229.78 109.505 229.901C109.263 230.022 109.021 230.022 108.779 230.143C109.021 230.627 109.142 231.111 109.021 231.474C108.779 231.474 108.537 231.474 108.295 231.474C108.295 231.111 108.295 230.748 108.053 230.385C107.69 230.506 107.206 230.748 106.843 230.869C107.085 231.595 107.206 232.321 106.359 232.684C105.754 232.926 105.028 232.684 104.423 231.837ZM106.843 230.385C107.206 230.264 107.569 230.143 107.932 230.022C107.69 229.659 107.327 229.538 107.085 229.659C106.722 229.659 106.722 230.022 106.843 230.385ZM105.996 231.958C106.359 231.837 106.359 231.474 106.238 231.111C105.875 231.232 105.512 231.353 105.149 231.474C105.391 231.958 105.754 232.079 105.996 231.958Z" fill="#E0E0E0"/>
<path d="M147.741 94.9847C143.143 107.69 127.171 107.448 121.968 118.217C117.007 113.861 112.288 109.747 107.569 105.996C112.167 93.2907 128.139 93.5327 133.342 82.7637C138.303 87.1197 143.143 91.2337 147.741 94.9847Z" fill="#EBEBEB"/>
<path d="M135.762 86.0312C135.157 87.1202 133.584 87.1202 132.495 86.1522C126.808 93.6542 115.071 94.8643 109.868 103.576C110.957 104.423 111.199 106.117 110.715 107.327C113.74 109.747 116.644 112.288 119.79 114.95C120.395 113.861 121.968 113.861 123.057 114.829C128.744 107.327 140.481 106.117 145.684 97.4053C144.595 96.5583 144.353 94.8643 144.958 93.6543C141.812 91.2343 138.787 88.6933 135.762 86.0312ZM131.406 104.181C129.107 105.391 125.356 104.665 123.178 102.608C120.879 100.551 120.758 97.7683 123.178 96.5583C125.477 95.3483 129.228 96.0743 131.527 98.1313C133.705 100.188 133.705 102.971 131.406 104.181Z" fill="#E0E0E0"/>
<path d="M129.954 102.245C130.196 102.487 130.317 102.608 130.559 102.85C130.438 102.971 130.196 102.971 130.075 103.092C129.833 102.85 129.712 102.729 129.47 102.487C128.865 102.729 128.139 102.85 127.655 102.729C127.534 102.487 127.413 102.245 127.292 102.124C127.776 102.124 128.381 102.124 128.865 101.882C128.502 101.519 128.139 101.156 127.776 100.914C127.05 101.156 126.203 101.277 125.356 100.551C124.751 100.067 124.751 99.3408 125.477 98.8568C125.235 98.6148 125.114 98.4938 124.872 98.2518C124.993 98.1308 125.114 98.1308 125.356 98.0098C125.598 98.2518 125.719 98.3728 125.961 98.6148C126.445 98.3728 126.929 98.2518 127.413 98.3728C127.534 98.6148 127.655 98.7358 127.776 98.9778C127.292 98.9778 126.929 99.0988 126.566 99.2198C126.929 99.5828 127.292 99.9458 127.655 100.188C128.381 99.9458 129.228 99.8248 130.075 100.551C130.559 101.035 130.68 101.64 129.954 102.245ZM127.05 100.309C126.687 100.067 126.445 99.7038 126.082 99.4618C125.719 99.7038 125.84 99.9458 126.082 100.188C126.324 100.309 126.687 100.309 127.05 100.309ZM129.349 100.914C129.107 100.672 128.744 100.672 128.26 100.793C128.623 101.035 128.865 101.398 129.228 101.64C129.591 101.398 129.591 101.156 129.349 100.914Z" fill="#E0E0E0"/>
<path d="M160.204 275.034C155.606 287.739 139.634 287.497 134.431 298.266C129.47 293.91 124.751 289.795 120.032 286.044C124.63 273.339 140.602 273.581 145.805 262.812C150.645 267.168 155.485 271.283 160.204 275.034Z" fill="#EBEBEB"/>
<path d="M148.104 266.08C147.499 267.169 145.926 267.169 144.837 266.201C139.15 273.703 127.413 274.913 122.21 283.625C123.299 284.472 123.541 286.166 123.057 287.376C126.082 289.796 128.986 292.337 132.132 294.999C132.737 293.91 134.31 293.91 135.399 294.878C141.086 287.376 152.823 286.166 158.026 277.454C156.937 276.607 156.695 274.913 157.3 273.703C154.154 271.283 151.129 268.742 148.104 266.08ZM143.869 284.23C141.57 285.44 137.819 284.714 135.641 282.657C133.342 280.6 133.221 277.817 135.641 276.607C137.94 275.397 141.691 276.123 143.99 278.18C146.047 280.237 146.168 283.02 143.869 284.23Z" fill="#E0E0E0"/>
<path d="M142.296 282.173C142.538 282.415 142.659 282.536 142.901 282.778C142.78 282.898 142.538 282.898 142.417 283.019C142.175 282.777 142.054 282.656 141.812 282.414C141.207 282.656 140.481 282.778 139.997 282.657C139.876 282.415 139.755 282.173 139.634 282.052C140.118 282.052 140.723 282.051 141.207 281.809C140.844 281.446 140.481 281.084 140.118 280.842C139.392 281.084 138.545 281.205 137.698 280.479C137.093 279.995 137.093 279.268 137.819 278.784C137.577 278.542 137.456 278.421 137.214 278.179C137.335 278.058 137.456 278.059 137.698 277.938C137.94 278.18 138.061 278.301 138.303 278.543C138.787 278.301 139.271 278.18 139.755 278.301C139.876 278.543 139.997 278.664 140.118 278.906C139.634 278.906 139.271 279.026 138.908 279.148C139.271 279.511 139.634 279.874 139.997 280.116C140.723 279.874 141.57 279.753 142.417 280.479C143.022 280.963 143.143 281.689 142.296 282.173ZM139.513 280.237C139.15 279.995 138.908 279.631 138.545 279.389C138.182 279.631 138.303 279.874 138.545 280.116C138.787 280.358 139.029 280.358 139.513 280.237ZM141.812 280.963C141.57 280.72 141.207 280.721 140.723 280.842C141.086 281.084 141.328 281.447 141.691 281.689C142.054 281.447 142.054 281.084 141.812 280.963Z" fill="#E0E0E0"/>
<path d="M302.5 450.846C432.077 450.846 537.119 444.724 537.119 437.173C537.119 429.622 432.077 423.5 302.5 423.5C172.924 423.5 67.8811 429.622 67.8811 437.173C67.8811 444.724 172.924 450.846 302.5 450.846Z" fill="#F5F5F5"/>
<path d="M207.999 84.0955C196.383 77.5615 185.856 63.6465 176.66 60.6215C180.048 53.7245 183.436 48.2795 186.824 43.4395C195.899 52.2725 206.547 67.8815 218.163 66.9135C214.775 73.8105 211.387 79.2555 207.999 84.0955Z" fill="#C80000"/>
<path opacity="0.5" d="M207.999 84.0955C196.383 77.5615 185.856 63.6465 176.66 60.6215C180.048 53.7245 183.436 48.2795 186.824 43.4395C195.899 52.2725 206.547 67.8815 218.163 66.9135C214.775 73.8105 211.387 79.2555 207.999 84.0955Z" fill="white"/>
<path opacity="0.2" d="M215.38 70.544C214.17 70.423 213.807 69.092 214.533 67.761C205.216 65.704 196.504 54.451 188.881 46.707C188.155 47.675 186.703 47.796 185.735 46.828C183.678 49.853 181.5 53.362 179.443 57.234C180.411 57.839 180.653 59.412 179.927 60.743C187.671 64.857 196.262 75.263 205.579 81.555C206.305 80.587 207.999 80.345 209.209 80.95C211.145 77.804 213.202 74.416 215.38 70.544ZM193.721 67.761C191.422 65.583 190.938 62.316 192.39 60.38C193.963 58.444 196.988 58.807 199.287 61.106C201.586 63.284 202.191 66.43 200.739 68.366C199.166 70.302 196.02 69.939 193.721 67.761Z" fill="black"/>
<g opacity="0.2">
<path d="M195.415 66.6716C195.294 66.7926 195.173 67.0346 195.052 67.1556C194.931 67.0346 194.81 66.9136 194.568 66.6716C194.689 66.5506 194.81 66.3086 194.931 66.1876C194.447 65.7036 193.963 64.9776 193.842 64.4936C194.084 64.3726 194.205 64.3726 194.447 64.2516C194.568 64.7356 194.81 65.2196 195.294 65.7036C195.536 65.4616 195.778 65.0986 196.02 64.8566C195.536 64.1306 195.052 63.4046 195.536 62.6786C195.899 62.1946 196.625 62.1946 197.593 63.0416C197.714 62.9206 197.835 62.6786 197.956 62.5576C198.077 62.6786 198.319 62.7996 198.44 63.0416C198.319 63.1626 198.198 63.4046 198.077 63.5256C198.44 63.8886 198.803 64.3726 198.924 64.8566C198.682 64.9776 198.561 64.9776 198.319 65.0986C198.198 64.7356 197.835 64.2516 197.593 64.0096C197.351 64.2516 197.109 64.6146 196.867 64.8566C197.351 65.5826 197.956 66.3086 197.351 66.9136C197.109 67.3976 196.383 67.3976 195.415 66.6716ZM196.625 64.3726C196.867 64.1306 197.109 63.8886 197.23 63.5256C196.746 63.1626 196.504 63.1626 196.383 63.4046C196.141 63.6466 196.262 63.8886 196.625 64.3726ZM196.746 66.3086C196.988 66.0666 196.746 65.7036 196.504 65.3406C196.262 65.5826 196.02 65.8246 195.899 66.0666C196.262 66.5506 196.625 66.5506 196.746 66.3086Z" fill="black"/>
</g>
<path d="M307.34 135.279C296.692 140.966 280.599 141.692 273.823 147.5C269.951 140.845 267.168 135.037 264.99 129.713C276.364 127.293 293.667 127.414 298.507 117.492C302.379 124.026 305.162 129.834 307.34 135.279Z" fill="#C80000"/>
<path opacity="0.5" d="M307.34 135.279C296.692 140.966 280.599 141.692 273.823 147.5C269.951 140.845 267.168 135.037 264.99 129.713C276.364 127.293 293.667 127.414 298.507 117.492C302.379 124.026 305.162 129.834 307.34 135.279Z" fill="white"/>
<path opacity="0.2" d="M300.201 121.728C299.475 122.696 298.265 122.212 297.539 120.881C291.489 127.294 278.421 128.02 268.62 129.835C269.104 131.045 268.378 132.255 267.168 132.497C268.62 135.885 270.314 139.515 272.371 143.387C273.339 142.903 274.67 143.629 275.396 145.081C282.293 141.088 294.635 139.999 304.073 135.885C303.589 134.675 304.194 133.223 305.283 132.618C303.952 129.23 302.258 125.6 300.201 121.728ZM287.738 137.7C284.955 138.305 282.051 136.974 281.325 134.554C280.478 132.255 282.293 129.956 285.197 129.351C287.98 128.746 290.884 129.956 291.61 132.255C292.215 134.675 290.521 137.095 287.738 137.7Z" fill="black"/>
<g opacity="0.2">
<path d="M287.617 135.643C287.738 135.885 287.738 136.006 287.859 136.248C287.617 136.248 287.496 136.369 287.254 136.369C287.133 136.127 287.133 136.006 287.012 135.764C286.286 135.885 285.681 135.885 285.197 135.643C285.197 135.401 285.318 135.28 285.318 135.038C285.681 135.159 286.286 135.28 286.77 135.159C286.649 134.796 286.528 134.433 286.407 134.07C285.56 134.07 284.713 134.07 284.471 133.344C284.35 132.739 284.592 132.134 285.681 131.892C285.56 131.65 285.56 131.529 285.439 131.287C285.681 131.287 285.802 131.166 286.044 131.166C286.165 131.408 286.165 131.529 286.286 131.771C286.77 131.65 287.375 131.65 287.738 131.771C287.738 132.013 287.617 132.134 287.617 132.376C287.254 132.255 286.77 132.255 286.407 132.376C286.528 132.739 286.649 133.102 286.77 133.465C287.617 133.465 288.464 133.465 288.706 134.191C288.948 134.796 288.585 135.401 287.617 135.643ZM286.286 133.465C286.165 133.102 286.044 132.86 285.923 132.497C285.439 132.618 285.318 132.86 285.439 133.102C285.56 133.344 285.802 133.465 286.286 133.465ZM287.98 134.433C287.859 134.191 287.496 134.07 287.133 134.07C287.254 134.433 287.375 134.675 287.496 135.038C287.859 134.917 287.98 134.675 287.98 134.433Z" fill="black"/>
</g>
<path d="M394.339 59.0488C381.755 63.2838 369.413 68.4868 360.096 76.7148C356.829 71.7538 353.32 66.7928 350.295 61.5898C360.701 53.6038 372.922 48.5218 384.538 43.9238C387.805 48.7638 391.314 53.7248 394.339 59.0488Z" fill="#C80000"/>
<path opacity="0.5" d="M394.339 59.0488C381.755 63.2838 369.413 68.4868 360.096 76.7148C356.829 71.7538 353.32 66.7928 350.295 61.5898C360.701 53.6038 372.922 48.5218 384.538 43.9238C387.805 48.7638 391.314 53.7248 394.339 59.0488Z" fill="white"/>
<path opacity="0.2" d="M385.506 46.9484C384.175 47.4324 382.602 46.9484 381.876 45.8594C372.317 49.7314 362.395 54.0874 353.562 60.2584C354.288 61.4684 353.925 63.0414 352.836 63.8884C354.772 67.1554 356.95 70.1804 359.007 73.3264C360.096 72.4794 361.548 72.7214 362.274 73.8104C370.381 67.5184 380.424 63.0414 390.588 59.4114C389.862 58.2014 390.346 56.8704 391.677 56.5074C389.62 53.2404 387.563 50.0944 385.506 46.9484ZM373.648 62.9204C371.107 64.1304 367.961 63.5254 366.509 61.2264C365.057 58.9274 366.025 55.9024 368.566 54.6924C371.107 53.4824 374.374 54.3294 375.826 56.6284C377.278 58.8064 376.31 61.5894 373.648 62.9204Z" fill="black"/>
<g opacity="0.2">
<path d="M373.043 60.7425C373.164 60.9845 373.285 61.1055 373.406 61.3475C373.285 61.4685 373.043 61.4685 372.922 61.5895C372.801 61.3475 372.68 61.2265 372.559 60.9845C371.954 61.2265 371.228 61.3475 370.744 61.2265C370.744 60.9845 370.744 60.7425 370.623 60.5005C371.107 60.6215 371.591 60.5005 372.075 60.2585C371.833 59.8955 371.591 59.5325 371.349 59.1695C370.623 59.4115 369.776 59.5325 369.292 58.8065C368.929 58.2015 369.05 57.4755 370.018 56.9915C369.897 56.7495 369.776 56.6285 369.655 56.3865C369.776 56.2655 370.018 56.2655 370.139 56.1445C370.26 56.3865 370.381 56.5075 370.502 56.7495C370.986 56.5075 371.47 56.3865 371.954 56.5075C371.954 56.7495 371.954 56.9915 372.075 57.2335C371.591 57.2335 371.228 57.3545 370.865 57.4755C371.107 57.8385 371.349 58.2015 371.591 58.5645C372.317 58.3225 373.285 58.2015 373.648 58.9275C374.132 59.4115 373.89 60.1375 373.043 60.7425ZM370.986 58.5645C370.744 58.2015 370.623 57.9595 370.381 57.5965C370.018 57.8385 369.897 58.2015 370.018 58.4435C370.26 58.6855 370.623 58.6855 370.986 58.5645ZM372.922 59.2905C372.801 59.0485 372.438 59.0485 371.954 59.1695C372.196 59.5325 372.317 59.7745 372.559 60.1375C373.043 59.8955 373.164 59.5325 372.922 59.2905Z" fill="black"/>
</g>
<path d="M173.272 188.034C164.076 178.475 149.314 179.443 140.118 169.884C143.022 164.681 145.926 159.357 148.709 154.154C157.905 163.713 172.667 162.745 181.863 172.304C178.959 177.507 176.176 182.71 173.272 188.034Z" fill="#C80000"/>
<path opacity="0.5" d="M173.272 188.034C164.076 178.475 149.314 179.443 140.118 169.884C143.022 164.681 145.926 159.357 148.709 154.154C157.905 163.713 172.667 162.745 181.863 172.304C178.959 177.507 176.176 182.71 173.272 188.034Z" fill="white"/>
<path opacity="0.2" d="M179.564 174.483C178.596 173.515 178.233 171.942 178.838 170.732C170.61 164.319 159.115 163.593 150.887 157.18C150.282 158.39 148.83 158.632 147.862 157.664C146.047 160.931 144.232 164.198 142.417 167.465C143.385 168.433 143.748 170.006 143.143 171.216C151.371 177.629 162.866 178.355 171.094 184.768C171.699 183.558 173.151 183.316 174.119 184.284C175.934 181.017 177.749 177.75 179.564 174.483ZM158.51 175.088C155.848 174.12 154.88 171.337 156.211 168.917C157.542 166.497 160.688 165.408 163.35 166.255C166.012 167.223 166.98 170.006 165.649 172.426C164.318 174.846 161.172 176.056 158.51 175.088Z" fill="black"/>
<g opacity="0.2">
<path d="M160.204 173.271C160.083 173.513 159.962 173.755 159.841 173.876C159.72 173.755 159.478 173.755 159.357 173.634C159.478 173.392 159.599 173.15 159.72 173.029C159.115 172.787 158.631 172.424 158.389 171.94C158.631 171.819 158.752 171.577 158.994 171.456C159.115 171.819 159.599 172.182 159.962 172.303C160.204 171.94 160.446 171.577 160.567 171.093C159.962 170.73 159.357 170.246 159.72 169.399C160.083 168.794 160.809 168.431 161.777 168.673C161.898 168.431 162.019 168.189 162.14 168.068C162.261 168.189 162.503 168.189 162.624 168.31C162.503 168.552 162.382 168.794 162.261 168.915C162.745 169.157 163.108 169.399 163.35 169.762C163.108 169.883 162.987 170.125 162.745 170.246C162.503 170.004 162.261 169.762 161.898 169.52C161.656 169.883 161.414 170.246 161.293 170.73C161.898 171.093 162.503 171.577 162.14 172.424C161.898 173.15 161.172 173.513 160.204 173.271ZM161.051 170.488C161.293 170.125 161.414 169.762 161.656 169.399C161.172 169.278 160.809 169.399 160.688 169.641C160.446 170.125 160.688 170.367 161.051 170.488ZM161.414 172.303C161.535 172.061 161.414 171.819 161.051 171.577C160.809 171.94 160.688 172.303 160.446 172.666C161.051 172.666 161.293 172.545 161.414 172.303Z" fill="black"/>
</g>
<path d="M472.505 139.513C463.914 149.919 449.031 144.353 440.319 152.702C437.173 147.015 434.027 141.449 430.881 136.367C439.472 125.961 454.355 131.527 463.067 123.178C466.213 128.865 469.359 134.431 472.505 139.513Z" fill="#C80000"/>
<path opacity="0.5" d="M472.505 139.513C463.914 149.919 449.031 144.353 440.319 152.702C437.173 147.015 434.027 141.449 430.881 136.367C439.472 125.961 454.355 131.527 463.067 123.178C466.213 128.865 469.359 134.431 472.505 139.513Z" fill="white"/>
<path opacity="0.2" d="M464.156 127.05C463.188 127.897 461.736 127.413 461.01 126.082C453.024 131.164 441.65 128.381 433.785 134.794C434.511 136.004 434.269 137.577 433.301 138.545C435.237 141.812 437.294 145.321 439.23 148.83C440.198 147.983 441.65 148.467 442.376 149.798C450.241 144.716 461.615 147.499 469.601 141.086C468.875 139.876 469.117 138.303 470.085 137.335C468.149 133.947 466.213 130.559 464.156 127.05ZM453.992 142.659C451.451 143.022 448.184 141.086 446.732 138.424C445.28 135.641 446.127 133.1 448.789 132.737C451.33 132.374 454.597 134.31 456.049 136.972C457.501 139.634 456.533 142.296 453.992 142.659Z" fill="black"/>
<g opacity="0.2">
<path d="M453.266 140.238C453.387 140.48 453.508 140.722 453.629 140.964C453.508 140.964 453.266 140.964 453.145 141.085C453.024 140.843 452.903 140.601 452.782 140.359C452.177 140.359 451.451 140.238 450.967 139.996C450.967 139.754 450.967 139.512 450.846 139.27C451.33 139.512 451.814 139.633 452.298 139.633C452.056 139.149 451.814 138.786 451.572 138.302C450.846 138.181 449.878 138.06 449.394 137.213C449.031 136.487 449.152 135.882 450.12 135.64C449.999 135.398 449.878 135.156 449.757 134.914C449.878 134.914 450.12 134.914 450.241 134.793C450.362 135.035 450.483 135.277 450.604 135.519C451.088 135.519 451.572 135.519 452.056 135.761C452.056 136.003 452.177 136.245 452.177 136.487C451.693 136.366 451.33 136.245 450.967 136.245C451.209 136.729 451.451 137.092 451.693 137.576C452.419 137.697 453.387 137.818 453.871 138.665C454.355 139.391 454.234 139.996 453.266 140.238ZM451.209 137.455C450.967 137.092 450.846 136.729 450.604 136.245C450.241 136.366 450.12 136.608 450.241 136.971C450.483 137.334 450.846 137.455 451.209 137.455ZM453.266 138.907C453.145 138.544 452.782 138.423 452.298 138.423C452.54 138.786 452.661 139.149 452.903 139.633C453.266 139.391 453.387 139.149 453.266 138.907Z" fill="black"/>
</g>
<path d="M419.87 220.946C385.264 287.617 339.526 347.633 284.471 398.695C256.278 377.157 228.085 355.74 199.892 334.202C254.947 283.261 300.806 223.124 335.291 156.453C363.484 177.991 391.677 199.408 419.87 220.946Z" fill="#C80000"/>
<path opacity="0.2" d="M419.87 220.946C416.966 226.391 414.062 231.836 411.037 237.281C377.641 297.418 334.928 351.868 284.35 398.695C256.157 377.157 227.964 355.74 199.771 334.202C254.826 283.261 300.685 223.124 335.291 156.453C363.484 177.87 391.677 199.408 419.87 220.946Z" fill="white"/>
<path opacity="0.2" d="M348.601 173.635C344.85 180.774 336.501 182.468 330.088 177.628C300.08 231.231 262.691 280.478 218.889 323.554C225.302 328.394 225.786 336.864 219.857 342.43C237.402 355.861 254.947 369.171 272.613 382.602C278.421 377.036 288.222 376.431 294.635 381.271C338.437 338.074 375.947 288.948 405.834 235.345C399.421 230.505 397.485 220.946 401.236 213.807V213.686C383.812 200.376 366.267 186.945 348.601 173.635ZM338.921 301.29C328.999 314.358 309.76 316.415 296.813 306.493C283.745 296.571 281.93 278.421 291.852 265.353C301.774 252.285 319.924 249.381 332.871 259.303C345.939 269.346 348.964 288.343 338.921 301.29Z" fill="black"/>
<g opacity="0.2">
<path d="M329.846 290.401C331.056 291.248 332.145 292.216 333.355 293.063C332.75 293.91 332.024 294.757 331.419 295.604C330.209 294.757 329.12 293.789 327.91 292.942C325.369 295.846 322.102 298.024 319.44 298.629C318.714 297.419 318.109 296.088 317.383 294.878C319.803 294.273 322.586 292.7 324.522 290.522C322.465 288.949 320.408 287.376 318.23 285.803C314.721 288.586 310.728 291.49 306.372 288.102C303.226 285.682 302.258 281.326 305.525 276.002C304.315 275.155 303.226 274.187 302.016 273.34C302.621 272.493 303.347 271.646 303.952 270.799C305.162 271.646 306.251 272.614 307.461 273.461C309.397 271.283 311.817 269.347 314.116 268.5C314.842 269.71 315.568 270.92 316.294 272.251C314.116 273.219 312.18 274.55 310.728 276.123C312.785 277.696 314.963 279.269 317.02 280.963C320.529 278.18 324.401 275.155 328.757 278.422C332.145 280.6 333.113 285.077 329.846 290.401ZM314.6 282.778C312.785 281.326 310.849 279.995 309.034 278.543C307.703 281.084 308.066 282.778 309.397 283.867C310.97 285.077 312.664 284.23 314.6 282.778ZM326.216 282.415C324.643 281.205 322.949 282.052 321.013 283.625C322.828 285.077 324.643 286.408 326.579 287.86C327.91 285.319 327.547 283.504 326.216 282.415Z" fill="black"/>
</g>
<path opacity="0.2" d="M411.158 237.281C377.762 297.418 335.049 351.868 284.471 398.695C284.471 398.695 248.655 344.003 233.772 333.839C233.772 333.839 349.206 290.884 411.158 237.281Z" fill="black"/>
<path d="M500.698 309.881C444.433 359.491 379.94 399.058 310.244 426.767C291.731 396.517 273.218 366.388 254.584 336.138C324.401 308.429 388.773 268.983 445.038 219.252C463.551 249.502 482.064 279.631 500.698 309.881Z" fill="#C80000"/>
<path opacity="0.3" d="M500.698 309.881C444.433 359.491 379.94 399.058 310.244 426.767C302.258 413.699 294.272 400.631 286.165 387.563C275.638 370.381 265.111 353.199 254.584 336.138C324.401 308.429 388.773 268.983 445.038 219.252C463.551 249.502 482.064 279.631 500.698 309.881Z" fill="white"/>
<path opacity="0.2" d="M451.209 240.064C445.159 245.388 436.689 243.936 432.575 237.16C385.264 276.364 332.508 308.671 276.122 333.113C280.357 339.889 277.695 348.117 270.314 351.142C281.809 370.018 293.425 388.773 304.92 407.649C312.422 404.624 321.739 407.528 325.974 414.304C382.36 389.862 435.116 357.555 482.427 318.351C478.192 311.575 479.886 301.895 485.936 296.571C485.936 296.571 486.057 296.571 486.057 296.45C474.441 277.695 462.825 258.819 451.209 240.064ZM396.154 355.74C382.118 364.331 363.484 359.37 355.014 345.455C346.423 331.54 351.263 313.874 365.178 305.283C379.214 296.692 397.122 300.564 405.592 314.479C414.183 328.394 410.19 347.149 396.154 355.74Z" fill="black"/>
<g opacity="0.2">
<path d="M391.556 342.188C392.282 343.398 393.129 344.729 393.855 345.939C392.887 346.544 392.04 347.028 391.072 347.633C390.346 346.423 389.499 345.213 388.773 343.882C385.385 345.697 381.513 346.544 378.851 346.06C378.609 344.608 378.488 343.156 378.246 341.825C380.666 342.188 383.812 341.583 386.595 340.252C385.264 338.074 383.812 335.775 382.481 333.597C378.246 334.928 373.406 336.138 370.623 331.54C368.566 328.152 369.171 323.675 374.132 320.045C373.406 318.835 372.559 317.504 371.833 316.294C372.801 315.689 373.648 315.205 374.616 314.6C375.342 315.81 376.189 317.02 376.915 318.351C379.456 316.899 382.481 316.173 384.901 316.173C385.143 317.625 385.385 318.956 385.627 320.408C383.207 320.529 381.029 321.134 379.093 321.981C380.424 324.28 381.876 326.458 383.207 328.757C387.442 327.426 392.161 325.974 395.065 330.572C397.243 333.96 396.517 338.437 391.556 342.188ZM380.061 329.604C378.851 327.668 377.641 325.611 376.431 323.675C374.253 325.49 374.011 327.305 374.858 328.757C375.826 330.33 377.762 330.209 380.061 329.604ZM391.072 333.476C390.104 331.782 388.168 332.024 385.748 332.629C386.958 334.565 388.168 336.622 389.378 338.558C391.556 336.743 391.919 334.928 391.072 333.476Z" fill="black"/>
</g>
<path opacity="0.2" d="M500.698 309.881C444.433 359.491 379.94 399.058 310.244 426.767C302.258 413.699 294.272 400.631 286.165 387.563L281.93 326.821C281.93 326.821 415.393 336.501 500.698 309.881Z" fill="black"/>
<path d="M516.791 427.373C443.707 444.555 368.324 449.032 293.667 440.441C291.61 405.109 289.553 369.656 287.496 334.324C362.032 342.915 437.536 338.438 510.62 321.256C512.677 356.588 514.734 392.041 516.791 427.373Z" fill="#C80000"/>
<path opacity="0.4" d="M516.791 427.373C443.707 444.555 368.324 449.032 293.667 440.441C291.61 405.109 289.553 369.656 287.496 334.324C362.032 342.915 437.536 338.438 510.62 321.256C512.677 356.588 514.734 392.041 516.791 427.373Z" fill="white"/>
<path opacity="0.2" d="M506.143 342.552C498.278 344.367 491.502 339.164 491.018 331.178C430.76 343.399 369.05 347.029 307.824 341.826C308.308 349.812 302.137 355.741 294.151 354.894C295.482 376.916 296.692 399.059 298.023 421.081C306.009 421.928 312.906 428.946 313.39 436.932C374.616 442.014 436.326 438.384 496.584 426.284C496.1 418.298 502.15 410.554 510.015 408.739H510.136C508.926 386.596 507.595 364.574 506.143 342.552C506.264 342.552 506.264 342.431 506.143 342.552ZM403.051 418.419C386.716 419.387 372.559 406.198 371.591 389.863C370.623 373.528 383.207 360.218 399.542 359.371C415.877 358.403 429.913 370.261 430.881 386.596C431.849 402.81 419.386 417.451 403.051 418.419Z" fill="black"/>
<g opacity="0.2">
<path d="M405.35 404.383C405.471 405.835 405.471 407.287 405.592 408.739C404.503 408.86 403.414 408.86 402.325 408.981C402.204 407.529 402.204 406.077 402.083 404.625C398.211 404.625 394.46 403.536 392.282 401.842C392.766 400.511 393.25 399.18 393.855 397.849C395.912 399.301 398.937 400.269 401.841 400.39C401.72 397.728 401.478 395.187 401.357 392.525C396.88 391.678 392.161 390.468 391.798 385.023C391.556 381.03 394.218 377.4 400.389 376.553C400.268 375.101 400.268 373.649 400.147 372.076C401.236 371.955 402.325 371.955 403.414 371.834C403.535 373.286 403.535 374.738 403.656 376.19C406.56 376.19 409.585 376.795 411.763 378.005C411.279 379.336 410.795 380.667 410.432 382.119C408.254 381.03 406.076 380.546 403.898 380.425C404.019 383.087 404.261 385.749 404.382 388.29C408.859 389.137 413.578 390.105 413.941 395.55C414.304 399.664 411.521 403.415 405.35 404.383ZM401.236 387.806C401.115 385.507 400.994 383.208 400.873 380.788C398.09 381.393 397.001 382.845 397.122 384.539C397.122 386.475 398.816 387.322 401.236 387.806ZM408.98 396.397C408.859 394.461 407.044 393.735 404.745 393.13C404.866 395.429 404.987 397.728 405.108 400.027C408.012 399.543 409.101 398.091 408.98 396.397Z" fill="black"/>
</g>
<path d="M342.914 427.493C343.277 431.123 343.64 434.753 344.003 438.504H89.6609C97.6469 371.228 89.6609 342.067 89.6609 342.067C174.724 335.654 344.124 342.067 344.124 342.067C344.124 342.067 339.042 374.495 342.43 420.838C342.551 423.137 342.793 425.315 342.914 427.493Z" fill="#C80000"/>
<path opacity="0.2" d="M344.124 342.188C332.992 347.391 278.421 348.117 247.082 346.181C215.743 344.245 174.724 350.174 174.724 350.174C151.008 341.946 89.6609 342.188 89.6609 342.188C174.603 335.775 344.124 342.188 344.124 342.188Z" fill="white"/>
<path opacity="0.2" d="M89.6609 438.503C97.6469 371.227 89.6609 342.066 89.6609 342.066C89.6609 342.066 140.118 340.977 174.724 350.052C174.724 350.052 175.934 360.337 174.724 365.54C174.724 365.54 216.348 358.764 253.374 359.732C253.374 359.732 196.02 366.387 174.724 371.227C174.724 371.227 140.481 365.903 118.701 365.54C118.701 365.54 163.834 371.348 174.724 374.978C174.724 374.978 187.671 372.679 194.326 372.679C194.326 372.679 178.233 375.583 174.724 378.245V396.879C174.724 396.879 138.666 397.605 120.637 395.064C129.228 396.395 164.197 401.84 174.724 401.84C174.724 401.84 214.412 400.388 237.523 401.84C237.523 401.84 184.888 404.865 174.724 407.285H129.47L174.603 411.036V414.787H193.963L174.603 418.175C174.603 418.175 118.58 414.666 102.487 418.175C102.487 418.175 168.553 421.2 174.482 423.499L174.603 429.065C174.603 429.065 248.655 419.264 314.237 427.734C314.237 427.734 218.526 423.983 174.603 434.631C174.603 434.631 312.059 431.606 344.003 438.745H89.6609V438.503Z" fill="black"/>
<path d="M91.113 350.053L84.458 352.352C84.458 352.352 124.872 353.804 151.008 357.797C150.887 357.797 110.715 350.658 91.113 350.053Z" fill="#C80000"/>
<path opacity="0.2" d="M180.532 357.797L190.817 359.733C190.817 359.733 238.491 354.53 294.756 353.925C294.756 353.925 213.444 350.053 180.532 357.797Z" fill="white"/>
<path opacity="0.2" d="M212.839 368.808C212.839 368.808 241.395 361.064 266.442 361.427C291.489 361.79 339.163 357.918 339.163 357.918L340.978 361.427C340.978 361.427 303.589 363.605 272.734 363.363C241.879 363.121 212.839 368.808 212.839 368.808Z" fill="white"/>
<path opacity="0.2" d="M184.525 380.423C184.525 380.423 218.647 373.163 252.043 373.768C285.439 374.373 327.547 377.035 327.547 377.035C327.547 377.035 236.192 377.035 212.96 381.875L184.525 380.423Z" fill="white"/>
<path d="M243.452 369.897C243.452 369.897 272.855 367.477 298.144 368.808C323.433 370.139 350.053 371.349 350.053 371.349L341.099 373.89C341.099 373.769 280.115 367.719 243.452 369.897Z" fill="#C80000"/>
<path opacity="0.2" d="M243.452 369.897C243.452 369.897 272.855 367.477 298.144 368.808C323.433 370.139 350.053 371.349 350.053 371.349L341.099 373.89C341.099 373.769 280.115 367.719 243.452 369.897Z" fill="black"/>
<path opacity="0.2" d="M185.614 386.594C185.614 386.594 236.434 385.989 260.876 384.779C285.318 383.569 318.23 390.345 318.23 390.345C318.23 390.345 277.695 389.498 265.232 391.434L185.614 386.594Z" fill="black"/>
<path opacity="0.2" d="M180.532 394.34L212.839 391.436L281.688 394.34L211.992 397.123L180.532 394.34Z" fill="white"/>
<path opacity="0.2" d="M204.732 409.464C204.732 409.464 251.68 405.108 269.951 404.866C288.222 404.624 337.469 401.357 337.469 401.357L332.024 408.617C332.024 408.617 239.459 406.56 204.732 409.464Z" fill="white"/>
<path d="M323.796 384.78L341.099 386.474L345.818 384.78C345.818 384.78 334.323 383.57 323.796 384.78Z" fill="#C80000"/>
<path d="M343.277 348.117L349.932 349.206L342.672 352.957L300.322 352.11C300.443 352.11 332.266 351.626 343.277 348.117Z" fill="#C80000"/>
<path opacity="0.2" d="M323.796 384.78L341.099 386.474L345.818 384.78C345.818 384.78 334.323 383.57 323.796 384.78Z" fill="white"/>
<path opacity="0.2" d="M343.277 348.117L349.932 349.206L342.672 352.957L300.322 352.11C300.443 352.11 332.266 351.626 343.277 348.117Z" fill="black"/>
<path opacity="0.2" d="M342.914 427.494C331.54 426.768 251.801 416.725 251.801 416.725C257.125 416.12 326.7 420.234 342.309 420.96C342.551 423.138 342.793 425.316 342.914 427.494Z" fill="black"/>
<path d="M223.003 415.392C223.003 415.392 297.539 415.15 318.835 416.723C340.131 418.296 342.067 415.392 342.067 415.392L352.715 420.474C352.715 420.474 353.32 425.556 325.248 422.047C297.297 418.417 223.003 415.392 223.003 415.392Z" fill="#C80000"/>
<path d="M162.019 377.883C162.019 377.883 118.338 370.986 92.928 372.68C92.928 372.68 99.099 374.011 103.334 377.883H162.019Z" fill="#C80000"/>
<path d="M92.9279 396.879C93.8959 396.758 125.598 400.994 137.698 401.357L88.4509 403.292L92.9279 396.879Z" fill="#C80000"/>
<path d="M91.1129 424.227L139.029 425.921L84.3369 429.914L91.1129 424.227Z" fill="#C80000"/>
<path d="M178.354 338.92C178.354 338.92 246.356 350.536 285.681 304.072L359.975 323.069C359.975 323.069 346.302 351.383 243.694 347.632C141.086 343.881 178.354 338.92 178.354 338.92Z" fill="#C80000"/>
<path opacity="0.5" d="M178.354 338.92C178.354 338.92 246.356 350.536 285.681 304.072L359.975 323.069C359.975 323.069 346.302 351.383 243.694 347.632C141.086 343.881 178.354 338.92 178.354 338.92Z" fill="white"/>
<path opacity="0.2" d="M217.074 341.34C217.074 341.34 258.577 339.162 282.051 312.542C282.051 312.542 289.069 314.962 294.151 308.791L348.359 323.19C348.359 323.19 342.551 325.247 344.608 332.023C344.608 332.023 273.46 360.821 217.074 341.34Z" fill="black"/>
<path d="M279.147 206.548L280.357 199.772C280.357 199.772 277.695 197.231 278.058 194.932C278.3 192.633 290.037 188.882 292.094 188.64C294.151 188.519 293.425 196.868 292.699 198.441C292.094 200.014 285.076 201.829 285.076 201.829L284.229 208.968L279.147 206.548Z" fill="#EBB376"/>
<path d="M144.353 239.701L139.755 234.619C139.755 234.619 140.723 231.11 139.15 229.295C137.698 227.48 125.719 230.384 123.904 231.352C122.089 232.32 127.171 239.096 128.502 240.064C129.833 241.032 136.73 238.854 136.73 238.854L141.207 244.42L144.353 239.701Z" fill="#EBB376"/>
<path d="M236.555 228.811C249.623 228.085 261.36 230.747 267.41 228.811C273.46 226.875 279.389 201.586 279.389 201.586L285.802 203.764C285.802 203.764 283.382 230.021 272.855 237.039C262.328 244.057 238.128 244.057 238.128 244.057L236.555 228.811Z" fill="#C80000"/>
<path opacity="0.7" d="M285.681 203.764C285.681 203.764 283.382 230.021 272.734 237.039C266.684 241.032 256.278 242.726 248.413 243.452C242.484 243.936 237.886 243.936 237.886 243.936L237.16 236.797L236.313 228.69C249.381 227.964 261.118 230.626 267.168 228.69C273.218 226.633 279.147 201.465 279.147 201.465L285.681 203.764Z" fill="white"/>
<path opacity="0.2" d="M248.534 243.452C242.605 243.936 238.007 243.936 238.007 243.936L237.281 236.797C240.185 238.007 244.42 240.064 248.534 243.452Z" fill="black"/>
<path d="M319.803 432.697L328.273 430.398L326.7 409.828L318.351 412.127L319.803 432.697Z" fill="#B97964"/>
<path d="M328.757 429.309L318.956 430.035C318.593 430.035 318.351 430.277 318.351 430.64L318.472 438.384C318.472 439.231 319.198 439.836 320.045 439.836C323.433 439.594 325.127 439.231 329.362 438.868C332.024 438.626 337.227 438.505 340.857 437.779C344.487 436.932 343.519 433.423 341.946 433.423C338.195 433.544 332.871 431.366 330.33 429.672C329.846 429.309 329.362 429.188 328.757 429.309Z" fill="#263238"/>
<path d="M332.024 430.519C331.177 430.519 330.451 430.519 329.725 430.398C329.604 430.398 329.604 430.277 329.604 430.277C329.604 430.156 329.604 430.156 329.725 430.035C329.967 429.793 332.387 427.978 333.476 428.341C333.718 428.462 333.96 428.583 333.96 428.946C334.081 429.309 334.081 429.793 333.839 430.156C333.113 430.398 332.508 430.519 332.024 430.519ZM333.113 428.704C332.508 428.462 331.177 429.309 330.209 430.035C331.782 430.277 332.992 430.156 333.355 429.672C333.476 429.43 333.597 429.188 333.476 428.946C333.355 428.825 333.234 428.704 333.113 428.704Z" fill="#263238"/>
<path d="M329.725 430.397C329.604 430.397 329.604 430.397 329.725 430.397C329.604 430.397 329.483 430.276 329.483 430.276C329.483 430.155 329.12 427.614 329.967 426.767C330.209 426.525 330.451 426.404 330.814 426.404C331.177 426.404 331.54 426.646 331.54 427.009C331.782 427.856 330.572 429.792 329.725 430.397ZM330.572 426.767C330.451 426.767 330.209 426.888 330.209 427.009C329.725 427.493 329.725 428.945 329.846 429.792C330.572 429.066 331.298 427.614 331.177 427.009C331.056 427.009 331.056 426.888 330.572 426.767Z" fill="#263238"/>
<path opacity="0.2" d="M318.351 412.127L326.7 409.828L327.668 421.565L319.198 423.501L318.351 412.127Z" fill="black"/>
<path d="M308.792 432.455L300.806 436.085L298.749 427.494L296.087 415.999L304.073 412.248L306.735 423.864L308.792 432.455Z" fill="#B97964"/>
<path opacity="0.2" d="M306.735 423.864L298.749 427.494L296.087 415.999L304.073 412.248L306.735 423.864Z" fill="black"/>
<path d="M309.155 431.244L299.596 433.422C299.233 433.543 298.991 433.785 299.112 434.148L300.443 441.771C300.685 442.618 301.411 443.102 302.258 442.981C305.525 442.134 307.098 441.529 311.333 440.561C313.874 439.956 319.077 438.988 322.465 437.657C325.853 436.326 324.401 432.938 322.828 433.18C319.077 433.906 313.632 432.696 310.728 431.365C310.244 431.123 309.639 431.123 309.155 431.244Z" fill="#263238"/>
<path d="M312.422 431.97C311.696 432.091 310.849 432.212 310.123 432.212C310.002 432.212 310.002 432.212 309.881 432.091C309.881 431.97 309.881 431.97 309.881 431.849C310.123 431.607 312.18 429.429 313.269 429.55C313.511 429.55 313.753 429.792 313.874 430.034C314.116 430.397 314.116 430.881 313.874 431.244C313.632 431.607 313.027 431.849 312.422 431.97ZM313.269 430.034C312.664 429.913 311.454 431.002 310.607 431.849C312.18 431.849 313.269 431.486 313.632 431.002C313.753 430.76 313.753 430.518 313.632 430.276C313.511 430.034 313.511 430.034 313.269 430.034Z" fill="#263238"/>
<path d="M310.123 432.212C310.002 432.212 309.881 432.212 309.881 432.091C309.881 431.97 309.034 429.55 309.76 428.582C309.881 428.34 310.244 428.098 310.486 428.098C310.849 427.977 311.212 428.219 311.333 428.582C311.817 429.429 310.97 431.486 310.123 432.212C310.244 432.212 310.244 432.212 310.123 432.212ZM310.607 428.461C310.486 428.461 310.365 428.582 310.244 428.703C309.881 429.308 310.123 430.76 310.365 431.486C310.97 430.639 311.454 429.187 311.212 428.582C311.091 428.582 310.97 428.461 310.607 428.461Z" fill="#263238"/>
<path d="M249.744 315.447L247.203 287.012L199.65 288.101C199.65 288.101 194.084 327.789 198.077 335.049C205.337 347.996 253.253 340.615 264.506 341.825C269.104 344.245 293.546 425.436 293.546 425.436L307.219 419.87C307.219 419.87 292.457 351.384 289.069 338.558C284.471 320.529 265.474 320.771 249.744 315.447Z" fill="#263238"/>
<path d="M328.394 418.418L316.294 419.507C316.294 419.507 301.411 344.003 300.322 343.64C298.265 343.035 292.215 342.43 289.069 341.583C266.684 335.775 211.387 325.006 211.387 325.006L231.715 305.404C231.715 305.404 324.038 316.536 326.095 338.195C327.184 348.601 328.394 418.418 328.394 418.418Z" fill="#263238"/>
<path opacity="0.2" d="M297.176 343.761C295.119 343.156 292.336 342.43 289.19 341.583C290.037 342.067 287.496 330.33 284.955 327.305C279.873 321.255 259.182 317.988 251.801 316.778C245.63 315.81 224.818 313.995 224.818 313.995C224.818 313.995 261.481 310.849 289.069 318.472C302.621 322.102 300.201 335.412 297.176 343.761Z" fill="black"/>
<path d="M193.237 235.708C193.237 235.708 210.782 226.391 236.434 228.811C236.434 228.811 245.388 251.438 247.082 286.891L199.287 290.158C199.287 290.279 200.134 259.908 193.237 235.708Z" fill="#C80000"/>
<path opacity="0.7" d="M199.287 290.279C199.287 290.279 199.65 279.389 198.319 265.474C197.956 260.634 197.351 255.552 196.383 250.349C195.536 245.388 194.568 240.427 193.116 235.708C193.116 235.708 210.661 226.391 236.313 228.811C236.313 228.811 245.267 251.438 246.961 286.891L199.287 290.279Z" fill="white"/>
<path opacity="0.2" d="M198.44 265.596C198.077 260.756 197.472 255.674 196.504 250.471C197.472 249.503 198.44 248.898 199.529 248.535L199.65 248.051C199.529 248.535 202.07 257.489 198.44 265.596Z" fill="black"/>
<path d="M206.547 232.441C210.903 236.434 221.672 234.982 221.672 234.982C221.672 234.982 228.327 233.167 226.996 231.11C223.003 230.505 221.188 228.569 220.341 226.27C219.857 224.939 219.857 223.366 219.978 221.793C219.978 220.946 220.22 220.099 220.341 219.252L207.031 209.451C208.725 215.864 210.782 227.722 206.547 232.441Z" fill="#EBB376"/>
<path opacity="0.2" d="M210.056 215.623C210.54 223.609 217.074 225.787 220.341 226.271C219.857 224.94 219.857 223.367 219.978 221.794L210.056 215.623Z" fill="black"/>
<path d="M218.405 182.106C223.366 183.437 227.48 194.811 223.729 202.313C219.978 209.815 208.967 188.761 208.967 188.761C208.967 188.761 215.259 181.259 218.405 182.106Z" fill="#263238"/>
<path d="M228.69 208.12C228.69 208.604 228.69 209.088 228.69 209.451C228.69 211.145 228.327 212.718 227.722 214.17C227.117 215.743 226.149 217.074 225.06 218.284C223.003 220.341 220.22 221.672 217.316 221.914C215.38 222.035 213.323 221.672 211.266 220.583C205.337 217.558 203.764 212.355 200.376 203.885C199.65 202.07 199.287 200.134 199.408 198.077C199.892 191.18 205.942 185.977 212.839 186.461C222.519 187.066 227.964 199.65 228.69 208.12Z" fill="#EBB376"/>
<path d="M214.291 201.827C214.533 202.553 215.138 203.037 215.501 202.795C215.985 202.674 216.106 201.948 215.864 201.222C215.622 200.496 215.017 200.012 214.654 200.254C214.291 200.496 214.049 201.101 214.291 201.827Z" fill="#263238"/>
<path d="M222.277 199.286C222.519 200.012 223.124 200.496 223.487 200.254C223.971 200.133 224.092 199.407 223.85 198.681C223.608 197.955 223.003 197.471 222.64 197.713C222.277 197.834 222.156 198.56 222.277 199.286Z" fill="#263238"/>
<path d="M219.857 200.377C221.43 202.313 223.245 203.886 225.302 205.338C224.576 206.427 223.366 207.032 222.156 207.153L219.857 200.377Z" fill="#D58745"/>
<path d="M224.213 194.81C224.092 194.931 223.971 194.931 223.729 194.931C222.64 194.689 221.551 194.931 220.583 195.536C220.462 195.657 220.099 195.657 219.978 195.536C219.857 195.415 219.857 195.052 219.978 194.931C221.067 194.084 222.519 193.721 223.85 194.084C224.092 194.084 224.213 194.326 224.213 194.568C224.213 194.689 224.213 194.81 224.213 194.81Z" fill="#263238"/>
<path d="M211.629 199.166C211.508 199.166 211.508 199.166 211.387 199.166C211.145 199.045 211.145 198.803 211.266 198.561C211.992 197.351 213.202 196.504 214.654 196.383C214.896 196.383 215.138 196.625 215.138 196.746C215.138 196.988 214.896 197.23 214.654 197.23C213.565 197.351 212.597 197.956 211.992 198.924C211.871 199.166 211.75 199.166 211.629 199.166Z" fill="#263238"/>
<path d="M203.038 190.816L204.974 194.446C204.006 195.535 203.764 197.229 204.974 198.56C207.394 201.222 207.515 206.909 205.821 209.813C205.821 209.813 205.216 208.482 204.127 209.208C203.038 209.934 206.184 217.073 209.693 219.614C209.693 219.614 205.095 217.799 200.255 211.023C195.778 204.731 193.358 199.044 193.721 195.777L203.038 190.816Z" fill="#263238"/>
<path d="M198.803 212.234C200.376 213.928 202.675 214.775 204.974 214.896C207.999 214.896 208.725 211.992 207.273 209.451C205.942 207.273 202.675 204.49 199.892 205.7C197.109 206.91 196.867 210.177 198.803 212.234Z" fill="#EBB376"/>
<path d="M223.003 210.178C222.277 211.509 221.551 213.929 221.551 213.929C221.309 213.929 221.067 213.929 220.825 213.808C217.679 213.324 216.348 212.114 215.743 210.904C215.501 210.178 215.38 209.573 215.501 208.968C215.501 208.363 215.743 207.879 215.743 207.879C217.316 209.089 220.22 209.694 221.793 210.057C222.64 210.178 223.003 210.178 223.003 210.178Z" fill="#263238"/>
<path d="M221.914 210.057L221.43 211.146C218.405 210.783 216.348 210.057 215.622 208.968C215.622 208.363 215.864 207.879 215.864 207.879C217.437 209.089 220.341 209.694 221.914 210.057Z" fill="white"/>
<path d="M220.946 213.808C217.8 213.324 216.469 212.114 215.864 210.904C216.953 211.146 218.163 211.388 219.252 212.114C220.22 212.598 220.583 213.203 220.946 213.808Z" fill="#DE5753"/>
<path d="M211.145 191.422C211.145 191.422 210.298 185.614 213.928 186.703C217.558 187.792 217.8 185.614 216.711 181.137C215.622 176.66 205.095 175.087 199.166 182.468C193.237 189.849 191.18 195.899 194.084 199.166C196.988 202.433 207.878 192.874 207.878 192.874C207.878 192.874 208.362 190.091 209.935 188.397C210.056 188.397 210.056 189.97 211.145 191.422Z" fill="#263238"/>
<path d="M216.832 234.498L222.64 239.58C222.64 239.58 225.786 261.118 233.651 270.556H238.491L239.459 267.168C239.459 267.168 228.448 255.915 224.213 238.733V231.836L216.832 234.498Z" fill="#263238"/>
<path d="M207.999 227.843L219.857 232.32L220.946 226.27L227.117 228.448L228.69 236.071L220.22 234.014L216.106 239.58L204.006 231.715L207.999 227.843Z" fill="#C80000"/>
<path opacity="0.5" d="M207.999 227.843L219.857 232.32L220.946 226.27L227.117 228.448L228.69 236.071L220.22 234.014L216.106 239.58L204.006 231.715L207.999 227.843Z" fill="white"/>
<path d="M198.682 289.553L247.687 284.834L247.808 290.763L198.682 294.756V289.553Z" fill="black"/>
<path d="M237.281 286.045C236.797 285.682 236.192 285.44 235.587 285.561L231.231 286.045C230.142 286.166 229.295 287.134 229.295 288.223V291.006C229.295 291.611 229.537 292.216 230.021 292.579C230.384 292.942 230.989 293.184 231.473 293.063C231.594 293.063 231.594 293.063 231.715 293.063L236.071 292.579C237.16 292.458 238.007 291.49 238.007 290.401V287.618C238.007 287.013 237.765 286.408 237.281 286.045ZM236.071 291.49L231.715 291.974C231.473 291.974 231.11 291.974 230.868 291.732C230.626 291.49 230.505 291.248 230.505 291.006V288.223C230.505 287.618 230.868 287.255 231.473 287.134L235.829 286.65H235.95C236.192 286.65 236.434 286.771 236.676 286.892C236.918 287.134 237.039 287.376 237.039 287.618V287.981H236.918L235.708 288.102C235.345 288.102 234.982 288.465 234.982 288.949C234.982 289.312 235.345 289.675 235.829 289.554L237.039 289.433V290.401C237.039 291.006 236.555 291.369 236.071 291.49Z" fill="white"/>
<path d="M193.237 235.709C185.009 240.549 173.272 256.521 169.158 256.158C165.044 255.795 142.538 235.951 142.538 235.951L137.456 241.517C137.456 241.517 158.147 266.201 167.827 268.137C177.507 269.952 198.682 252.165 198.682 252.165C198.682 252.165 200.739 247.446 198.682 242.606C196.625 237.766 193.237 235.709 193.237 235.709Z" fill="#C80000"/>
<path opacity="0.7" d="M193.237 235.709C185.009 240.549 173.272 256.521 169.158 256.158C165.044 255.795 142.538 235.951 142.538 235.951L137.456 241.517C137.456 241.517 158.147 266.201 167.827 268.137C177.507 269.952 198.682 252.165 198.682 252.165C198.682 252.165 200.739 247.446 198.682 242.606C196.625 237.766 193.237 235.709 193.237 235.709Z" fill="white"/>
<path d="M268.136 348.237C268.136 348.237 105.754 349.326 95.7109 326.578L168.069 321.375C168.069 321.375 186.461 329.482 212.113 336.863C228.69 341.703 248.534 346.301 268.136 348.237Z" fill="#C80000"/>
<path opacity="0.2" d="M268.136 348.237C268.136 348.237 263.054 348.237 254.584 348.237C219.857 345.817 179.322 328.514 179.322 328.514C164.681 331.781 154.638 325.973 154.638 325.973L115.192 328.272C116.039 331.297 113.861 333.838 113.861 333.838C134.31 339.525 156.332 343.034 174.361 345.212C136.367 342.429 100.309 336.984 95.7109 326.578L168.069 321.375C167.948 321.254 218.405 343.397 268.136 348.237Z" fill="white"/>
<path opacity="0.2" d="M268.136 348.237C268.136 348.237 105.754 349.326 95.7109 326.578C95.7109 326.578 150.524 350.294 211.992 336.863C228.69 341.703 248.534 346.301 268.136 348.237Z" fill="black"/>
</g>
<defs>
<clipPath id="clip0_2795_54289">
<rect width="605" height="450.846" fill="white"/>
</clipPath>
</defs>
</svg>
