<svg width="350" height="350" viewBox="0 0 350 350" fill="none" xmlns="http://www.w3.org/2000/svg">
<path d="M314.93 278.949H291.76V279.159H314.93V278.949Z" fill="#EBEBEB"/>
<path d="M231.84 280.84H225.75V281.05H231.84V280.84Z" fill="#EBEBEB"/>
<path d="M291.06 272.439H277.62V272.649H291.06V272.439Z" fill="#EBEBEB"/>
<path d="M66.99 273.631H36.75V273.841H66.99V273.631Z" fill="#EBEBEB"/>
<path d="M77.6302 273.631H73.2202V273.841H77.6302V273.631Z" fill="#EBEBEB"/>
<path d="M157.64 276.57H92.0498V276.78H157.64V276.57Z" fill="#EBEBEB"/>
<path d="M165.9 236.46H30.7302C28.5602 236.46 26.7402 234.64 26.7402 232.47V42.49C26.7402 40.32 28.5602 38.5 30.7302 38.5H165.9C168.14 38.5 169.89 40.32 169.89 42.49V232.47C169.89 234.64 168.14 236.46 165.9 236.46ZM30.7302 38.64C28.6302 38.64 26.8802 40.32 26.8802 42.49V232.47C26.8802 234.57 28.5602 236.32 30.7302 236.32H165.9C168 236.32 169.75 234.64 169.75 232.47V42.49C169.75 40.39 168.07 38.64 165.9 38.64H30.7302Z" fill="#EBEBEB"/>
<path d="M317.31 236.46H182.14C179.9 236.46 178.15 234.64 178.15 232.47V42.49C178.15 40.32 179.97 38.5 182.14 38.5H317.31C319.48 38.5 321.3 40.25 321.3 42.49V232.47C321.3 234.64 319.55 236.46 317.31 236.46ZM182.14 38.64C180.04 38.64 178.29 40.32 178.29 42.49V232.47C178.29 234.57 179.97 236.32 182.14 236.32H317.31C319.41 236.32 321.16 234.64 321.16 232.47V42.49C321.16 40.39 319.48 38.64 317.31 38.64H182.14Z" fill="#EBEBEB"/>
<path d="M350 267.68H0V267.89H350V267.68Z" fill="#EBEBEB"/>
<path d="M104.44 150.711H88.7598V267.611H104.44V150.711Z" fill="#F0F0F0"/>
<path d="M130.55 110.811H114.87V267.611H130.55V110.811Z" fill="#F0F0F0"/>
<path d="M156.73 150.711H141.05V267.611H156.73V150.711Z" fill="#F0F0F0"/>
<path d="M52.1502 190.539H36.4702V267.609H52.1502V190.539Z" fill="#F0F0F0"/>
<path d="M78.2601 171.289H62.5801V267.609H78.2601V171.289Z" fill="#F0F0F0"/>
<path d="M182.84 190.539H167.16V267.609H182.84V190.539Z" fill="#F0F0F0"/>
<path d="M313.53 70.9805H297.85V267.61H313.53V70.9805Z" fill="#F0F0F0"/>
<path d="M208.95 150.711H193.27V267.611H208.95V150.711Z" fill="#F0F0F0"/>
<path d="M287.35 110.811H271.67V267.611H287.35V110.811Z" fill="#F0F0F0"/>
<path d="M261.24 131.461H245.56V267.611H261.24V131.461Z" fill="#F0F0F0"/>
<path d="M235.13 171.289H219.45V267.609H235.13V171.289Z" fill="#F0F0F0"/>
<path d="M244.02 107.45L249.62 120.61L278.39 99.8901L286.79 74.1301L302.12 60.6901L305.62 64.7501L313.67 45.0801L290.78 46.2001L294.84 50.8201L279.51 63.9801L271.81 89.9501L244.02 107.45Z" fill="#F0F0F0"/>
<path d="M43.5401 151.901C49.5711 151.901 54.4601 147.011 54.4601 140.981C54.4601 134.95 49.5711 130.061 43.5401 130.061C37.5092 130.061 32.6201 134.95 32.6201 140.981C32.6201 147.011 37.5092 151.901 43.5401 151.901Z" fill="#EBEBEB"/>
<path d="M44.8702 151.901C50.9011 151.901 55.7902 147.011 55.7902 140.981C55.7902 134.95 50.9011 130.061 44.8702 130.061C38.8392 130.061 33.9502 134.95 33.9502 140.981C33.9502 147.011 38.8392 151.901 44.8702 151.901Z" fill="#FAFAFA"/>
<path d="M44.8702 149.169C49.3934 149.169 53.0602 145.502 53.0602 140.979C53.0602 136.456 49.3934 132.789 44.8702 132.789C40.347 132.789 36.6802 136.456 36.6802 140.979C36.6802 145.502 40.347 149.169 44.8702 149.169Z" fill="#F0F0F0"/>
<path d="M48.4401 142.73C48.7201 144.55 47.5301 145.74 45.2901 145.95V147.42H43.8901L43.9601 145.95C42.7701 145.88 41.6501 145.53 40.6001 144.9L41.2301 143.22C42.0701 143.78 42.9801 144.13 43.9601 144.2L44.0301 141.89C42.7001 141.47 41.2301 140.98 40.9501 139.37C40.6001 137.55 41.9301 136.36 44.1701 136.15V134.68H45.5701V136.22C46.4801 136.29 47.3901 136.57 48.2301 136.99L47.6701 138.6C47.0401 138.18 46.2701 137.97 45.5001 137.9L45.4301 140.28C46.7601 140.7 48.1601 141.19 48.4401 142.73ZM44.1001 139.93L44.1701 137.97C43.4001 138.11 43.0501 138.53 43.1201 139.09C43.1901 139.65 43.5401 139.72 44.1001 139.93ZM46.3401 143.08C46.2701 142.66 45.9201 142.45 45.4301 142.24V144.13C46.0601 143.99 46.4101 143.64 46.3401 143.08Z" fill="white"/>
<path d="M135.17 84.8401C139.02 93.0301 133.84 101.22 126.42 104.37C119.63 107.38 111.72 104.23 108.71 97.4401C108.5 97.0201 108.36 96.6001 108.22 96.1101C105.63 88.4801 108.29 76.1601 115.78 73.0801C115.78 73.0801 130.06 73.9901 135.17 84.8401Z" fill="#F0F0F0"/>
<path d="M126.98 89.3897C128.17 91.1397 127.4 93.0297 125.09 94.2197L125.72 95.8297L124.25 96.4597L123.62 94.8497C122.29 95.2697 120.96 95.4097 119.56 95.1997L119.42 93.1697C120.54 93.3797 121.73 93.3097 122.78 92.9597L121.8 90.5097C120.19 90.7197 118.37 90.8597 117.32 89.2497C116.13 87.4997 116.9 85.6097 119.28 84.4197L118.65 82.8097L120.12 82.1797L120.82 83.7897C121.87 83.4397 122.92 83.2997 124.04 83.4397L124.25 85.4697C123.34 85.3297 122.5 85.3997 121.59 85.6797L122.64 88.2697C124.18 87.9897 125.93 87.8497 126.98 89.3897ZM120.96 88.4097L120.12 86.3097C119.42 86.7997 119.21 87.4297 119.49 87.9197C119.91 88.3397 120.4 88.4797 120.96 88.4097ZM124.81 90.7197C124.46 90.2997 123.9 90.1597 123.41 90.2997L124.25 92.3297C124.95 91.7697 125.16 91.2797 124.81 90.7197Z" fill="white"/>
<path d="M111.93 75.8096L108.15 72.3096C108.15 72.3096 108.57 68.9496 110.6 67.9696C111.72 67.3396 113.05 67.3396 114.24 67.8996L118.02 65.0996L118.65 73.7096C118.72 73.6396 116.06 78.3296 111.93 75.8096Z" fill="#F0F0F0"/>
<path d="M116.2 73.9197C115.29 72.3797 114.38 70.7697 113.47 69.2297C112.77 68.9497 112 69.0897 111.37 69.5097C110.74 69.9297 110.39 70.6297 110.39 71.3997C111.16 72.6597 112.14 73.8497 113.26 74.8997C113.4 74.2697 115.71 73.5697 116.2 73.9197Z" fill="#E0E0E0"/>
<path d="M116.97 73.8499L116.27 68.6699C116.06 68.9499 115.85 69.1599 115.64 69.4399C115.85 70.4899 116.48 73.6399 116.62 73.7799L116.97 73.8499Z" fill="#E0E0E0"/>
<path d="M217.28 141.821C205.66 148.891 193.9 134.891 182.28 141.961C182.28 135.451 182.28 129.011 182.21 122.501C193.83 115.431 205.59 129.431 217.21 122.361L217.28 141.821Z" fill="#FAFAFA"/>
<path d="M215.74 139.58L215.67 126.21C215.18 126.49 214.62 126.35 214.34 125.86C214.2 125.65 214.2 125.44 214.2 125.23C204.61 128.31 194.95 119.56 185.29 122.57C185.22 123.48 184.66 124.25 183.82 124.6L183.89 137.97C184.38 137.69 184.94 137.83 185.22 138.32C185.36 138.53 185.36 138.74 185.36 138.95C194.95 135.87 204.61 144.69 214.27 141.61C214.34 140.77 214.9 140 215.74 139.58Z" fill="#F0F0F0"/>
<path d="M198.94 130.83C198.94 130.97 199.01 131.11 199.08 131.18C199.22 131.32 199.36 131.39 199.5 131.46C199.5 131.11 199.5 130.76 199.5 130.41C199.36 130.41 199.22 130.41 199.08 130.48C198.94 130.62 198.94 130.69 198.94 130.83Z" fill="white"/>
<path d="M200.2 132.93V133.91C200.34 133.91 200.48 133.91 200.62 133.84C200.69 133.77 200.76 133.7 200.76 133.56C200.76 133.42 200.69 133.28 200.62 133.21C200.48 133.14 200.34 133.07 200.2 132.93Z" fill="white"/>
<path d="M199.78 126.7C196.77 125.79 194.32 127.68 194.32 130.69C194.32 133.7 196.77 136.71 199.78 137.62C202.79 138.53 205.24 136.64 205.24 133.63C205.24 130.62 202.79 127.68 199.78 126.7ZM201.46 134.75C201.11 134.96 200.62 135.03 200.2 134.89V135.73L199.5 135.52V134.75C199.15 134.61 198.8 134.47 198.45 134.26C198.17 134.12 197.89 133.91 197.68 133.63L198.1 132.86C198.31 133.07 198.52 133.21 198.73 133.42C198.94 133.56 199.22 133.7 199.5 133.84V132.65C199.22 132.51 198.87 132.3 198.59 132.09C198.38 131.95 198.17 131.74 197.96 131.46C197.82 131.18 197.68 130.9 197.68 130.62C197.68 130.27 197.82 129.92 198.1 129.71C198.52 129.5 198.94 129.43 199.36 129.57C199.36 129.29 199.36 129.01 199.36 128.73L200.06 128.94V129.71C200.62 129.92 201.11 130.2 201.53 130.62L201.18 131.39C200.83 131.11 200.48 130.83 200.06 130.69C200.06 131.11 200.06 131.53 200.06 131.95C200.34 132.09 200.62 132.3 200.9 132.51C201.11 132.65 201.32 132.86 201.53 133.14C201.67 133.42 201.81 133.7 201.81 133.98C201.95 134.19 201.74 134.54 201.46 134.75Z" fill="white"/>
<path d="M220.01 138.6C208.39 145.67 196.63 131.67 185.01 138.74C185.01 132.23 184.94 125.79 184.94 119.28C196.56 112.21 208.32 126.21 219.94 119.14L220.01 138.6Z" fill="#FAFAFA"/>
<path d="M218.47 136.43L218.4 123.06C217.98 123.34 217.35 123.2 217.07 122.78C216.93 122.57 216.93 122.36 216.93 122.15C207.34 125.23 197.68 116.48 188.02 119.49C187.95 120.4 187.39 121.24 186.55 121.59L186.62 134.96C187.11 134.68 187.67 134.82 187.95 135.31C188.09 135.52 188.09 135.73 188.09 135.94C197.68 132.86 207.34 141.61 217 138.6C217 137.55 217.63 136.78 218.47 136.43Z" fill="#F0F0F0"/>
<path d="M201.67 127.61C201.67 127.75 201.74 127.82 201.81 127.96C201.95 128.1 202.09 128.17 202.23 128.31V127.26C202.09 127.26 201.95 127.26 201.81 127.33C201.67 127.4 201.67 127.47 201.67 127.61Z" fill="white"/>
<path d="M202.93 129.711V130.691C203.07 130.691 203.21 130.691 203.35 130.621C203.42 130.551 203.49 130.481 203.49 130.341C203.49 130.201 203.42 130.061 203.35 129.991C203.21 129.921 203.07 129.851 202.93 129.711Z" fill="white"/>
<path d="M202.51 123.48C199.5 122.57 197.05 124.46 197.05 127.47C197.05 130.48 199.5 133.49 202.51 134.4C205.52 135.31 207.97 133.42 207.97 130.41C207.97 127.4 205.52 124.46 202.51 123.48ZM204.19 131.53C203.77 131.74 203.35 131.81 202.93 131.67V132.51L202.23 132.3V131.53C201.88 131.39 201.53 131.25 201.18 131.04C200.9 130.9 200.62 130.69 200.41 130.41L200.83 129.64C201.04 129.85 201.25 129.99 201.46 130.2C201.67 130.34 201.95 130.48 202.23 130.62V129.36C201.95 129.22 201.6 129.01 201.32 128.8C201.11 128.66 200.9 128.38 200.69 128.17C200.55 127.89 200.41 127.61 200.41 127.33C200.41 126.98 200.55 126.63 200.83 126.42C201.25 126.21 201.67 126.14 202.09 126.28V125.44L202.79 125.65V126.42C203.35 126.63 203.84 126.91 204.33 127.33C204.19 127.61 204.05 127.89 203.98 128.1C203.63 127.82 203.28 127.54 202.86 127.4C202.86 127.82 202.86 128.24 202.86 128.66C203.14 128.8 203.42 129.01 203.7 129.15C203.91 129.29 204.12 129.5 204.33 129.78C204.47 130.06 204.61 130.34 204.61 130.62C204.61 131.04 204.47 131.32 204.19 131.53Z" fill="white"/>
<path d="M175 298.9C249.962 298.9 310.73 295.359 310.73 290.99C310.73 286.622 249.962 283.08 175 283.08C100.038 283.08 39.27 286.622 39.27 290.99C39.27 295.359 100.038 298.9 175 298.9Z" fill="#F5F5F5"/>
<path d="M92.3301 285.67V287.14C92.3301 287.91 92.9601 288.54 93.7301 288.54H145.95C146.65 288.54 147.21 287.98 147.21 287.28V285.88C147.21 285.18 146.65 284.62 145.95 284.62H132.93C131.6 284.62 130.55 283.57 130.55 282.24C130.55 282.1 130.55 281.96 130.62 281.82L135.1 255.5H105.42L92.7501 283.57C92.4701 284.27 92.3301 284.97 92.3301 285.67Z" fill="#263238"/>
<path opacity="0.2" d="M147.14 285.81V287.21C147.14 287.91 146.58 288.47 145.88 288.47H93.6598C92.8898 288.47 92.2598 287.84 92.2598 287.07V285.6C92.2598 285.18 92.3298 284.83 92.3998 284.48C92.4698 284.13 92.6098 283.85 92.7498 283.5L105.49 255.43H135.1L130.55 281.75C130.55 281.89 130.48 282.03 130.48 282.24C130.48 283.36 131.32 284.27 132.37 284.48C132.51 284.48 132.72 284.55 132.86 284.55H145.81C146.58 284.55 147.14 285.11 147.14 285.81Z" fill="white"/>
<path d="M91.0699 283.57L103.74 255.5H105.42L92.7499 283.57C92.4699 284.2 92.3299 284.97 92.3299 285.67V287.14C92.3299 287.91 92.9599 288.54 93.7299 288.54H92.0499C91.2799 288.54 90.6499 287.91 90.6499 287.14V285.67C90.6499 284.97 90.7899 284.27 91.0699 283.57Z" fill="#263238"/>
<path opacity="0.3" d="M105.42 255.5H135.1L133.91 262.22H102.41L105.42 255.5Z" fill="black"/>
<path d="M186.55 258.44H60.0597C57.4697 258.37 55.2997 256.41 55.0197 253.82L47.0397 162.47C46.8297 160.16 48.5097 158.13 50.8197 157.85C50.9597 157.85 51.0997 157.85 51.2397 157.85H177.73C180.32 157.92 182.49 159.88 182.77 162.47L190.75 253.89C190.96 256.2 189.28 258.23 186.97 258.51C186.83 258.44 186.69 258.44 186.55 258.44Z" fill="#263238"/>
<path d="M189.91 243.949L190.75 253.819C190.96 256.129 189.28 258.159 186.97 258.439C186.83 258.439 186.69 258.439 186.55 258.439H60.0597C57.4697 258.369 55.2997 256.409 55.0197 253.819L54.1797 243.949H189.91Z" fill="#C80000"/>
<path opacity="0.3" d="M189.91 243.949L190.75 253.819C190.96 256.129 189.28 258.159 186.97 258.439C186.83 258.439 186.69 258.439 186.55 258.439H60.0597C57.4697 258.369 55.2997 256.409 55.0197 253.819L54.1797 243.949" fill="black"/>
<path d="M58.5898 241.15H184.87C186.13 241.15 187.18 240.17 187.18 238.91C187.18 238.84 187.18 238.7 187.18 238.63L180.6 163.1C180.46 161.7 179.27 160.65 177.87 160.58H51.5898C50.3298 160.58 49.2798 161.56 49.2798 162.82C49.2798 162.89 49.2798 163.03 49.2798 163.1L55.8598 238.63C55.9998 240.03 57.1898 241.15 58.5898 241.15Z" fill="#C80000"/>
<path opacity="0.6" d="M58.5898 241.15H184.87C186.13 241.15 187.18 240.17 187.18 238.91C187.18 238.84 187.18 238.7 187.18 238.63L180.6 163.1C180.46 161.7 179.27 160.65 177.87 160.58H51.5898C50.3298 160.58 49.2798 161.56 49.2798 162.82C49.2798 162.89 49.2798 163.03 49.2798 163.1L55.8598 238.63C55.9998 240.03 57.1898 241.15 58.5898 241.15Z" fill="white"/>
<path d="M48.4399 157.779H51.2399C48.9299 157.779 47.0399 159.669 47.0399 161.979C47.0399 162.119 47.0399 162.259 47.0399 162.399L55.0199 253.819C55.2999 256.409 57.4699 258.369 60.0599 258.439H57.2599C54.6699 258.369 52.4999 256.409 52.2199 253.819L44.2399 162.469C44.0299 160.159 45.7099 158.129 48.0199 157.849C48.1599 157.779 48.2999 157.779 48.4399 157.779Z" fill="#C80000"/>
<path opacity="0.3" d="M48.4399 157.779H51.2399C48.9299 157.779 47.0399 159.669 47.0399 161.979C47.0399 162.119 47.0399 162.259 47.0399 162.399L55.0199 253.819C55.2999 256.409 57.4699 258.369 60.0599 258.439H57.2599C54.6699 258.369 52.4999 256.409 52.2199 253.819L44.2399 162.469C44.0299 160.159 45.7099 158.129 48.0199 157.849C48.1599 157.779 48.2999 157.779 48.4399 157.779Z" fill="white"/>
<path d="M143.57 175.558C143.64 179.198 140.7 182.138 137.13 182.208C137.06 182.208 136.99 182.208 136.92 182.208H98.9099C94.7799 182.138 91.3499 178.988 90.9299 174.928C90.9299 174.718 90.9299 174.508 90.9299 174.298C90.8599 170.658 93.7999 167.718 97.4399 167.648C97.5099 167.648 97.5799 167.648 97.6499 167.648H135.66C139.79 167.718 143.22 170.868 143.64 174.928C143.57 175.138 143.57 175.348 143.57 175.558Z" fill="#C80000"/>
<g opacity="0.1">
<path d="M142.03 175.558C142.1 179.198 139.16 182.138 135.59 182.208C135.52 182.208 135.45 182.208 135.38 182.208H98.9099C94.7799 182.138 91.3499 178.988 90.9299 174.928C90.9299 174.718 90.9299 174.508 90.9299 174.298C90.8599 170.658 93.7999 167.718 97.4399 167.648C97.5099 167.648 97.5799 167.648 97.6499 167.648H134.12C138.25 167.718 141.68 170.868 142.1 174.928C142.03 175.138 142.03 175.348 142.03 175.558Z" fill="white"/>
</g>
<path d="M95.1301 210.559L95.2001 211.469H94.5001L94.4301 210.559C93.6601 210.559 92.9601 210.279 92.3301 209.859L92.6101 209.019C93.1001 209.369 93.6601 209.579 94.2901 209.649L94.1501 207.969C93.2401 207.759 92.1901 207.479 92.1201 206.289C92.0501 205.449 92.6101 204.749 93.8701 204.609L93.8001 203.699H94.5001L94.5701 204.609C95.2001 204.609 95.7601 204.819 96.2501 205.099L95.9701 205.939C95.5501 205.729 95.0601 205.519 94.5701 205.519L94.7101 207.199C95.6201 207.409 96.6701 207.689 96.7401 208.879C96.9501 209.719 96.4601 210.419 95.1301 210.559ZM94.1501 207.059L94.0101 205.589C93.4501 205.659 93.2401 205.939 93.2401 206.359C93.2401 206.779 93.6601 206.919 94.1501 207.059ZM95.8301 208.949C95.7601 208.529 95.4101 208.389 94.9201 208.249L95.0601 209.719C95.6901 209.579 95.9001 209.299 95.8301 208.949Z" fill="#C80000"/>
<path d="M101.71 208.739C101.78 209.719 101.15 210.559 99.6101 210.559C98.8401 210.559 98.0701 210.349 97.3701 209.859L97.7201 209.019C98.2101 209.369 98.8401 209.579 99.4701 209.579C100.24 209.579 100.66 209.229 100.59 208.669C100.52 208.109 100.17 207.759 98.9801 207.759H97.5801V204.609H100.94L101.01 205.519H98.5601V206.849H99.1201C100.87 206.989 101.64 207.759 101.71 208.739Z" fill="#C80000"/>
<path d="M102.27 207.62C102.13 205.73 103.04 204.68 104.44 204.68C105.84 204.68 106.96 205.73 107.1 207.62C107.24 209.51 106.33 210.56 104.93 210.56C103.53 210.56 102.41 209.51 102.27 207.62ZM105.98 207.62C105.84 206.22 105.28 205.59 104.44 205.59C103.6 205.59 103.18 206.22 103.32 207.62C103.46 209.02 104.02 209.65 104.79 209.65C105.56 209.65 106.12 209.02 105.98 207.62Z" fill="#C80000"/>
<path d="M107.8 207.62C107.66 205.73 108.57 204.68 109.97 204.68C111.37 204.68 112.49 205.73 112.63 207.62C112.77 209.51 111.86 210.56 110.46 210.56C109.06 210.56 107.94 209.51 107.8 207.62ZM111.51 207.62C111.37 206.22 110.81 205.59 110.04 205.59C109.27 205.59 108.78 206.22 108.92 207.62C109.06 209.02 109.62 209.65 110.39 209.65C111.16 209.65 111.58 209.02 111.51 207.62Z" fill="#C80000"/>
<path d="M113.26 207.62C113.12 205.73 114.03 204.68 115.36 204.68C116.69 204.68 117.88 205.73 118.02 207.62C118.16 209.51 117.25 210.56 115.85 210.56C114.45 210.56 113.47 209.51 113.26 207.62ZM117.04 207.62C116.9 206.22 116.34 205.59 115.57 205.59C114.8 205.59 114.31 206.22 114.45 207.62C114.59 209.02 115.15 209.65 115.92 209.65C116.69 209.65 117.11 209.02 117.04 207.62Z" fill="#C80000"/>
<path d="M120.19 209.86C120.19 210.07 120.19 210.35 120.05 210.56L119.77 211.68H119.07L119.28 210.42C119 210.35 118.86 210.07 118.86 209.79C118.79 209.44 119 209.16 119.35 209.09C119.42 209.09 119.42 209.09 119.49 209.09C119.84 209.16 120.19 209.44 120.19 209.86Z" fill="#C80000"/>
<path d="M120.61 207.62C120.47 205.73 121.38 204.68 122.78 204.68C124.18 204.68 125.3 205.73 125.44 207.62C125.58 209.51 124.67 210.56 123.27 210.56C121.87 210.56 120.75 209.51 120.61 207.62ZM124.32 207.62C124.18 206.22 123.62 205.59 122.85 205.59C122.08 205.59 121.59 206.22 121.73 207.62C121.87 209.02 122.43 209.65 123.2 209.65C123.97 209.65 124.46 209.02 124.32 207.62Z" fill="#C80000"/>
<path d="M126.14 207.62C126 205.73 126.91 204.68 128.31 204.68C129.71 204.68 130.83 205.73 130.97 207.62C131.11 209.51 130.2 210.56 128.8 210.56C127.4 210.56 126.28 209.51 126.14 207.62ZM129.85 207.62C129.71 206.22 129.15 205.59 128.38 205.59C127.61 205.59 127.12 206.22 127.26 207.62C127.4 209.02 127.96 209.65 128.73 209.65C129.5 209.65 129.99 209.02 129.85 207.62Z" fill="#C80000"/>
<path d="M134.33 207.97L134.05 204.75H135.1L135.38 207.97C135.45 209.16 136.08 209.65 136.99 209.65C137.9 209.65 138.39 209.16 138.32 207.97L138.04 204.75H139.09L139.37 207.97C139.51 209.65 138.67 210.56 137.06 210.56C135.66 210.63 134.4 209.58 134.33 208.18C134.33 208.11 134.33 208.04 134.33 207.97Z" fill="#C80000"/>
<path d="M140.56 209.93L140.84 209.09C141.4 209.51 142.1 209.72 142.8 209.72C143.71 209.72 144.06 209.37 143.99 208.95C143.92 207.69 140.56 208.53 140.35 206.36C140.28 205.45 140.91 204.68 142.52 204.68C143.22 204.68 143.85 204.82 144.48 205.17L144.2 206.01C143.71 205.73 143.15 205.59 142.59 205.59C141.68 205.59 141.4 205.94 141.4 206.36C141.47 207.62 144.83 206.78 145.04 208.88C145.11 209.79 144.41 210.56 142.87 210.56C142.03 210.63 141.19 210.35 140.56 209.93Z" fill="#C80000"/>
<path d="M145.74 204.749H148.26C150.01 204.609 151.48 205.869 151.62 207.619C151.76 209.369 150.57 210.489 148.75 210.489H146.23L145.74 204.749ZM148.61 209.579C149.59 209.719 150.43 209.019 150.57 208.039C150.57 207.899 150.57 207.759 150.57 207.549C150.5 206.359 149.52 205.519 148.33 205.589H148.26H146.86L147.21 209.509H148.61V209.579Z" fill="#C80000"/>
<path d="M152.32 209.86C152.25 209.51 152.46 209.23 152.81 209.16C152.88 209.16 152.88 209.16 152.95 209.16C153.37 209.16 153.65 209.44 153.65 209.86C153.72 210.21 153.51 210.49 153.16 210.56C153.09 210.56 153.09 210.56 153.02 210.56C152.67 210.56 152.39 210.28 152.32 209.86Z" fill="#C80000"/>
<g opacity="0.2">
<path d="M107.1 172.27L105.91 177.31H104.93L103.39 173.6L102.48 177.31H101.5L99.3999 172.27H100.38L101.99 176.05L102.97 172.27H103.81L105.42 176.12L106.4 172.27H107.1Z" fill="white"/>
<path d="M107.73 172.269C107.73 171.989 107.87 171.779 108.15 171.709H108.22C108.5 171.709 108.78 171.919 108.85 172.199C108.92 172.479 108.71 172.689 108.43 172.759H108.36C108.01 172.829 107.73 172.619 107.73 172.269ZM107.94 173.459H108.85L109.2 177.309H108.29L107.94 173.459Z" fill="white"/>
<path d="M112.63 177.099C112.42 177.309 112.07 177.379 111.79 177.379C111.09 177.449 110.46 176.889 110.39 176.189V176.119L110.25 174.299H109.62L109.55 173.599H110.18L110.11 172.689H111.02L111.09 173.599H112.14L112.21 174.299H111.16L111.3 176.119C111.3 176.399 111.51 176.679 111.79 176.679H111.86C112.07 176.679 112.21 176.609 112.35 176.539L112.63 177.099Z" fill="white"/>
<path d="M116.97 175.07L117.18 177.24H116.27L116.06 175.14C115.99 174.44 115.64 174.16 115.08 174.16C114.52 174.16 114.03 174.58 114.1 175.28L114.24 177.24H113.4L112.91 171.92H113.82L113.96 173.88C114.31 173.53 114.73 173.39 115.22 173.39C116.13 173.32 116.9 174.02 116.9 174.93C116.97 175 116.97 175.07 116.97 175.07Z" fill="white"/>
<path d="M121.59 171.988L122.08 177.308H121.24L121.17 176.818C120.89 177.168 120.4 177.378 119.98 177.378C118.86 177.378 117.95 176.538 117.88 175.418C117.81 174.438 118.51 173.598 119.56 173.528C120.05 173.458 120.61 173.668 120.96 174.018L120.82 172.058L121.59 171.988ZM121.03 175.348C121.03 174.648 120.47 174.158 119.77 174.158C119.21 174.158 118.72 174.578 118.72 175.138C118.72 175.208 118.72 175.278 118.72 175.348C118.72 176.048 119.28 176.538 119.98 176.538C120.54 176.538 121.03 176.118 121.03 175.558C121.03 175.558 121.03 175.488 121.03 175.348Z" fill="white"/>
<path d="M125.09 173.458L125.16 174.298C125.09 174.298 125.02 174.298 124.95 174.298C124.25 174.298 123.9 174.718 123.97 175.488L124.11 177.308H123.2L122.85 173.458H123.69L123.76 174.018C124.04 173.598 124.6 173.318 125.09 173.458Z" fill="white"/>
<path d="M129.15 175.069L129.36 177.309H128.52L128.45 176.819C128.17 177.169 127.75 177.379 127.26 177.309C126.56 177.379 125.86 176.889 125.72 176.189C125.65 175.559 126.07 175.069 127.19 175.069H128.17V174.999C128.1 174.439 127.75 174.159 127.12 174.159C126.7 174.159 126.35 174.299 126 174.509L125.58 173.879C126.07 173.529 126.63 173.389 127.19 173.389C128.1 173.249 128.94 173.879 129.01 174.789C129.15 174.929 129.15 174.999 129.15 175.069ZM128.38 176.119L128.31 175.699H127.4C126.77 175.699 126.63 175.909 126.7 176.189C126.77 176.469 126.98 176.749 127.47 176.749C127.89 176.749 128.24 176.469 128.38 176.119Z" fill="white"/>
<path d="M136.08 173.459L135.03 177.309H134.19L133 174.649L132.23 177.309H131.39L129.64 173.459H130.48L131.74 176.259L132.51 173.459H133.28L134.54 176.329L135.31 173.459H136.08Z" fill="white"/>
</g>
<path d="M96.39 198.519L96.6 200.549H95.55L95.34 198.519L92.75 194.809H93.87L95.83 197.609L97.3 194.809H98.35L96.39 198.519Z" fill="#C80000"/>
<path d="M98.3499 198.31C98.2099 197.19 98.9799 196.21 100.1 196.07C100.24 196.07 100.38 196.07 100.45 196.07C101.78 196 102.9 196.98 102.97 198.31C103.11 199.43 102.34 200.41 101.29 200.55C101.15 200.55 101.01 200.55 100.87 200.55C99.5399 200.62 98.4899 199.64 98.3499 198.31ZM101.99 198.31C101.99 197.54 101.36 196.91 100.59 196.91C99.9599 196.91 99.3999 197.4 99.3999 198.03C99.3999 198.1 99.3999 198.17 99.3999 198.31C99.3999 199.08 100.03 199.71 100.8 199.71C101.43 199.71 101.99 199.22 101.99 198.59C101.99 198.52 101.99 198.45 101.99 198.31Z" fill="#C80000"/>
<path d="M108.08 196.139L108.5 200.549H107.52L107.45 199.989C107.1 200.409 106.61 200.619 106.12 200.619C105.07 200.689 104.16 199.919 104.09 198.869C104.09 198.799 104.09 198.729 104.09 198.729L103.88 196.209H104.93L105.14 198.589C105.21 199.359 105.63 199.779 106.26 199.779C106.89 199.779 107.45 199.359 107.38 198.449L107.17 196.209H108.08V196.139Z" fill="#C80000"/>
<path d="M111.93 196.069L112 197.049C111.93 197.049 111.86 197.049 111.79 197.049C111.02 197.049 110.53 197.539 110.67 198.379L110.88 200.479H109.83L109.48 196.069H110.46L110.53 196.699C110.74 196.279 111.37 195.999 111.93 196.069Z" fill="#C80000"/>
<path d="M115.08 194.809H116.13L116.62 200.549H115.57L115.08 194.809Z" fill="#C80000"/>
<path d="M122.22 198.029L122.43 200.549H121.38L121.17 198.169C121.1 197.399 120.68 197.049 120.05 197.049C119.42 197.049 118.86 197.469 118.93 198.379L119.14 200.619H118.09L117.67 196.209H118.65L118.72 196.769C119.07 196.349 119.63 196.139 120.19 196.139C121.24 196.069 122.15 196.909 122.15 197.959C122.22 197.959 122.22 197.959 122.22 198.029Z" fill="#C80000"/>
<path d="M123.2 198.31C123.06 197.19 123.83 196.21 124.95 196.07C125.09 196.07 125.23 196.07 125.37 196.07C126.14 196 126.91 196.42 127.33 197.12L126.56 197.54C126.28 197.19 125.86 196.91 125.44 196.91C124.81 196.84 124.25 197.33 124.18 198.03C124.18 198.1 124.18 198.24 124.18 198.31C124.18 199.08 124.81 199.71 125.58 199.71C125.58 199.71 125.58 199.71 125.65 199.71C126.07 199.71 126.49 199.5 126.7 199.08L127.54 199.57C127.19 200.27 126.49 200.69 125.79 200.62C124.46 200.69 123.27 199.64 123.2 198.31Z" fill="#C80000"/>
<path d="M127.96 198.31C127.82 197.19 128.59 196.21 129.71 196.07C129.85 196.07 129.99 196.07 130.13 196.07C131.46 196 132.58 196.98 132.65 198.31C132.79 199.43 132.02 200.41 130.9 200.55C130.76 200.55 130.62 200.55 130.48 200.55C129.15 200.62 128.03 199.64 127.96 198.31ZM131.53 198.31C131.53 197.54 130.9 196.91 130.13 196.91C129.5 196.91 128.94 197.4 128.94 198.03C128.94 198.1 128.94 198.24 128.94 198.31C128.94 199.08 129.57 199.71 130.34 199.71C130.97 199.71 131.53 199.22 131.53 198.59C131.6 198.52 131.6 198.45 131.53 198.31Z" fill="#C80000"/>
<path d="M140.91 198.03L141.12 200.55H140.07L139.86 198.17C139.79 197.4 139.37 197.05 138.74 197.05C138.11 197.05 137.62 197.47 137.69 198.38L137.9 200.62H136.85L136.64 198.24C136.57 197.47 136.15 197.12 135.52 197.12C134.89 197.12 134.4 197.54 134.47 198.45L134.68 200.69H133.63L133.28 196.28H134.26L134.33 196.84C134.68 196.42 135.17 196.21 135.73 196.21C136.36 196.21 136.92 196.42 137.27 196.91C137.97 196.07 139.23 195.93 140.07 196.63C140.63 196.91 140.91 197.47 140.91 198.03Z" fill="#C80000"/>
<path d="M146.37 198.658H142.94C143.15 199.288 143.78 199.778 144.48 199.708C144.9 199.708 145.32 199.568 145.6 199.218L146.23 199.848C145.81 200.338 145.18 200.618 144.55 200.548C143.22 200.618 142.03 199.638 141.96 198.308C141.82 197.258 142.59 196.208 143.64 196.068C143.78 196.068 143.92 196.068 144.06 196.068C145.32 196.068 146.44 197.048 146.44 198.308C146.37 198.448 146.37 198.588 146.37 198.658ZM142.87 197.958H145.39C145.25 197.328 144.69 196.908 144.06 196.908C143.43 196.838 142.94 197.328 142.87 197.958Z" fill="#C80000"/>
<g opacity="0.1">
<path d="M103.67 160.58H98.7699L81.6899 241.15H86.5199L103.67 160.58Z" fill="white"/>
<path d="M76.72 241.15L93.87 160.58H75.6L58.52 241.15H76.72Z" fill="white"/>
</g>
<path opacity="0.2" d="M101.36 285.879V287.209C101.36 287.909 101.92 288.539 102.69 288.539H145.95C146.65 288.539 147.21 287.979 147.21 287.279V285.879C147.21 285.179 146.65 284.619 145.95 284.619H132.93C132.79 284.619 132.58 284.619 132.44 284.549H102.69C101.92 284.549 101.36 285.109 101.36 285.879Z" fill="white"/>
<path opacity="0.2" d="M92.4697 284.549H132.44C131.39 284.339 130.55 283.359 130.55 282.309H93.5197L92.4697 284.549Z" fill="black"/>
<path d="M142.52 184.59H136.22L138.39 178.99L142.52 184.59Z" fill="white"/>
<path d="M140.84 188.369H139.37L138.04 180.879H139.51L140.84 188.369Z" fill="white"/>
<path d="M92.3301 285.67V287.14C92.3301 287.91 92.9601 288.54 93.7301 288.54H145.95C146.65 288.54 147.21 287.98 147.21 287.28V285.88C147.21 285.18 146.65 284.62 145.95 284.62H132.93C131.6 284.62 130.55 283.57 130.55 282.24C130.55 282.1 130.55 281.96 130.62 281.82L135.1 255.5H105.42L92.7501 283.57C92.4701 284.27 92.3301 284.97 92.3301 285.67Z" fill="#263238"/>
<path opacity="0.2" d="M147.14 285.81V287.21C147.14 287.91 146.58 288.47 145.88 288.47H93.6598C92.8898 288.47 92.2598 287.84 92.2598 287.07V285.6C92.2598 285.18 92.3298 284.83 92.3998 284.48C92.4698 284.13 92.6098 283.85 92.7498 283.5L105.49 255.43H135.1L130.55 281.75C130.55 281.89 130.48 282.03 130.48 282.24C130.48 283.36 131.32 284.27 132.37 284.48C132.51 284.48 132.72 284.55 132.86 284.55H145.81C146.58 284.55 147.14 285.11 147.14 285.81Z" fill="white"/>
<path d="M91.0699 283.57L103.74 255.5H105.42L92.7499 283.57C92.4699 284.2 92.3299 284.97 92.3299 285.67V287.14C92.3299 287.91 92.9599 288.54 93.7299 288.54H92.0499C91.2799 288.54 90.6499 287.91 90.6499 287.14V285.67C90.6499 284.97 90.7899 284.27 91.0699 283.57Z" fill="#263238"/>
<path opacity="0.3" d="M105.42 255.5H135.1L133.91 262.22H102.41L105.42 255.5Z" fill="black"/>
<path d="M186.55 258.44H60.0597C57.4697 258.37 55.2997 256.41 55.0197 253.82L47.0397 162.47C46.8297 160.16 48.5097 158.13 50.8197 157.85C50.9597 157.85 51.0997 157.85 51.2397 157.85H177.73C180.32 157.92 182.49 159.88 182.77 162.47L190.75 253.89C190.96 256.2 189.28 258.23 186.97 258.51C186.83 258.44 186.69 258.44 186.55 258.44Z" fill="#263238"/>
<path d="M189.91 243.949L190.75 253.819C190.96 256.129 189.28 258.159 186.97 258.439C186.83 258.439 186.69 258.439 186.55 258.439H60.0597C57.4697 258.369 55.2997 256.409 55.0197 253.819L54.1797 243.949H189.91Z" fill="#C80000"/>
<path opacity="0.3" d="M189.91 243.949L190.75 253.819C190.96 256.129 189.28 258.159 186.97 258.439C186.83 258.439 186.69 258.439 186.55 258.439H60.0597C57.4697 258.369 55.2997 256.409 55.0197 253.819L54.1797 243.949" fill="black"/>
<path d="M58.5898 241.15H184.87C186.13 241.15 187.18 240.17 187.18 238.91C187.18 238.84 187.18 238.7 187.18 238.63L180.6 163.1C180.46 161.7 179.27 160.65 177.87 160.58H51.5898C50.3298 160.58 49.2798 161.56 49.2798 162.82C49.2798 162.89 49.2798 163.03 49.2798 163.1L55.8598 238.63C55.9998 240.03 57.1898 241.15 58.5898 241.15Z" fill="#C80000"/>
<path opacity="0.6" d="M58.5898 241.15H184.87C186.13 241.15 187.18 240.17 187.18 238.91C187.18 238.84 187.18 238.7 187.18 238.63L180.6 163.1C180.46 161.7 179.27 160.65 177.87 160.58H51.5898C50.3298 160.58 49.2798 161.56 49.2798 162.82C49.2798 162.89 49.2798 163.03 49.2798 163.1L55.8598 238.63C55.9998 240.03 57.1898 241.15 58.5898 241.15Z" fill="white"/>
<path d="M48.4399 157.779H51.2399C48.9299 157.779 47.0399 159.669 47.0399 161.979C47.0399 162.119 47.0399 162.259 47.0399 162.399L55.0199 253.819C55.2999 256.409 57.4699 258.369 60.0599 258.439H57.2599C54.6699 258.369 52.4999 256.409 52.2199 253.819L44.2399 162.469C44.0299 160.159 45.7099 158.129 48.0199 157.849C48.1599 157.779 48.2999 157.779 48.4399 157.779Z" fill="#C80000"/>
<path opacity="0.3" d="M48.4399 157.779H51.2399C48.9299 157.779 47.0399 159.669 47.0399 161.979C47.0399 162.119 47.0399 162.259 47.0399 162.399L55.0199 253.819C55.2999 256.409 57.4699 258.369 60.0599 258.439H57.2599C54.6699 258.369 52.4999 256.409 52.2199 253.819L44.2399 162.469C44.0299 160.159 45.7099 158.129 48.0199 157.849C48.1599 157.779 48.2999 157.779 48.4399 157.779Z" fill="white"/>
<path d="M143.57 175.558C143.64 179.198 140.7 182.138 137.13 182.208C137.06 182.208 136.99 182.208 136.92 182.208H98.9099C94.7799 182.138 91.3499 178.988 90.9299 174.928C90.9299 174.718 90.9299 174.508 90.9299 174.298C90.8599 170.658 93.7999 167.718 97.4399 167.648C97.5099 167.648 97.5799 167.648 97.6499 167.648H135.66C139.79 167.718 143.22 170.868 143.64 174.928C143.57 175.138 143.57 175.348 143.57 175.558Z" fill="#C80000"/>
<g opacity="0.1">
<path d="M142.03 175.558C142.1 179.198 139.16 182.138 135.59 182.208C135.52 182.208 135.45 182.208 135.38 182.208H98.9099C94.7799 182.138 91.3499 178.988 90.9299 174.928C90.9299 174.718 90.9299 174.508 90.9299 174.298C90.8599 170.658 93.7999 167.718 97.4399 167.648C97.5099 167.648 97.5799 167.648 97.6499 167.648H134.12C138.25 167.718 141.68 170.868 142.1 174.928C142.03 175.138 142.03 175.348 142.03 175.558Z" fill="white"/>
</g>
<g opacity="0.2">
<path d="M107.1 172.27L105.91 177.31H104.93L103.39 173.6L102.48 177.31H101.5L99.3999 172.27H100.38L101.99 176.05L102.97 172.27H103.81L105.42 176.12L106.4 172.27H107.1Z" fill="white"/>
<path d="M107.73 172.269C107.73 171.989 107.87 171.779 108.15 171.709H108.22C108.5 171.709 108.78 171.919 108.85 172.199C108.92 172.479 108.71 172.689 108.43 172.759H108.36C108.01 172.829 107.73 172.619 107.73 172.269ZM107.94 173.459H108.85L109.2 177.309H108.29L107.94 173.459Z" fill="white"/>
<path d="M112.63 177.099C112.42 177.309 112.07 177.379 111.79 177.379C111.09 177.449 110.46 176.889 110.39 176.189V176.119L110.25 174.299H109.62L109.55 173.599H110.18L110.11 172.689H111.02L111.09 173.599H112.14L112.21 174.299H111.16L111.3 176.119C111.3 176.399 111.51 176.679 111.79 176.679H111.86C112.07 176.679 112.21 176.609 112.35 176.539L112.63 177.099Z" fill="white"/>
<path d="M116.97 175.07L117.18 177.24H116.27L116.06 175.14C115.99 174.44 115.64 174.16 115.08 174.16C114.52 174.16 114.03 174.58 114.1 175.28L114.24 177.24H113.4L112.91 171.92H113.82L113.96 173.88C114.31 173.53 114.73 173.39 115.22 173.39C116.13 173.32 116.9 174.02 116.9 174.93C116.97 175 116.97 175.07 116.97 175.07Z" fill="white"/>
<path d="M121.59 171.988L122.08 177.308H121.24L121.17 176.818C120.89 177.168 120.4 177.378 119.98 177.378C118.86 177.378 117.95 176.538 117.88 175.418C117.81 174.438 118.51 173.598 119.56 173.528C120.05 173.458 120.61 173.668 120.96 174.018L120.82 172.058L121.59 171.988ZM121.03 175.348C121.03 174.648 120.47 174.158 119.77 174.158C119.21 174.158 118.72 174.578 118.72 175.138C118.72 175.208 118.72 175.278 118.72 175.348C118.72 176.048 119.28 176.538 119.98 176.538C120.54 176.538 121.03 176.118 121.03 175.558C121.03 175.558 121.03 175.488 121.03 175.348Z" fill="white"/>
<path d="M125.09 173.458L125.16 174.298C125.09 174.298 125.02 174.298 124.95 174.298C124.25 174.298 123.9 174.718 123.97 175.488L124.11 177.308H123.2L122.85 173.458H123.69L123.76 174.018C124.04 173.598 124.6 173.318 125.09 173.458Z" fill="white"/>
<path d="M129.15 175.069L129.36 177.309H128.52L128.45 176.819C128.17 177.169 127.75 177.379 127.26 177.309C126.56 177.379 125.86 176.889 125.72 176.189C125.65 175.559 126.07 175.069 127.19 175.069H128.17V174.999C128.1 174.439 127.75 174.159 127.12 174.159C126.7 174.159 126.35 174.299 126 174.509L125.58 173.879C126.07 173.529 126.63 173.389 127.19 173.389C128.1 173.249 128.94 173.879 129.01 174.789C129.15 174.929 129.15 174.999 129.15 175.069ZM128.38 176.119L128.31 175.699H127.4C126.77 175.699 126.63 175.909 126.7 176.189C126.77 176.469 126.98 176.749 127.47 176.749C127.89 176.749 128.24 176.469 128.38 176.119Z" fill="white"/>
<path d="M136.08 173.459L135.03 177.309H134.19L133 174.649L132.23 177.309H131.39L129.64 173.459H130.48L131.74 176.259L132.51 173.459H133.28L134.54 176.329L135.31 173.459H136.08Z" fill="white"/>
</g>
<g opacity="0.1">
<path d="M103.67 160.58H98.7699L81.6899 241.15H86.5199L103.67 160.58Z" fill="white"/>
<path d="M76.72 241.15L93.87 160.58H75.6L58.52 241.15H76.72Z" fill="white"/>
</g>
<path opacity="0.2" d="M101.36 285.879V287.209C101.36 287.909 101.92 288.539 102.69 288.539H145.95C146.65 288.539 147.21 287.979 147.21 287.279V285.879C147.21 285.179 146.65 284.619 145.95 284.619H132.93C132.79 284.619 132.58 284.619 132.44 284.549H102.69C101.92 284.549 101.36 285.109 101.36 285.879Z" fill="white"/>
<path opacity="0.2" d="M92.4697 284.549H132.44C131.39 284.339 130.55 283.359 130.55 282.309H93.5197L92.4697 284.549Z" fill="black"/>
<path d="M142.52 184.59H136.22L138.39 178.99L142.52 184.59Z" fill="white"/>
<path d="M140.84 188.369H139.37L138.04 180.879H139.51L140.84 188.369Z" fill="white"/>
<path d="M86.4499 210.21C85.5399 209.16 85.0499 207.76 84.9799 206.01C84.9099 204.61 85.1199 203.42 85.6099 202.51C86.0999 201.6 86.7299 200.97 87.4999 200.55C88.2699 200.13 89.1799 199.92 90.2299 199.85C90.9299 199.85 91.6299 199.92 92.1899 200.06C92.8199 200.2 93.3799 200.48 94.0099 200.76L93.0999 202.65C92.2599 202.16 91.3499 201.88 90.3699 201.95C88.4099 202.02 87.4299 203.28 87.4999 205.8C87.5699 207.06 87.8499 208.04 88.4099 208.67C88.9699 209.3 89.7399 209.58 90.7899 209.58C91.2799 209.58 91.7699 209.51 92.1199 209.37C92.4699 209.23 92.8899 209.02 93.3099 208.74L94.3599 210.49C93.7299 210.91 93.0999 211.19 92.5399 211.4C91.9799 211.61 91.2799 211.75 90.6499 211.75C88.8299 211.75 87.3599 211.26 86.4499 210.21Z" fill="white"/>
<path d="M97.0199 210.91C96.3899 210.56 95.8999 210.07 95.6199 209.44C95.3399 208.81 95.1299 208.11 95.1299 207.34C95.1299 206.36 95.2699 205.52 95.6199 204.89C95.9699 204.26 96.5299 203.77 97.1599 203.49C97.7899 203.21 98.4899 203.07 99.3299 203C100.24 203 100.94 203.14 101.57 203.49C102.2 203.84 102.69 204.33 102.97 204.96C103.32 205.59 103.46 206.29 103.46 207.13C103.46 208.11 103.32 208.88 102.97 209.51C102.62 210.14 102.13 210.63 101.5 210.91C100.87 211.19 100.1 211.4 99.3299 211.4C98.4199 211.47 97.6499 211.26 97.0199 210.91ZM100.66 208.95C100.87 208.53 101.01 207.9 101.01 207.13C101.01 206.36 100.8 205.73 100.52 205.31C100.24 204.89 99.8199 204.75 99.2599 204.75C98.6299 204.75 98.2099 204.96 97.9299 205.38C97.6499 205.8 97.5099 206.43 97.5799 207.2C97.5799 207.97 97.7899 208.53 98.0699 208.95C98.3499 209.37 98.8399 209.58 99.3999 209.58C99.9599 209.65 100.45 209.37 100.66 208.95Z" fill="white"/>
<path d="M111.79 203.279C112.21 203.699 112.42 204.259 112.49 205.029L112.63 210.769L110.25 210.839L110.11 205.799C110.11 205.449 110.04 205.239 109.97 205.029C109.9 204.819 109.76 204.749 109.62 204.679C109.48 204.609 109.27 204.539 108.99 204.609C108.5 204.609 107.94 204.819 107.31 205.239L107.45 211.049L105.07 211.119L104.86 203.279L107.24 202.999V203.769C107.66 203.489 108.08 203.279 108.5 203.069C108.92 202.929 109.41 202.789 109.83 202.789C110.81 202.719 111.37 202.859 111.79 203.279Z" fill="white"/>
<path d="M121.1 209.23C121.59 209.37 121.94 209.58 122.22 209.86C122.5 210.14 122.64 210.56 122.64 211.05C122.64 211.61 122.5 212.17 122.15 212.59C121.8 213.01 121.31 213.36 120.61 213.64C119.91 213.92 119.14 214.06 118.23 214.06C117.04 214.06 116.06 213.92 115.29 213.57C114.52 213.22 114.1 212.66 114.1 211.89C114.1 211.47 114.17 211.12 114.38 210.77C114.59 210.49 114.87 210.21 115.22 210C114.87 209.72 114.73 209.44 114.73 209.09C114.73 208.88 114.8 208.6 114.94 208.39C115.08 208.18 115.29 207.9 115.64 207.69C115.15 207.48 114.8 207.13 114.52 206.78C114.24 206.36 114.17 205.94 114.1 205.45C114.1 204.82 114.24 204.26 114.59 203.77C114.94 203.35 115.43 203 115.99 202.79C116.55 202.58 117.25 202.44 117.95 202.44C118.37 202.44 118.72 202.44 119 202.51L121.73 201.25L122.5 203.07L120.89 203.49C121.52 203.91 121.8 204.54 121.87 205.31C121.87 205.94 121.73 206.5 121.38 206.92C121.03 207.34 120.54 207.62 119.98 207.83C119.42 208.04 118.79 208.18 118.09 208.18C117.74 208.18 117.46 208.18 117.18 208.18C117.11 208.32 117.11 208.39 117.11 208.46C117.11 208.53 117.18 208.6 117.18 208.67C117.25 208.74 117.39 208.74 117.53 208.81C117.67 208.88 117.95 208.88 118.23 208.88L119.42 208.95C119.98 209.02 120.61 209.09 121.1 209.23ZM119.63 212.17C119.98 212.03 120.12 211.82 120.12 211.54C120.12 211.4 120.05 211.26 119.98 211.19C119.91 211.12 119.7 211.05 119.49 210.98C119.28 210.91 118.93 210.91 118.51 210.84L117.53 210.77C117.39 210.77 117.11 210.7 116.76 210.7C116.69 210.84 116.62 211.05 116.55 211.19C116.48 211.33 116.48 211.47 116.48 211.61C116.48 211.89 116.62 212.17 116.9 212.31C117.18 212.45 117.67 212.52 118.37 212.52C118.86 212.45 119.28 212.38 119.63 212.17ZM116.48 205.45C116.48 205.87 116.62 206.15 116.9 206.29C117.18 206.43 117.53 206.57 118.02 206.5C118.51 206.5 118.86 206.36 119.07 206.15C119.28 205.94 119.42 205.66 119.35 205.31C119.35 204.96 119.21 204.61 118.93 204.47C118.65 204.26 118.3 204.19 117.81 204.19C116.9 204.19 116.41 204.61 116.48 205.45Z" fill="white"/>
<path d="M129.15 202.3L128.87 204.68C128.66 204.61 128.52 204.54 128.38 204.54C128.24 204.54 128.03 204.47 127.82 204.47C127.54 204.47 127.19 204.54 126.91 204.68C126.63 204.82 126.35 205.1 126.07 205.45L126.21 210.21L123.83 210.28L123.62 202.44L126 202.16V203.28C126.56 202.44 127.26 202.02 128.17 202.02C128.52 202.16 128.87 202.23 129.15 202.3Z" fill="white"/>
<path d="M136.29 202.579C136.85 202.999 137.13 203.629 137.13 204.539L137.27 210.069L135.24 210.139L135.03 209.509C134.61 209.859 134.19 210.069 133.77 210.209C133.35 210.349 132.93 210.419 132.44 210.419C131.95 210.419 131.53 210.349 131.11 210.209C130.76 209.999 130.41 209.789 130.2 209.439C129.99 209.089 129.85 208.739 129.85 208.319C129.85 207.409 130.27 206.709 131.18 206.149C132.09 205.659 133.28 205.309 134.75 205.239V205.029C134.75 204.679 134.68 204.469 134.61 204.259C134.54 204.049 134.4 203.909 134.26 203.839C134.12 203.769 133.84 203.699 133.56 203.699C132.79 203.699 132.02 204.049 131.11 204.679L130.13 203.279C130.76 202.859 131.32 202.509 131.95 202.299C132.51 202.089 133.21 201.949 133.91 201.949C134.96 202.019 135.73 202.159 136.29 202.579ZM132.58 208.529C132.72 208.669 132.93 208.739 133.28 208.739C133.77 208.739 134.26 208.529 134.89 208.249L134.82 206.709C133.98 206.779 133.35 206.919 132.93 207.199C132.51 207.409 132.37 207.689 132.37 208.039C132.37 208.179 132.44 208.389 132.58 208.529Z" fill="white"/>
<path d="M144.55 209.51C143.85 209.93 143.15 210.14 142.24 210.14C141.82 210.14 141.4 210.07 141.05 209.93C140.7 209.79 140.35 209.51 140.14 209.16C139.93 208.81 139.79 208.32 139.72 207.76L139.58 203.98L138.18 204.05L138.11 202.16L139.51 202.09L139.44 200.34L141.82 199.92L141.89 202.02L144.06 201.95L143.85 203.84L141.89 203.91L141.96 207.27C141.96 207.62 142.03 207.83 142.17 207.97C142.31 208.11 142.45 208.18 142.66 208.18C142.8 208.18 143.01 208.18 143.15 208.11C143.29 208.04 143.5 207.97 143.71 207.9L144.55 209.51Z" fill="white"/>
<path d="M146.51 209.79C145.95 209.65 145.39 209.37 144.83 209.02L145.81 207.48C146.23 207.76 146.72 207.97 147.14 208.11C147.56 208.25 148.05 208.32 148.4 208.25C148.82 208.25 149.1 208.18 149.24 208.04C149.45 207.9 149.52 207.76 149.52 207.55C149.52 207.41 149.45 207.34 149.38 207.2C149.31 207.06 149.17 206.99 148.96 206.92C148.75 206.85 148.4 206.71 147.98 206.64L147.49 206.5C146.65 206.29 146.02 206.01 145.67 205.66C145.32 205.31 145.11 204.82 145.04 204.19C145.04 203.7 145.18 203.28 145.39 202.86C145.67 202.51 146.02 202.16 146.51 201.95C147 201.74 147.56 201.6 148.19 201.6C149.38 201.6 150.5 201.81 151.48 202.37L150.57 203.91C150.08 203.7 149.66 203.49 149.31 203.42C148.96 203.35 148.61 203.28 148.26 203.28C147.98 203.28 147.77 203.35 147.63 203.49C147.49 203.63 147.42 203.77 147.42 203.91C147.42 204.05 147.49 204.12 147.49 204.19C147.56 204.26 147.63 204.33 147.84 204.4C148.05 204.47 148.26 204.54 148.61 204.61L149.17 204.75C150.08 204.96 150.78 205.24 151.2 205.66C151.62 206.08 151.83 206.57 151.9 207.2C151.9 207.69 151.83 208.18 151.55 208.53C151.34 208.95 150.92 209.23 150.43 209.51C149.94 209.72 149.31 209.86 148.54 209.93C147.77 210 147.14 209.93 146.51 209.79Z" fill="white"/>
<path d="M80.0798 262.57L78.0498 262.78C77.7698 262.78 77.7698 262.36 78.0498 262.29L80.0798 262.08C80.3598 262.15 80.3598 262.57 80.0798 262.57Z" fill="#263238"/>
<path d="M80.2201 269.22L81.4102 270.13C81.6202 270.34 81.4102 270.69 81.2002 270.55L80.0102 269.64C79.7302 269.5 79.9401 269.08 80.2201 269.22Z" fill="#263238"/>
<path d="M83.2301 266.7L85.1901 267.12C85.4701 267.19 85.4001 267.61 85.0501 267.54L83.0901 267.12C82.8101 267.12 82.9501 266.63 83.2301 266.7Z" fill="#263238"/>
<path d="M81.4799 264.461L80.4999 262.991C80.3599 262.711 80.7099 262.501 80.9199 262.781L81.8999 264.251C82.0399 264.461 81.6199 264.741 81.4799 264.461Z" fill="#263238"/>
<path d="M78.1198 266.489L79.7298 266.839C80.0098 266.909 79.8698 267.329 79.5898 267.259L77.9798 266.909C77.6998 266.909 77.8398 266.419 78.1198 266.489Z" fill="#263238"/>
<path d="M64.4 268.451L62.44 268.661C62.16 268.661 62.16 268.241 62.44 268.171L64.4 267.961C64.68 267.961 64.68 268.451 64.4 268.451Z" fill="#263238"/>
<path d="M79.24 256.97L77.77 257.67C77.49 257.81 77.28 257.39 77.56 257.25L79.03 256.55C79.31 256.48 79.52 256.83 79.24 256.97Z" fill="#263238"/>
<path d="M75.3899 252C75.1799 252.63 74.8999 253.33 74.6199 253.96C74.4799 254.24 74.0599 254.1 74.1299 253.82L74.8999 251.86C75.0399 251.58 75.4599 251.72 75.3899 252Z" fill="#263238"/>
<path d="M64.1902 266.349H62.3702C62.2302 266.349 62.1602 266.209 62.1602 266.069C62.1602 265.999 62.2302 265.859 62.3702 265.859H64.1902C64.3302 265.859 64.4002 265.999 64.4002 266.139C64.3302 266.279 64.2602 266.349 64.1902 266.349Z" fill="#263238"/>
<path d="M64.1202 261.731L62.6502 261.381C62.3702 261.311 62.5102 260.891 62.7902 260.961L64.2602 261.311C64.5402 261.311 64.4002 261.731 64.1202 261.731Z" fill="#263238"/>
<path d="M69.9299 253.121L69.4399 251.581C69.4399 251.441 69.5099 251.301 69.5799 251.301C69.7199 251.301 69.8599 251.371 69.8599 251.441L70.3499 252.981C70.3499 253.121 70.2799 253.261 70.1399 253.261C70.0699 253.261 69.9299 253.261 69.9299 253.121Z" fill="#263238"/>
<path d="M76.72 272.16C76.72 272.16 87.5 267.68 84.28 263.83C81.2 260.19 79.8 268.66 76.72 269.78C73.64 270.9 76.72 272.16 76.72 272.16Z" fill="#C80000"/>
<path opacity="0.1" d="M76.72 272.16C76.72 272.16 87.5 267.68 84.28 263.83C81.2 260.19 79.8 268.66 76.72 269.78C73.64 270.9 76.72 272.16 76.72 272.16Z" fill="white"/>
<path d="M77.1399 274.47C77.1399 274.47 84.4899 252.14 71.3999 252.49C58.3099 252.84 65.4499 275.8 65.4499 275.8L77.1399 274.47Z" fill="#C80000"/>
<path opacity="0.3" d="M77.1399 274.47C77.1399 274.47 84.4899 252.14 71.3999 252.49C58.3099 252.84 65.4499 275.8 65.4499 275.8L77.1399 274.47Z" fill="white"/>
<path opacity="0.2" d="M65.45 275.799C65.45 275.799 63.21 268.729 63.49 262.359C63.98 272.719 73.01 272.159 73.01 272.159L73.64 274.889L65.45 275.799Z" fill="#263238"/>
<path d="M83.58 271.32L81.9 284.9C81.69 286.86 80.01 288.26 78.05 288.26H66.99C65.03 288.26 63.42 286.79 63.14 284.9L61.46 271.32H83.58Z" fill="#263238"/>
<g opacity="0.2">
<path d="M75.7402 270.9C76.6502 265.37 76.5102 255.85 69.3702 254.87C68.8802 254.8 69.0902 254.03 69.5802 254.1C77.1402 255.15 77.4202 265.16 76.5102 271.04C76.4402 271.6 75.6702 271.39 75.7402 270.9Z" fill="white"/>
</g>
<g opacity="0.5">
<path d="M72.9399 270.41C73.3599 265.93 72.4499 260.89 69.4399 257.46C69.0899 257.11 69.6499 256.55 69.9999 256.9C73.1499 260.47 74.1299 265.72 73.7799 270.41C73.7099 270.9 72.9399 270.9 72.9399 270.41Z" fill="white"/>
</g>
<g opacity="0.2">
<path d="M69.8599 270.48C68.9499 266.77 68.3199 262.99 67.7599 259.21C67.6899 258.72 68.4599 258.51 68.5299 259C69.0899 262.78 69.7199 266.56 70.6299 270.27C70.6999 270.76 69.9299 270.97 69.8599 270.48Z" fill="white"/>
</g>
<g opacity="0.5">
<path d="M66.3598 270.48C65.0998 267.05 64.6098 263.41 64.8898 259.77C64.8898 259.28 65.7298 259.28 65.6598 259.77C65.3798 263.34 65.8698 266.91 67.1298 270.27C67.2698 270.76 66.4998 270.97 66.3598 270.48Z" fill="white"/>
</g>
<g opacity="0.3">
<path d="M78.9597 269.5C80.5697 268.59 82.7397 267.05 83.1597 265.16C83.2997 264.67 83.9997 264.88 83.9297 265.37C83.4397 267.54 81.1297 269.15 79.3097 270.2C79.0997 270.34 78.8897 270.27 78.7497 270.06C78.6097 269.85 78.7497 269.57 78.9597 269.5Z" fill="white"/>
</g>
<g opacity="0.2">
<path d="M82.5302 265.231L80.7102 267.751C80.4302 268.171 79.7302 267.751 80.0102 267.331L81.8302 264.811C82.1102 264.391 82.8102 264.811 82.5302 265.231Z" fill="white"/>
</g>
<path d="M67.0598 254.52C67.0598 254.52 68.6698 253.82 68.7398 253.33C68.8098 252.56 67.4098 251.02 66.7098 251.09C66.0798 251.16 65.5198 253.33 65.5198 253.33C65.5198 253.33 64.9598 251.16 64.3298 251.09C63.4898 251.02 62.0198 252.77 62.1598 253.61C62.2298 254.1 63.7698 254.66 63.7698 254.66C63.7698 254.66 62.0198 254.66 61.8098 255.15C61.5298 255.78 62.2298 257.6 62.9298 257.74C63.4898 257.81 64.5398 256.2 64.5398 256.2C64.5398 256.2 63.6298 257.74 63.9098 258.16C64.1898 258.58 65.8698 258.79 66.2898 258.37C66.7098 257.95 65.9398 256.2 65.9398 256.2C65.9398 256.2 66.8498 257.74 67.3398 257.74C68.0398 257.74 69.2998 256.27 69.1598 255.57C69.0898 255.01 67.0598 254.52 67.0598 254.52Z" fill="#C80000"/>
<path opacity="0.6" d="M67.0598 254.52C67.0598 254.52 68.6698 253.82 68.7398 253.33C68.8098 252.56 67.4098 251.02 66.7098 251.09C66.0798 251.16 65.5198 253.33 65.5198 253.33C65.5198 253.33 64.9598 251.16 64.3298 251.09C63.4898 251.02 62.0198 252.77 62.1598 253.61C62.2298 254.1 63.7698 254.66 63.7698 254.66C63.7698 254.66 62.0198 254.66 61.8098 255.15C61.5298 255.78 62.2298 257.6 62.9298 257.74C63.4898 257.81 64.5398 256.2 64.5398 256.2C64.5398 256.2 63.6298 257.74 63.9098 258.16C64.1898 258.58 65.8698 258.79 66.2898 258.37C66.7098 257.95 65.9398 256.2 65.9398 256.2C65.9398 256.2 66.8498 257.74 67.3398 257.74C68.0398 257.74 69.2998 256.27 69.1598 255.57C69.0898 255.01 67.0598 254.52 67.0598 254.52Z" fill="white"/>
<path d="M79.6598 265.159L78.0498 265.019C77.7698 265.019 77.7698 264.529 78.0498 264.529L79.6598 264.669C79.9398 264.669 79.9398 265.159 79.6598 265.159Z" fill="#263238"/>
<path d="M79.8697 259.699L78.3297 260.049C78.0497 260.119 77.9097 259.699 78.1897 259.629L79.7297 259.279C80.0797 259.209 80.1497 259.629 79.8697 259.699Z" fill="#263238"/>
<path d="M77.84 254.03L76.51 255.43C76.3 255.64 75.95 255.29 76.16 255.08L77.49 253.68C77.7 253.47 78.05 253.82 77.84 254.03Z" fill="#263238"/>
<path d="M64.8899 270.481L62.7199 270.971C62.4399 271.041 62.2999 270.621 62.5799 270.551L64.6799 270.061C64.8199 270.061 64.9599 270.131 64.9599 270.271C65.0299 270.341 64.9599 270.481 64.8899 270.481Z" fill="#263238"/>
<path d="M63.8398 264.04L62.2998 263.69C62.1598 263.62 62.0898 263.48 62.1598 263.41C62.2298 263.34 62.2998 263.27 62.4398 263.27L63.9798 263.62C64.2598 263.62 64.1898 264.11 63.8398 264.04Z" fill="#263238"/>
<path d="M64.1202 259.84L62.6502 259.49C62.3702 259.42 62.5102 259 62.7902 259.07L64.2602 259.42C64.5402 259.49 64.4002 259.91 64.1202 259.84Z" fill="#263238"/>
<path d="M72.0298 253.049V251.649C72.0298 251.509 72.1698 251.439 72.3098 251.439C72.3798 251.439 72.5198 251.509 72.5198 251.649V253.049C72.5198 253.189 72.3798 253.259 72.2398 253.259C72.1698 253.259 72.0998 253.189 72.0298 253.049Z" fill="#263238"/>
<path d="M77.91 268.52L79.24 268.87C79.38 268.87 79.45 269.01 79.38 269.15C79.38 269.29 79.24 269.36 79.1 269.29L77.77 268.94C77.63 268.87 77.56 268.73 77.63 268.66C77.7 268.52 77.77 268.45 77.91 268.52Z" fill="#263238"/>
<path d="M77.5602 270.131L78.8902 270.481C79.1702 270.551 79.0302 271.041 78.7502 270.901L77.4202 270.551C77.1402 270.481 77.2802 270.061 77.5602 270.131Z" fill="#263238"/>
<path d="M81.7599 268.171L83.3699 269.081C83.6499 269.221 83.3699 269.641 83.1599 269.501L81.5499 268.591C81.2699 268.381 81.5499 268.031 81.7599 268.171Z" fill="#263238"/>
<path d="M83.5798 264.88L85.3298 263.9C85.4698 263.83 85.6098 263.9 85.6798 263.97C85.7498 264.04 85.6798 264.25 85.6098 264.32L83.8598 265.23C83.5798 265.44 83.2998 265.02 83.5798 264.88Z" fill="#263238"/>
<path d="M82.6699 263.55C82.8099 262.92 82.9499 262.22 83.0899 261.59C83.1599 261.31 83.5799 261.45 83.5799 261.73C83.4399 262.36 83.2999 263.06 83.1599 263.69C83.0899 263.97 82.5999 263.83 82.6699 263.55Z" fill="#263238"/>
<path d="M80.5001 265.44L79.5901 264.53C79.3801 264.32 79.7301 263.97 79.9401 264.18L80.8501 265.09C81.0601 265.3 80.7101 265.65 80.5001 265.44Z" fill="#263238"/>
<path d="M228.69 199.082H230.79C231 199.082 231.14 198.942 231.21 198.732V196.702C231.21 196.492 231 196.352 230.79 196.352H229.32C229.18 196.352 228.97 196.492 228.97 196.632L228.41 198.662C228.34 198.872 228.48 199.082 228.69 199.152C228.62 199.082 228.62 199.082 228.69 199.082Z" fill="#263238"/>
<path d="M225.82 199.082H227.92C228.13 199.082 228.27 198.942 228.34 198.732V196.702C228.34 196.492 228.13 196.352 227.92 196.352H226.45C226.31 196.352 226.1 196.492 226.1 196.632L225.54 198.662C225.47 198.872 225.61 199.082 225.82 199.152C225.75 199.082 225.75 199.082 225.82 199.082Z" fill="#263238"/>
<path d="M222.95 199.15H225.05C225.26 199.15 225.4 199.01 225.47 198.8V196.77C225.47 196.56 225.26 196.42 225.12 196.42H223.65C223.51 196.42 223.3 196.56 223.3 196.7L222.74 198.73C222.67 198.94 222.81 199.15 222.95 199.15C222.88 199.15 222.88 199.15 222.95 199.15Z" fill="#263238"/>
<path d="M220.08 199.15H222.18C222.39 199.15 222.53 199.01 222.6 198.8V196.77C222.6 196.56 222.39 196.42 222.18 196.42H220.71C220.57 196.42 220.36 196.56 220.36 196.7L219.8 198.73C219.73 198.94 219.87 199.15 220.08 199.15Z" fill="#263238"/>
<path d="M217.21 199.22H219.31C219.52 199.22 219.66 199.08 219.73 198.87V196.84C219.73 196.63 219.52 196.49 219.31 196.49H217.84C217.7 196.49 217.49 196.63 217.49 196.77L216.93 198.8C216.86 199.01 216.93 199.15 217.21 199.22Z" fill="#263238"/>
<path d="M214.34 199.291H216.44C216.65 199.291 216.79 199.151 216.86 198.941V196.911C216.86 196.701 216.65 196.561 216.44 196.561H214.97C214.83 196.561 214.62 196.701 214.62 196.841L214.06 198.871C213.99 199.011 214.06 199.221 214.34 199.291Z" fill="#263238"/>
<path d="M211.47 199.291H213.57C213.78 199.291 213.92 199.151 213.99 198.941V196.911C213.99 196.701 213.78 196.561 213.57 196.561H212.1C211.96 196.561 211.75 196.701 211.75 196.841L211.19 198.871C211.12 199.081 211.26 199.291 211.47 199.361C211.47 199.291 211.47 199.291 211.47 199.291Z" fill="#263238"/>
<path d="M208.6 199.361H210.7C210.91 199.361 211.05 199.221 211.12 199.011V196.981C211.12 196.771 210.91 196.631 210.7 196.631H209.23C209.09 196.631 208.88 196.771 208.88 196.911L208.32 198.941C208.25 199.151 208.39 199.361 208.6 199.431C208.53 199.361 208.53 199.361 208.6 199.361Z" fill="#263238"/>
<path d="M205.8 199.431H207.9C208.11 199.431 208.25 199.291 208.25 199.081V197.051C208.25 196.841 208.04 196.701 207.9 196.701H206.43C206.29 196.701 206.08 196.841 206.08 196.981L205.52 199.011C205.45 199.151 205.59 199.361 205.8 199.431C205.8 199.361 205.8 199.361 205.8 199.431Z" fill="#263238"/>
<path d="M202.93 199.431H205.03C205.24 199.431 205.38 199.291 205.38 199.081V197.051C205.38 196.841 205.17 196.701 204.96 196.701H203.49C203.35 196.701 203.14 196.841 203.14 196.981L202.58 199.011C202.51 199.221 202.65 199.361 202.93 199.431C202.86 199.431 202.86 199.431 202.93 199.431Z" fill="#263238"/>
<path d="M200.06 199.501H202.16C202.37 199.501 202.51 199.361 202.51 199.151V197.121C202.51 196.911 202.3 196.771 202.09 196.771H200.62C200.48 196.771 200.27 196.911 200.27 197.051L199.71 199.081C199.64 199.291 199.78 199.431 200.06 199.501C199.99 199.501 199.99 199.501 200.06 199.501Z" fill="#263238"/>
<path d="M197.19 199.501H199.29C199.5 199.501 199.64 199.361 199.71 199.151V197.121C199.71 196.911 199.5 196.771 199.29 196.771H197.82C197.68 196.771 197.47 196.911 197.47 197.051L196.91 199.081C196.84 199.291 196.98 199.501 197.19 199.571C197.12 199.501 197.12 199.501 197.19 199.501Z" fill="#263238"/>
<path d="M194.32 199.57H196.42C196.63 199.57 196.77 199.43 196.84 199.22V197.19C196.84 196.98 196.63 196.84 196.42 196.84H194.95C194.81 196.84 194.6 196.98 194.6 197.12L194.04 199.15C193.97 199.36 194.11 199.57 194.25 199.57C194.25 199.57 194.25 199.57 194.32 199.57Z" fill="#263238"/>
<path d="M191.45 199.64H193.55C193.76 199.64 193.9 199.5 193.97 199.29V197.26C193.97 197.05 193.76 196.91 193.55 196.91H192.08C191.94 196.91 191.73 197.05 191.73 197.19L191.17 199.22C191.1 199.36 191.17 199.57 191.45 199.64Z" fill="#263238"/>
<path d="M188.58 199.64H190.68C190.89 199.64 191.03 199.5 191.1 199.29V197.26C191.1 197.05 190.89 196.91 190.68 196.91H189.21C189.07 196.91 188.86 197.05 188.86 197.19L188.3 199.22C188.23 199.43 188.37 199.57 188.58 199.64Z" fill="#263238"/>
<path d="M186.48 199.922C186.55 200.832 187.32 201.532 188.23 201.462L231.07 200.832C231.98 200.832 232.75 200.132 232.75 199.222C232.75 198.802 232.54 198.382 232.26 198.102C231.91 197.822 231.49 197.682 231.07 197.682L188.16 198.312C188.02 198.312 187.81 198.312 187.67 198.382C187.04 198.522 186.55 199.152 186.48 199.922Z" fill="#263238"/>
<path opacity="0.2" d="M186.48 199.922C186.55 200.832 187.32 201.532 188.23 201.462L231.07 200.832C231.98 200.832 232.75 200.132 232.75 199.222C232.75 198.802 232.54 198.382 232.26 198.102C231.91 197.822 231.49 197.682 231.07 197.682L188.16 198.312C188.02 198.312 187.81 198.312 187.67 198.382C187.04 198.522 186.55 199.152 186.48 199.922Z" fill="white"/>
<path d="M186.48 199.922C186.55 200.832 187.32 201.532 188.23 201.462L202.72 201.252C203.42 201.042 203.91 200.412 203.91 199.712C203.91 199.642 203.91 199.502 203.91 199.432C203.84 199.082 203.63 198.802 203.42 198.592C203.28 198.522 203.21 198.382 203.07 198.312L202.86 198.242C202.65 198.172 202.44 198.102 202.16 198.172L187.74 198.382C187.04 198.522 186.55 199.152 186.48 199.922Z" fill="#263238"/>
<path d="M204.96 276.291L199.57 275.241L199.85 262.781L206.5 264.391L204.96 276.291Z" fill="#FF8B7B"/>
<path opacity="0.2" d="M207.06 260.961L199.99 259.141L199.78 267.681L206.01 268.521L207.06 260.961Z" fill="black"/>
<path d="M233.31 197.821C233.31 197.821 198.24 203.701 199.64 219.451C199.64 219.451 198.94 235.411 198.87 264.251L208.04 265.651C208.04 265.651 217.42 235.761 215.81 223.371C230.58 220.851 246.19 224.561 252.28 216.931C256.97 210.911 253.4 197.541 253.4 197.541L233.31 197.821Z" fill="#263238"/>
<path d="M209.58 267.33L197.61 265.72V260.4L210.07 262.78L209.58 267.33Z" fill="#263238"/>
<path d="M199.36 274.962L205.45 276.012C205.66 276.082 205.87 276.292 205.8 276.502L205.45 282.242C205.45 282.802 204.96 283.222 204.4 283.222C204.4 283.222 204.4 283.222 204.33 283.222C202.23 282.802 201.18 282.522 198.52 282.102C196.84 281.822 193.06 281.122 190.75 280.982C188.44 280.842 188.65 278.112 189.63 277.972C194.04 277.272 196.56 276.432 198.24 275.242C198.66 275.032 199.01 274.892 199.36 274.962Z" fill="#263238"/>
<path d="M196.63 276.08C197.12 276.15 197.61 276.15 198.1 276.08C198.17 276.08 198.17 276.01 198.17 276.01C198.17 275.94 198.17 275.94 198.17 275.87C198.03 275.73 196.63 274.47 195.93 274.61C195.79 274.61 195.65 274.75 195.58 274.96C195.51 275.17 195.51 275.45 195.65 275.66C195.93 275.94 196.28 276.08 196.63 276.08ZM197.82 275.87C196.84 275.87 196.07 275.8 195.86 275.52C195.79 275.38 195.79 275.17 195.86 275.03C195.86 274.96 195.93 274.89 196 274.89C196.42 274.82 197.26 275.38 197.82 275.87Z" fill="#C80000"/>
<path d="M198.1 276.08C198.17 276.08 198.24 276.01 198.24 276.01C198.24 275.94 198.59 274.4 198.1 273.77C197.96 273.63 197.82 273.49 197.61 273.49C197.4 273.49 197.19 273.63 197.12 273.84C196.84 274.4 197.54 275.66 198.1 276.08ZM197.68 273.77C197.75 273.77 197.89 273.84 197.96 273.91C198.17 274.47 198.24 275.1 198.1 275.66C197.68 275.17 197.4 274.54 197.4 273.91C197.33 273.84 197.4 273.77 197.68 273.77Z" fill="#C80000"/>
<path d="M182.07 279.23L176.75 278.04L178.78 265.58L185.01 267.47L182.07 279.23Z" fill="#FF8B7B"/>
<path opacity="0.2" d="M185.92 263.76L179.34 261.59L178.15 269.5L184.03 271.18L185.92 263.76Z" fill="black"/>
<path d="M224.91 197.471C224.84 197.471 223.51 201.111 220.78 200.971C197.68 199.781 179.97 201.041 179.97 215.181C178.85 239.891 177.38 266.071 177.38 266.071L186.06 268.101C186.06 268.101 196.84 238.001 196.07 220.361C215.88 224.491 237.58 225.261 244.3 215.321C249.27 206.361 245 197.681 245 197.681L224.91 197.471Z" fill="#263238"/>
<path d="M187.11 269.781L176.4 267.051L177.24 262.221L188.09 265.581L187.11 269.781Z" fill="#263238"/>
<path d="M177.17 275.03L183.33 276.08C183.54 276.15 183.75 276.36 183.68 276.64L183.4 282.94C183.33 283.64 182.84 284.13 182.35 284.06C180.25 283.64 179.2 283.29 176.54 282.8C174.86 282.52 170.38 281.54 168.07 281.05C165.76 280.56 166.18 277.62 167.23 277.55C171.71 277.34 174.58 276.5 176.26 275.24C176.47 275.03 176.82 274.96 177.17 275.03Z" fill="#263238"/>
<path d="M174.65 276.43C175.07 276.22 175.49 275.87 175.84 275.59C175.91 275.52 175.91 275.45 175.84 275.45L175.77 275.38C175.56 275.38 173.67 275.17 173.25 275.73C173.11 275.87 173.11 276.01 173.18 276.15C173.25 276.43 173.39 276.64 173.67 276.71C174.02 276.78 174.37 276.64 174.65 276.43ZM175.49 275.59C174.72 276.22 174.09 276.57 173.74 276.43C173.6 276.36 173.46 276.22 173.46 276.08C173.39 276.01 173.39 275.94 173.46 275.87C173.67 275.59 174.72 275.52 175.49 275.59Z" fill="#C80000"/>
<path d="M175.84 275.591C175.91 275.521 175.91 275.451 175.91 275.451C175.84 275.381 175.21 273.911 174.51 273.701C174.3 273.631 174.09 273.701 173.95 273.771C173.74 273.911 173.67 274.121 173.74 274.331C173.88 274.961 175.14 275.591 175.84 275.591ZM174.09 273.981C174.16 273.911 174.3 273.911 174.37 273.911C174.86 274.261 175.28 274.681 175.49 275.311C174.86 275.171 174.23 274.821 173.88 274.261C173.88 274.261 173.95 274.121 174.09 273.981Z" fill="#C80000"/>
<path d="M238.14 147.701C239.19 150.501 240.03 153.371 235.97 154.841C235.97 154.841 231.56 161.561 238.49 170.451C242.2 165.131 245.91 159.461 248.29 153.511C246.61 152.251 245.91 149.801 245.7 147.281C245.56 145.811 244.3 144.691 242.76 144.761C242.27 144.831 241.78 144.971 241.36 145.321L238.14 147.701Z" fill="#FF8B7B"/>
<path d="M231.63 134.75C231.28 134.75 231 135.1 231 135.66C231 136.22 231.21 136.57 231.56 136.64C231.91 136.71 232.19 136.29 232.19 135.73C232.19 135.17 231.91 134.75 231.63 134.75Z" fill="#263238"/>
<path d="M231.63 140.07C231 140.07 230.37 139.79 229.95 139.3C230.93 138.46 231.77 137.55 232.4 136.5L231.63 140.07Z" fill="#A02724"/>
<path d="M231.84 132.79C232.61 132.79 233.31 133.21 233.73 133.77C233.73 133.77 233.73 133.77 233.73 133.84C233.8 133.98 234.01 133.98 234.15 133.91C234.29 133.84 234.29 133.63 234.22 133.49C233.66 132.72 232.82 132.23 231.84 132.16C231.7 132.16 231.56 132.3 231.56 132.44C231.56 132.58 231.63 132.65 231.7 132.72C231.7 132.79 231.77 132.79 231.84 132.79Z" fill="#263238"/>
<path d="M249.48 134.75C248.78 140.98 248.57 143.64 245.28 146.72C243.53 148.4 241.22 149.24 238.84 149.17C238.84 149.17 238.84 149.17 238.77 149.17C238.07 149.1 237.37 149.03 236.67 148.75C236.11 148.54 235.55 148.33 234.99 147.98C233.1 146.79 231.84 144.9 231.49 142.73C230.44 137.06 231.77 127.75 238 125.58C242.48 123.97 247.38 126.35 248.92 130.83C249.48 132.09 249.62 133.42 249.48 134.75Z" fill="#FF8B7B"/>
<path d="M247.449 125.371C245.209 124.391 242.619 124.461 240.169 124.741C237.719 125.021 235.269 125.441 232.819 125.161C231.909 125.091 231.069 124.181 229.879 125.091C228.269 126.351 229.109 131.531 232.889 130.621C237.089 129.641 234.989 134.401 234.989 135.171C235.129 135.801 235.409 136.361 235.829 136.851C237.509 140.491 240.239 146.021 241.009 147.771C242.479 147.981 244.019 147.911 245.489 147.561C249.059 142.941 256.549 129.291 247.449 125.371Z" fill="#263238"/>
<path d="M236.88 135.172C235.34 135.522 234.78 137.692 234.85 139.022C234.92 140.562 236.18 141.542 237.44 140.632C238.42 139.932 239.05 138.812 239.26 137.622C239.54 136.502 238.84 135.382 237.72 135.172C237.44 135.102 237.16 135.102 236.88 135.172Z" fill="#FF8B7B"/>
<path opacity="0.2" d="M238.77 149.171C238.07 149.101 237.37 149.031 236.67 148.751C236.11 148.541 235.55 148.331 234.99 147.981V147.911C235.76 148.121 236.67 148.051 237.44 147.771C237.65 147.631 237.93 147.631 238.14 147.631C238.35 147.701 238.49 147.981 238.56 148.261C238.63 148.541 238.7 148.891 238.77 149.171Z" fill="black"/>
<path d="M233.17 155.612C233.94 154.352 235.2 153.372 236.6 152.882C239.05 152.112 248.5 152.182 249.41 152.882C250.32 153.512 251.02 154.492 251.37 155.612H233.17Z" fill="#263238"/>
<path d="M252.14 194.53C244.65 195.02 234.43 196.21 234.01 196.56C234.08 196.35 235.62 193.27 232.47 192.43L250.46 186.62C250.53 180.18 250.6 164.22 250.6 162.68C250.6 162.19 250.6 161.63 250.6 161.14C250.6 158.83 252.35 156.87 254.66 156.73H254.94C257.46 156.73 259.28 158.83 259.28 161.35C259.63 179.76 260.4 193.97 252.14 194.53Z" fill="#FF8B7B"/>
<path d="M234.01 196.491C233.94 196.561 233.87 196.561 233.8 196.491C233.24 196.141 232.47 192.361 232.47 192.361C235.62 193.201 234.15 196.351 234.01 196.491Z" fill="#FF8B7B"/>
<path d="M234.01 196.491H233.8L227.22 196.421L222.88 196.981C222.04 197.051 221.34 196.491 221.2 195.721C221.2 195.651 221.2 195.581 221.2 195.511C221.2 195.091 221.41 194.671 221.76 194.391L225.82 191.241C226.17 190.961 226.66 190.891 227.08 190.961L232.4 192.361C235.62 193.201 234.15 196.351 234.01 196.491Z" fill="#FF8B7B"/>
<path opacity="0.2" d="M250.53 166.951C251.44 169.191 252.63 171.291 253.96 173.251L258.65 169.961C258.16 169.051 257.67 168.281 257.04 167.441C254.8 164.921 252.35 165.481 250.53 166.951Z" fill="black"/>
<path d="M250.04 160.3C247.87 163.31 249.97 172.06 249.97 172.06L261.24 169.26C261.24 169.26 261.1 158.69 258.86 156.8C256.27 154.63 252.28 157.08 250.04 160.3Z" fill="#C80000"/>
<g opacity="0.1">
<path d="M250.04 160.3C247.87 163.31 249.97 172.06 249.97 172.06L261.24 169.26C261.24 169.26 261.1 158.69 258.86 156.8C256.27 154.63 252.28 157.08 250.04 160.3Z" fill="black"/>
</g>
<path d="M235.13 154.071C239.33 153.861 243.6 154.001 247.8 154.421C250.39 154.631 253.05 154.981 255.57 155.471L255.78 155.541C257.81 156.031 259.07 158.131 258.51 160.161C253.47 180.251 253.33 187.041 253.47 197.751L225.61 196.981C224.98 192.501 225.12 162.751 225.54 159.391C225.05 154.771 231.77 154.281 235.13 154.071Z" fill="#C80000"/>
<path d="M253.33 195.86L225.68 195.09C225.4 195.09 225.19 195.23 225.19 195.37L224.84 197.68C224.84 198.1 225.05 198.24 225.26 198.24L253.54 198.87C253.89 198.87 254.1 198.66 253.96 198.52L253.68 196.07C253.68 195.86 253.54 195.79 253.33 195.86Z" fill="#263238"/>
<path d="M224.77 188.3C221.06 190.82 207.2 196.21 206.71 196.49C206.78 196.28 208.32 193.2 205.17 192.36L220.43 182.49C222.11 181.16 223.09 179.13 223.09 177.03C223.16 171.57 223.3 163.94 223.3 162.68C223.3 162.19 223.3 161.63 223.3 161.14C223.3 158.83 225.05 156.87 227.36 156.73H227.64C230.16 156.73 231.98 158.83 231.98 161.35C232.4 179.76 231.63 183.61 224.77 188.3Z" fill="#FF8B7B"/>
<path d="M206.78 196.491C206.71 196.561 206.64 196.561 206.57 196.491C206.01 196.141 205.24 192.361 205.24 192.361C208.32 193.201 206.85 196.351 206.78 196.491Z" fill="#FF8B7B"/>
<path d="M206.78 196.491H206.57L199.99 196.421L195.65 196.981C194.81 197.051 194.11 196.491 193.97 195.721C193.97 195.651 193.97 195.581 193.97 195.511C193.97 195.091 194.18 194.671 194.53 194.391L198.59 191.241C198.94 190.961 199.43 190.891 199.85 190.961L205.17 192.361C208.32 193.201 206.85 196.351 206.78 196.491Z" fill="#FF8B7B"/>
<path d="M225.61 156.171C221.41 157.991 221.9 163.521 222.11 170.941C230.44 168.981 233.59 170.731 233.52 170.941C233.87 168.491 235.13 161.771 231.84 157.641C230.44 155.681 227.78 155.051 225.61 156.171Z" fill="#C80000"/>
<path d="M211.33 227.082C205.52 227.082 199.99 228.552 195.86 231.842C195.09 228.272 194.81 224.562 195.02 220.852C195.16 219.172 195.44 217.282 196.98 216.232C198.87 214.972 201.88 215.462 203.84 216.862C205.8 218.262 206.99 220.292 208.11 222.182C208.95 223.722 210.07 225.822 211.33 227.082Z" fill="#C80000"/>
<path d="M198.38 215.67C198.38 215.67 203.84 216.44 207.2 223.72C207.2 223.72 209.65 221.76 212.03 221.62C212.03 221.62 204.47 213.57 198.38 215.67Z" fill="#C80000"/>
<path opacity="0.2" d="M211.33 227.082C205.52 227.082 199.99 228.552 195.86 231.842C195.09 228.272 194.81 224.562 195.02 220.852C195.16 219.172 195.44 217.282 196.98 216.232C198.87 214.972 201.88 215.462 203.84 216.862C205.8 218.262 206.99 220.292 208.11 222.182C208.95 223.722 210.07 225.822 211.33 227.082Z" fill="black"/>
<path d="M193.83 233.24C194.67 234.5 194.39 236.25 193.06 237.16C191.8 238 190.05 237.72 189.14 236.39C188.23 235.06 188.58 233.38 189.91 232.47C189.91 232.47 189.98 232.47 189.98 232.4C191.31 231.63 192.99 231.98 193.83 233.24Z" fill="#C80000"/>
<path opacity="0.2" d="M193.83 233.24C194.67 234.5 194.39 236.25 193.06 237.16C191.8 238 190.05 237.72 189.14 236.39C188.23 235.06 188.58 233.38 189.91 232.47C189.91 232.47 189.98 232.47 189.98 232.4C191.31 231.63 192.99 231.98 193.83 233.24Z" fill="black"/>
<path d="M212.94 288.821C210.77 288.891 208.67 288.611 206.64 287.841C205.24 287.281 204.33 285.951 204.19 284.481L203 273.421C204.82 271.811 216.23 271.741 218.89 277.201C218.89 277.201 218.19 279.721 216.86 284.971C216.02 288.611 215.04 288.681 212.94 288.821Z" fill="#C80000"/>
<path opacity="0.2" d="M212.94 288.821C210.77 288.891 208.67 288.611 206.64 287.841C205.24 287.281 204.33 285.951 204.19 284.481L203 273.421C204.82 271.811 216.23 271.741 218.89 277.201C218.89 277.201 218.19 279.721 216.86 284.971C216.02 288.611 215.04 288.681 212.94 288.821Z" fill="black"/>
<path d="M276.08 289.871C273.98 290.221 271.74 290.151 269.71 289.591C268.31 289.171 267.19 287.981 266.91 286.511L265.02 277.691C265.86 275.241 275.1 272.861 280.91 277.341C280.91 277.341 280.21 283.221 279.65 285.601C278.95 288.331 278.11 289.521 276.08 289.871Z" fill="#C80000"/>
<path opacity="0.2" d="M276.08 289.871C273.98 290.221 271.74 290.151 269.71 289.591C268.31 289.171 267.19 287.981 266.91 286.511L265.02 277.691C265.86 275.241 275.1 272.861 280.91 277.341C280.91 277.341 280.21 283.221 279.65 285.601C278.95 288.331 278.11 289.521 276.08 289.871Z" fill="black"/>
<path d="M242.13 280.351C208.81 276.851 201.18 272.791 189.7 268.801C182.7 266.351 173.95 264.321 170.38 257.881C167.93 253.401 167.16 245.211 171.85 243.321C180.67 239.821 188.93 235.201 196.56 229.531C200.41 226.661 204.12 223.511 208.53 221.481C212.94 219.451 223.09 218.471 231.77 222.741C242.2 221.691 265.09 215.461 286.37 222.321C296.38 225.541 303.66 235.761 304.78 246.261C305.9 256.901 302.26 266.421 294.14 273.351C286.02 280.281 252.77 281.471 242.13 280.351Z" fill="#C80000"/>
<path opacity="0.5" d="M289.8 224.63C282.94 222.81 271.6 220.85 263.27 221.97C262.15 221.27 260.33 220.43 259.21 219.8C269.22 218.96 277.34 220.64 283.43 221.97C283.43 221.97 288.75 223.93 289.8 224.63Z" fill="black"/>
<path opacity="0.2" d="M213.78 236.601C213.78 238.141 212.52 239.331 210.98 239.331C209.44 239.331 208.25 238.071 208.25 236.531C208.25 234.991 209.44 233.801 210.98 233.801C212.52 233.801 213.78 235.061 213.78 236.601Z" fill="black"/>
<path d="M296.59 289.31C294.49 289.87 292.32 290.01 290.22 289.66C288.75 289.38 287.56 288.26 287.14 286.86L284.41 263.9C285.88 261.94 290.78 260.26 295.12 261.17C297.5 261.73 301.07 262.92 300.93 265.37C300.79 267.82 300.51 273.77 299.74 284.83C299.39 288.54 298.55 288.82 296.59 289.31Z" fill="#C80000"/>
<path d="M237.93 290.851C235.83 291.271 233.66 291.271 231.56 290.851C230.09 290.501 228.97 289.311 228.62 287.911L226.31 267.821C227.92 266.001 232.89 264.531 237.16 265.721C239.54 266.421 242.97 267.821 242.69 270.201C242.41 272.581 241.43 284.061 241.29 286.511C241.08 290.221 239.96 290.431 237.93 290.851Z" fill="#C80000"/>
<path d="M237.93 217.211C242.13 218.191 245.28 221.551 245.98 225.821C247.31 233.171 235.55 241.921 235.55 241.921C235.55 241.921 244.72 233.591 237.93 217.211Z" fill="#C80000"/>
<path opacity="0.1" d="M237.93 217.211C242.13 218.191 245.28 221.551 245.98 225.821C247.31 233.171 235.55 241.921 235.55 241.921C235.55 241.921 244.72 233.591 237.93 217.211Z" fill="white"/>
<path d="M235.55 239.75C235.2 233.03 231.28 227.01 225.26 224C227.36 220.85 230.3 216.58 234.01 216.23C236.95 215.95 239.82 217.91 241.29 220.57C242.76 223.23 242.9 226.31 242.41 229.25C241.64 234.08 239.19 238.56 235.62 241.85C235.76 241.71 235.34 240.03 235.55 239.75Z" fill="#C80000"/>
<path opacity="0.2" d="M235.55 239.75C235.2 233.03 231.28 227.01 225.26 224C227.36 220.85 230.3 216.58 234.01 216.23C236.95 215.95 239.82 217.91 241.29 220.57C242.76 223.23 242.9 226.31 242.41 229.25C241.64 234.08 239.19 238.56 235.62 241.85C235.76 241.71 235.34 240.03 235.55 239.75Z" fill="black"/>
<path opacity="0.5" d="M174.3 252.07C174.3 255.01 173.81 257.32 173.18 257.32C172.55 257.32 172.06 254.94 172.06 252.07C172.06 249.2 172.55 246.82 173.18 246.82C173.81 246.82 174.3 249.13 174.3 252.07Z" fill="black"/>
<path opacity="0.5" d="M178.57 257.32C179.188 257.32 179.69 254.97 179.69 252.07C179.69 249.171 179.188 246.82 178.57 246.82C177.951 246.82 177.45 249.171 177.45 252.07C177.45 254.97 177.951 257.32 178.57 257.32Z" fill="black"/>
<path opacity="0.2" d="M185.36 265.37C185.92 265.44 192.99 264.53 195.79 262.36C198.59 260.19 196.28 264.95 189.63 265.79C188.16 266 186.69 265.86 185.36 265.37Z" fill="black"/>
<path d="M273.35 118.651C272.93 112.841 269.36 108.081 262.92 107.941L246.68 115.221C251.51 116.061 255.29 119.841 256.2 124.671C257.25 131.111 260.61 138.251 266.56 141.051C271.95 139.231 284.06 133.561 284.34 133.491C281.89 132.021 274.05 127.961 273.35 118.651ZM249.48 115.151V115.081H249.55L249.48 115.151ZM279.58 133.701C276.92 134.891 271.81 137.201 268.31 138.531C267.4 137.901 266.21 137.901 265.23 138.461C260.19 135.031 258.37 128.661 257.39 123.201C256.76 119.981 254.87 116.971 252 115.641C252.14 115.431 252.21 115.151 252.14 114.871C252.07 114.591 251.86 114.381 251.58 114.311L261.87 109.551C262.78 109.691 263.62 109.551 264.46 109.131C269.08 110.041 271.95 114.731 272.09 117.951C272.3 123.341 274.96 128.381 279.37 131.531C279.16 132.301 279.23 133.071 279.58 133.701Z" fill="#C80000"/>
<path d="M249.48 115.15V115.08H249.55L249.48 115.15Z" fill="#C80000"/>
<path d="M279.65 133.701C276.99 134.891 271.88 137.201 268.38 138.531C267.47 137.901 266.28 137.901 265.3 138.461C260.26 135.031 258.44 128.661 257.46 123.201C256.83 119.981 254.94 116.971 252.07 115.641C252.21 115.431 252.28 115.151 252.21 114.871C252.14 114.591 251.93 114.381 251.65 114.311L261.94 109.551C262.85 109.691 263.69 109.551 264.53 109.131C269.15 110.041 272.02 114.731 272.16 117.951C272.37 123.341 275.03 128.381 279.44 131.461C279.16 132.301 279.23 133.071 279.65 133.701Z" fill="#C80000"/>
<g opacity="0.3">
<path d="M279.65 133.701C276.99 134.891 271.88 137.201 268.38 138.531C267.47 137.901 266.28 137.901 265.3 138.461C260.26 135.031 258.44 128.661 257.46 123.201C256.83 119.981 254.94 116.971 252.07 115.641C252.21 115.431 252.28 115.151 252.21 114.871C252.14 114.591 251.93 114.381 251.65 114.311L261.94 109.551C262.85 109.691 263.69 109.551 264.53 109.131C269.15 110.041 272.02 114.731 272.16 117.951C272.37 123.341 275.03 128.381 279.44 131.461C279.16 132.301 279.23 133.071 279.65 133.701Z" fill="white"/>
</g>
<path opacity="0.4" d="M266.42 122.22C266.28 122.29 266.21 122.36 266.21 122.43C266.14 122.57 266.14 122.71 266.14 122.85L267.12 122.5C267.05 122.36 266.91 122.22 266.77 122.15C266.7 122.22 266.56 122.22 266.42 122.22Z" fill="white"/>
<path opacity="0.4" d="M265.23 124.041L264.25 124.391C264.32 124.531 264.46 124.671 264.6 124.741C264.74 124.811 264.81 124.811 264.95 124.741C265.09 124.741 265.16 124.601 265.23 124.531C265.23 124.321 265.23 124.181 265.23 124.041Z" fill="white"/>
<path opacity="0.4" d="M270.97 121.66C269.78 118.72 266.56 117.25 263.55 118.23C260.82 119.21 259.35 122.15 260.26 124.95C260.26 125.02 260.33 125.16 260.4 125.23C261.59 128.17 264.81 129.64 267.82 128.66C270.55 127.68 272.02 124.74 271.11 121.94C271.04 121.8 270.97 121.73 270.97 121.66ZM264.25 125.72C263.83 125.51 263.48 125.16 263.27 124.67L262.5 124.95C262.43 124.74 262.29 124.46 262.22 124.25L262.99 123.97C262.85 123.62 262.85 123.27 262.78 122.92C262.78 122.64 262.78 122.29 262.85 122.01L263.9 122.08C263.83 122.29 263.83 122.57 263.83 122.85C263.83 123.13 263.9 123.41 263.97 123.62L265.16 123.2C265.09 122.92 265.09 122.57 265.09 122.29C265.09 122.01 265.16 121.8 265.3 121.59C265.44 121.38 265.72 121.17 266 121.1C266.35 120.96 266.84 121.03 267.19 121.17C267.61 121.38 267.96 121.8 268.17 122.22L268.94 121.94L269.22 122.64L268.45 122.92C268.59 123.41 268.66 123.97 268.59 124.46L267.61 124.39C267.68 123.97 267.68 123.62 267.61 123.2L266.42 123.62C266.49 123.9 266.49 124.25 266.49 124.53C266.49 124.81 266.42 125.02 266.28 125.23C266.14 125.44 265.86 125.65 265.58 125.72C265.09 126 264.6 125.93 264.25 125.72Z" fill="white"/>
<path d="M241.15 108.781C241.08 108.781 241.01 108.781 240.94 108.711C239.61 108.291 237.65 106.191 235.97 103.461C234.29 100.731 233.38 97.9314 233.59 96.6014C233.59 96.3914 233.73 96.1814 233.87 95.9714C233.94 95.9014 233.94 95.9014 234.01 95.8314C234.08 95.7614 234.15 95.7614 234.22 95.7614C234.43 95.6914 234.71 95.7614 234.92 95.8314C235.2 95.9014 235.48 96.0414 235.69 96.2514C235.9 96.3914 236.11 96.5314 236.25 96.6714C236.39 96.7414 236.46 96.8814 236.6 96.9514C237.86 98.2114 238.98 99.6114 239.89 101.151C240.87 102.621 241.57 104.301 242.06 105.981C242.13 106.121 242.13 106.331 242.13 106.471C242.2 106.751 242.2 106.961 242.27 107.241C242.34 107.521 242.34 107.801 242.27 108.151C242.27 108.361 242.13 108.641 241.99 108.781C241.92 108.851 241.92 108.851 241.85 108.851C241.78 108.851 241.78 108.921 241.71 108.921C241.57 108.851 241.36 108.851 241.15 108.781Z" fill="#C80000"/>
<path d="M241.15 108.78L241.08 108.57L237.44 102.55C237.37 102.41 237.23 102.27 237.16 102.06L233.73 96.4599C233.73 96.2499 233.8 96.1099 233.94 95.9699C233.94 95.8999 234.01 95.8999 234.08 95.8299L234.43 95.6199L235.55 94.9199L236.04 95.7599L236.11 95.8999L236.46 96.4599L236.74 96.8799L242.2 105.91L242.41 106.26L242.76 106.89L242.83 107.03L243.32 107.87L241.99 108.64L241.71 108.78C241.57 108.85 241.36 108.85 241.15 108.78Z" fill="#C80000"/>
<path d="M235.48 94.8515C234.36 95.5515 235.2 98.9815 237.44 102.551C239.68 106.121 242.27 108.501 243.39 107.801C244.51 107.101 243.67 103.671 241.43 100.101C239.19 96.5315 236.53 94.2215 235.48 94.8515Z" fill="#C80000"/>
<path opacity="0.4" d="M235.48 94.8515C234.36 95.5515 235.2 98.9815 237.44 102.551C239.68 106.121 242.27 108.501 243.39 107.801C244.51 107.101 243.67 103.671 241.43 100.101C239.19 96.5315 236.53 94.2215 235.48 94.8515Z" fill="white"/>
<path d="M236.04 95.6217C235.97 95.6917 235.9 95.7617 235.9 95.8317C236.81 95.8317 238.77 97.8617 240.45 100.732C242.13 103.602 243.11 106.192 242.69 107.032C242.76 107.032 242.83 107.032 242.9 106.962C243.67 106.542 242.76 103.602 240.87 100.452C238.98 97.3017 236.74 95.2017 236.04 95.6217Z" fill="#C80000"/>
<path opacity="0.4" d="M236.04 95.6217C235.97 95.6917 235.9 95.7617 235.9 95.8317C236.81 95.8317 238.77 97.8617 240.45 100.732C242.13 103.602 243.11 106.192 242.69 107.032C242.76 107.032 242.83 107.032 242.9 106.962C243.67 106.542 242.76 103.602 240.87 100.452C238.98 97.3017 236.74 95.2017 236.04 95.6217Z" fill="#C80000"/>
<path opacity="0.4" d="M235.9 95.8301C235.48 96.6701 236.39 99.3301 238.14 102.13C239.89 104.93 241.78 107.03 242.69 107.03C243.11 106.19 242.2 103.53 240.45 100.73C238.7 97.9301 236.81 95.8301 235.9 95.8301Z" fill="#C80000"/>
<path d="M169.82 92.9616C173.04 94.0816 174.02 98.6316 171.5 103.042C168.98 107.452 164.5 108.852 161.91 106.612C159.67 104.722 159.67 100.662 161.56 97.3016C163.45 93.9416 167.02 91.9816 169.82 92.9616Z" fill="#C80000"/>
<path d="M168.7 92.6111C171.71 93.6611 172.55 98.0711 170.1 102.271C167.65 106.471 163.38 107.941 160.93 105.841C158.83 104.021 158.83 100.101 160.72 96.8811C162.61 93.6611 166.04 91.6311 168.7 92.6111Z" fill="#C80000"/>
<path opacity="0.4" d="M168.7 92.6111C171.71 93.6611 172.55 98.0711 170.1 102.271C167.65 106.471 163.38 107.941 160.93 105.841C158.83 104.021 158.83 100.101 160.72 96.8811C162.61 93.6611 166.04 91.6311 168.7 92.6111Z" fill="white"/>
<path d="M167.65 94.221C167.79 94.291 167.93 94.361 168 94.431C169.82 95.551 170.17 98.561 168.49 101.361C166.81 104.161 164.08 105.421 162.19 104.371C162.05 104.301 161.98 104.231 161.84 104.161C160.16 102.901 160.16 99.891 161.63 97.371C163.1 94.851 165.69 93.451 167.65 94.221Z" fill="#C80000"/>
<path opacity="0.3" d="M168 94.3601C169.82 95.4801 170.17 98.4901 168.49 101.29C166.81 104.09 164.08 105.35 162.19 104.3C160.79 102.83 160.86 100.03 162.26 97.6501C163.66 95.2701 166.04 93.9401 168 94.3601Z" fill="white"/>
<path d="M292.39 155.401C293.93 158.481 292.04 162.541 288.26 164.431C284.48 166.321 280.14 165.271 278.6 162.191C277.06 159.111 278.95 155.051 282.73 153.161C286.51 151.271 290.85 152.321 292.39 155.401Z" fill="#C80000"/>
<path d="M291.83 154.141C293.37 157.221 291.48 161.281 287.7 163.171C283.92 165.061 279.58 164.011 278.04 160.931C276.5 157.851 278.39 153.791 282.17 151.901C285.95 150.011 290.29 151.061 291.83 154.141Z" fill="#C80000"/>
<path opacity="0.4" d="M291.83 154.141C293.37 157.221 291.48 161.281 287.7 163.171C283.92 165.061 279.58 164.011 278.04 160.931C276.5 157.851 278.39 153.791 282.17 151.901C285.95 150.011 290.29 151.061 291.83 154.141Z" fill="white"/>
<path d="M290.01 154.911C290.08 155.051 290.15 155.191 290.22 155.331C290.22 155.331 290.22 155.331 290.22 155.401C290.99 157.641 289.59 160.371 286.93 161.631C284.27 162.891 281.26 162.401 279.93 160.371C279.86 160.231 279.79 160.091 279.72 159.951C278.6 157.641 280 154.631 282.8 153.231C285.6 151.831 288.89 152.601 290.01 154.911Z" fill="#C80000"/>
<path opacity="0.3" d="M290.22 155.331C290.99 157.641 289.59 160.301 286.93 161.631C284.27 162.961 281.26 162.401 279.93 160.371C279.16 158.131 280.56 155.401 283.22 154.071C285.88 152.741 288.89 153.371 290.22 155.331Z" fill="white"/>
<path d="M224.91 87.6409L210.21 95.3409C205.03 91.8409 200.69 91.4209 195.51 94.8509C193.83 95.8309 192.08 96.7409 190.33 97.5109C189.14 98.0709 187.95 98.4909 186.69 98.8409C184.24 99.4709 181.72 98.5609 180.11 96.6709C186.83 93.3109 189.77 90.7209 196.49 87.4309C197.54 89.1809 199.64 89.1809 201.74 88.5509C204.68 87.6409 207.83 85.5409 208.74 85.1909C214.2 83.0209 220.36 84.0009 224.91 87.6409Z" fill="#C80000"/>
<path opacity="0.3" d="M222.04 87.4312C217.63 83.7912 211.33 85.1212 208.39 86.2412C206.78 86.8712 198.66 92.1212 196.14 88.4812C189.42 91.8412 188.93 93.2412 182.21 96.6012C183.26 97.5112 186.34 99.4712 193.06 94.7812C198.17 91.2112 204.75 90.5112 209.93 94.0112C214.69 91.4912 217.35 89.8112 222.04 87.4312Z" fill="white"/>
<path d="M183.33 95.6914C182.84 95.9714 182.35 96.3214 181.86 96.6714L183.61 97.5814C183.96 96.9514 183.82 96.1814 183.33 95.6914Z" fill="#C80000"/>
<path d="M197.4 89.0402C196.63 89.3902 195.79 89.1802 195.23 88.6902C195.58 88.3402 195.93 88.1302 196.35 87.9902C196.63 88.3402 196.98 88.6902 197.4 89.0402Z" fill="#C80000"/>
<path d="M212.03 93.3804C210.98 92.8904 209.79 92.9604 208.88 93.6604L210.14 94.4304C210.7 93.8704 211.33 93.5204 212.03 93.3804Z" fill="#C80000"/>
<path d="M223.37 87.4302C222.53 87.6402 221.76 87.9902 221.13 88.5502C220.71 87.9902 220.85 87.1502 221.41 86.7302C221.48 86.6602 221.55 86.6602 221.55 86.6602C222.25 86.8002 222.81 87.0802 223.37 87.4302Z" fill="#C80000"/>
<path opacity="0.1" d="M201.67 88.4813C200.9 89.6013 193.27 95.2713 190.26 97.4413C189.07 98.0013 187.88 98.4213 186.62 98.7713C184.17 99.4013 181.65 98.4913 180.04 96.6013C186.76 93.2413 189.7 90.6513 196.42 87.3613C197.54 89.1113 199.57 89.1113 201.67 88.4813Z" fill="black"/>
<path opacity="0.4" d="M196.84 92.05C196.98 92.47 199.64 91.84 202.72 90.72C205.8 89.6 208.25 88.27 208.04 87.92C207.83 87.57 205.24 88.13 202.16 89.25C199.08 90.44 196.7 91.7 196.84 92.05Z" fill="white"/>
<path d="M262.15 218.331C255.29 202.651 274.68 190.401 267.82 174.721L292.11 177.871C298.97 193.551 279.58 205.801 286.44 221.481L262.15 218.331Z" fill="#C80000"/>
<path opacity="0.3" d="M265.16 216.721L281.82 218.891C281.54 218.261 281.82 217.561 282.45 217.281C282.73 217.141 282.94 217.141 283.22 217.211C281.05 204.751 293.58 194.111 291.34 181.651C290.22 181.371 289.31 180.531 289.03 179.481L272.37 177.311C272.65 177.941 272.37 178.641 271.74 178.921C271.46 179.061 271.18 179.061 270.97 178.991C273.14 191.451 260.61 202.091 262.85 214.551C263.97 214.831 264.88 215.671 265.16 216.721Z" fill="white"/>
<path opacity="0.4" d="M278.95 197.262C278.81 197.262 278.6 197.262 278.53 197.402C278.39 197.542 278.18 197.682 278.04 197.822L279.37 197.962C279.44 197.822 279.37 197.612 279.3 197.402C279.16 197.332 279.09 197.262 278.95 197.262Z" fill="white"/>
<path opacity="0.4" d="M276.08 198.521L274.82 198.381C274.75 198.521 274.75 198.731 274.82 198.871C274.89 199.011 275.03 199.081 275.17 199.081C275.31 199.081 275.52 199.081 275.59 198.941C275.73 198.801 275.87 198.661 276.08 198.521Z" fill="white"/>
<path opacity="0.4" d="M283.85 199.011C285.53 195.441 283.57 192.081 279.79 191.591C276.01 191.101 271.95 193.691 270.27 197.261C268.59 200.831 270.55 204.191 274.33 204.681C278.11 205.171 282.24 202.581 283.85 199.011ZM273.56 199.781C273.35 199.291 273.35 198.661 273.56 198.171L272.51 198.031L272.93 197.121L273.91 197.261C274.12 196.841 274.4 196.421 274.68 196.071C274.96 195.721 275.24 195.441 275.59 195.161L276.5 195.791C276.22 196.001 275.94 196.211 275.73 196.491C275.52 196.771 275.31 197.051 275.1 197.401L276.64 197.611C276.92 197.261 277.13 196.911 277.48 196.631C277.76 196.351 278.04 196.141 278.39 196.001C278.74 195.861 279.09 195.791 279.51 195.861C279.93 195.861 280.35 196.141 280.56 196.561C280.77 197.051 280.77 197.681 280.56 198.171L281.61 198.311C281.47 198.591 281.33 198.871 281.19 199.221L280.21 199.081C279.86 199.711 279.44 200.341 278.88 200.831L277.9 200.201C278.32 199.851 278.67 199.431 278.95 198.941L277.41 198.731C277.2 199.081 276.92 199.431 276.64 199.711C276.36 199.991 276.08 200.201 275.8 200.341C275.45 200.481 275.1 200.551 274.68 200.481C274.19 200.481 273.77 200.201 273.56 199.781Z" fill="white"/>
<path d="M276.43 220.851C272.3 219.031 270.41 214.201 272.23 210.071C274.05 205.941 278.88 204.051 283.01 205.871C287.14 207.691 289.03 212.521 287.21 216.651C285.39 220.781 280.56 222.671 276.43 220.851Z" fill="#C80000"/>
<path d="M276.01 221.691C271.88 219.871 269.99 215.041 271.81 210.911C273.63 206.781 278.46 204.891 282.59 206.711C286.72 208.531 288.61 213.361 286.79 217.491C284.97 221.691 280.14 223.511 276.01 221.691Z" fill="#C80000"/>
<path opacity="0.4" d="M276.01 221.691C271.88 219.871 269.99 215.041 271.81 210.911C273.63 206.781 278.46 204.891 282.59 206.711C286.72 208.531 288.61 213.361 286.79 217.491C284.97 221.691 280.14 223.511 276.01 221.691Z" fill="white"/>
<path d="M284.9 216.721C284.83 216.931 284.69 217.141 284.55 217.351C282.87 220.221 279.09 221.201 276.22 219.521C273.35 217.841 272.37 214.061 274.05 211.191C275.73 208.321 279.51 207.341 282.38 209.021C285.11 210.561 286.16 213.851 284.9 216.721Z" fill="#C80000"/>
<path opacity="0.3" d="M284.9 216.721C284.83 216.931 284.69 217.141 284.55 217.351C282.45 220.011 278.6 220.501 275.94 218.401C273.7 216.651 272.93 213.641 274.12 211.051C274.19 210.841 274.33 210.631 274.4 210.491C276.5 207.831 280.35 207.341 283.01 209.371C285.25 211.121 286.02 214.131 284.9 216.721Z" fill="white"/>
<g opacity="0.4">
<path d="M277.06 216.161C275.73 215.811 275.31 214.621 275.8 213.011L274.75 212.521L275.17 211.611L276.22 212.101C276.64 211.331 277.2 210.631 277.97 210.141L278.95 211.051C278.32 211.471 277.83 212.031 277.48 212.661L279.02 213.361C279.72 212.591 280.49 211.681 281.68 212.031C283.01 212.381 283.43 213.641 282.87 215.181L283.92 215.671L283.5 216.581L282.45 216.091C282.1 216.721 281.68 217.211 281.12 217.701L280.14 216.791C280.63 216.441 280.98 216.021 281.26 215.531L279.65 214.761C278.95 215.601 278.18 216.441 277.06 216.161ZM280.28 213.991L281.61 214.621C281.75 214.061 281.54 213.711 281.19 213.571C280.84 213.431 280.56 213.711 280.28 213.991ZM277.41 214.551C277.69 214.621 277.97 214.481 278.25 214.131L276.99 213.501C276.92 214.131 277.06 214.481 277.41 214.551Z" fill="white"/>
</g>
<path d="M135.31 124.811C133.21 121.311 134.4 116.761 137.9 114.661C141.4 112.561 145.95 113.751 148.05 117.251C150.15 120.751 148.96 125.301 145.46 127.401C141.96 129.501 137.41 128.311 135.31 124.811Z" fill="#C80000"/>
<path d="M134.54 125.301C132.44 121.801 133.63 117.251 137.13 115.151C140.63 113.051 145.18 114.241 147.28 117.741C149.38 121.241 148.19 125.791 144.69 127.891C141.19 129.991 136.64 128.801 134.54 125.301Z" fill="#C80000"/>
<path opacity="0.4" d="M134.54 125.301C132.44 121.801 133.63 117.251 137.13 115.151C140.63 113.051 145.18 114.241 147.28 117.741C149.38 121.241 148.19 125.791 144.69 127.891C141.19 129.991 136.64 128.801 134.54 125.301Z" fill="white"/>
<path d="M143.78 126.281C143.57 126.421 143.43 126.491 143.22 126.561C140.42 127.821 137.13 126.491 135.87 123.691C134.75 121.101 135.73 118.161 138.11 116.691C138.46 116.481 138.88 116.341 139.3 116.201C142.24 115.291 145.32 116.901 146.23 119.841C147 122.361 145.95 125.021 143.78 126.281Z" fill="#C80000"/>
<path opacity="0.3" d="M143.78 126.282C143.57 126.422 143.43 126.492 143.22 126.562C140.28 127.472 137.2 125.792 136.29 122.852C135.59 120.402 136.57 117.742 138.81 116.482C138.95 116.412 139.16 116.342 139.3 116.272C142.24 115.362 145.32 116.972 146.23 119.912C147 122.362 145.95 125.022 143.78 126.282Z" fill="white"/>
<g opacity="0.4">
<path d="M138.25 121.73C137.41 120.75 137.76 119.63 138.95 118.72L138.46 117.81L139.23 117.32L139.72 118.23C140.42 117.88 141.19 117.67 142.03 117.67L142.24 118.86C141.54 118.86 140.91 118.93 140.28 119.28L141.05 120.61C141.96 120.4 143.01 120.19 143.71 121.03C144.41 121.87 144.2 123.13 142.94 124.04L143.43 124.95L142.66 125.44L142.17 124.53C141.61 124.81 140.98 124.95 140.35 124.95L140.07 123.76C140.56 123.76 141.12 123.62 141.54 123.41L140.77 122.01C139.93 122.29 138.95 122.5 138.25 121.73ZM141.75 121.8L142.38 122.99C142.8 122.64 142.8 122.29 142.59 122.01C142.38 121.73 142.1 121.8 141.75 121.8ZM139.3 120.75C139.51 120.96 139.86 121.03 140.14 120.89L139.51 119.77C139.23 120.12 139.09 120.47 139.3 120.75Z" fill="white"/>
</g>
<path d="M128.52 167.792C140 155.752 130.2 143.712 141.61 131.602H121.94C110.53 143.642 120.33 155.682 108.92 167.722L128.52 167.792Z" fill="#C80000"/>
<path opacity="0.3" d="M126.84 166.111H113.4C114.1 165.271 113.82 164.571 113.05 164.571C119.7 154.631 114.38 144.691 121.03 134.751C122.08 134.611 122.99 134.051 123.69 133.211H137.2C136.5 134.051 136.78 134.751 137.62 134.751C130.97 144.691 136.29 154.631 129.64 164.571C128.45 164.711 127.47 165.271 126.84 166.111Z" fill="white"/>
<path opacity="0.4" d="M124.18 148.82C124.32 148.82 124.39 148.89 124.46 148.96C124.53 149.1 124.6 149.24 124.67 149.38H123.62C123.69 149.24 123.76 149.1 123.9 148.96C123.9 148.82 124.04 148.82 124.18 148.82Z" fill="white"/>
<path opacity="0.4" d="M125.86 150.08H126.91C126.91 150.22 126.77 150.36 126.7 150.5C126.63 150.57 126.49 150.64 126.35 150.64C126.21 150.64 126.14 150.57 126.07 150.5C125.93 150.36 125.86 150.22 125.86 150.08Z" fill="white"/>
<path opacity="0.4" d="M124.67 155.331C127.82 155.261 130.48 152.881 130.76 149.731C130.9 146.651 128.8 144.061 125.79 144.061C122.64 144.061 120.05 146.511 119.77 149.661C119.56 152.811 121.66 155.331 124.67 155.331ZM126.14 151.901C125.86 151.901 125.58 151.831 125.37 151.621C125.16 151.481 125.02 151.271 124.95 150.991C124.88 150.711 124.81 150.431 124.74 150.081H123.48C123.48 150.501 123.62 150.851 123.76 151.201L122.85 151.551C122.64 151.061 122.5 150.571 122.5 150.011H121.73C121.73 149.731 121.8 149.521 121.8 149.241H122.64C122.71 148.751 122.92 148.261 123.27 147.911C123.55 147.631 123.97 147.491 124.39 147.491C124.67 147.491 124.95 147.561 125.16 147.771C125.37 147.911 125.51 148.121 125.58 148.401C125.65 148.681 125.72 149.031 125.79 149.311H127.05C127.05 149.031 126.98 148.751 126.91 148.541C126.84 148.261 126.77 148.051 126.63 147.841L127.54 147.421C127.68 147.701 127.82 147.911 127.89 148.261C127.96 148.611 128.03 148.961 128.03 149.311H128.8C128.8 149.591 128.73 149.801 128.73 150.081H127.89C127.82 150.571 127.61 151.061 127.26 151.411C126.98 151.691 126.56 151.901 126.14 151.901Z" fill="white"/>
</svg>
