<svg width="522" height="432" viewBox="0 0 522 432" fill="none" xmlns="http://www.w3.org/2000/svg">
<g id="No Results">
<g id="circle">
<path id="Stroke 1" d="M18.8057 199.4V203.815" stroke="#FACECE" strokeWidth="2.921" stroke-linecap="round"/>
<g id="Group 8">
<path id="Stroke 2" d="M8.88867 201.791L12.4964 205.505" stroke="#FACECE" strokeWidth="2.921" stroke-linecap="round"/>
<path id="Stroke 4" d="M4.66992 211.676H9.7712" stroke="#FACECE" strokeWidth="2.921" stroke-linecap="round"/>
<path id="Stroke 6" d="M8.47852 221.741L12.0862 218.027" stroke="#FACECE" strokeWidth="2.921" stroke-linecap="round"/>
</g>
<path id="Stroke 9" d="M18.8057 222.949V218.534" stroke="#FACECE" strokeWidth="2.921" stroke-linecap="round"/>
<path id="Stroke 10" d="M26.1641 220.004L23.2207 217.061" stroke="#FACECE" strokeWidth="2.921" stroke-linecap="round"/>
<path id="Stroke 11" d="M32.0508 212.648H27.6357" stroke="#FACECE" strokeWidth="2.921" stroke-linecap="round"/>
<path id="Stroke 12" d="M29.1084 202.345L26.165 205.288" stroke="#FACECE" strokeWidth="2.921" stroke-linecap="round"/>
<path id="Stroke 13" d="M255.75 6.60938V9.55275" stroke="#FACECE" strokeWidth="2.921" stroke-linecap="round"/>
<path id="Stroke 15" d="M246.917 15.4395H249.86" stroke="#FACECE" strokeWidth="2.921" stroke-linecap="round"/>
<path id="Stroke 16" d="M255.75 24.2686V21.3252" stroke="#FACECE" strokeWidth="2.921" stroke-linecap="round"/>
<path id="Stroke 17" d="M263.105 15.4395H260.162" stroke="#FACECE" strokeWidth="2.921" stroke-linecap="round"/>
<path id="Stroke 18" d="M85.0342 130.23V134.646" stroke="#FACECE" strokeWidth="2.921" stroke-linecap="round"/>
<path id="Stroke 19" d="M71.7861 143.479H76.2012" stroke="#FACECE" strokeWidth="2.921" stroke-linecap="round"/>
<path id="Stroke 20" d="M85.0342 155.25V150.835" stroke="#FACECE" strokeWidth="2.921" stroke-linecap="round"/>
<path id="Stroke 21" d="M96.8057 143.479H92.3906" stroke="#FACECE" strokeWidth="2.921" stroke-linecap="round"/>
<g id="Group 42">
<path id="Stroke 22" d="M401.822 290.695C405.339 290.695 408.191 293.548 408.191 297.066C408.191 300.586 405.339 303.438 401.822 303.438C398.305 303.438 395.452 300.586 395.452 297.066" stroke="#FACECE" strokeWidth="2.921" stroke-linecap="round"/>
<path id="Fill 26" fillRule="evenodd" clipRule="evenodd" d="M430.972 232.899C434.754 231.719 440.551 227.094 441.893 222.117C443.11 226.516 448.211 231.719 452.814 232.112C447.632 233.947 442.679 239.397 441.893 243.679C441.358 239.315 434.506 233.535 430.972 232.899Z" fill="#EBECEE"/>
<path id="Fill 28" fillRule="evenodd" clipRule="evenodd" d="M42.7559 288.738C44.6475 288.148 47.5448 285.836 48.2157 283.348C48.8242 285.546 51.3742 288.148 53.6756 288.345C51.0856 289.261 48.6093 291.987 48.2157 294.128C47.9484 291.946 44.5225 289.055 42.7559 288.738Z" fill="#EBECEE"/>
<path id="Fill 30" fillRule="evenodd" clipRule="evenodd" d="M77.8612 84.0124C77.8612 86.7418 75.6497 88.9526 72.9223 88.9526C70.1936 88.9526 67.9834 86.7418 67.9834 84.0124C67.9834 81.2843 70.1936 79.0723 72.9223 79.0723C75.6497 79.0723 77.8612 81.2843 77.8612 84.0124Z" fill="#D1D8DF"/>
<path id="Fill 32" fillRule="evenodd" clipRule="evenodd" d="M407.653 97.2755C407.653 101.836 403.956 105.532 399.399 105.532C394.838 105.532 391.143 101.836 391.143 97.2755C391.143 92.7152 394.838 89.0186 399.399 89.0186C403.956 89.0186 407.653 92.7152 407.653 97.2755Z" fill="#EBECEE"/>
<path id="Fill 34" fillRule="evenodd" clipRule="evenodd" d="M521.999 74.9053C521.999 78.5232 519.068 81.4551 515.452 81.4551C511.835 81.4551 508.904 78.5232 508.904 74.9053C508.904 71.2873 511.835 68.3555 515.452 68.3555C519.068 68.3555 521.999 71.2873 521.999 74.9053Z" fill="#EBECEE"/>
<path id="Stroke 36" fillRule="evenodd" clipRule="evenodd" d="M170.161 380.805C170.161 383.086 168.313 384.934 166.033 384.934C163.754 384.934 161.906 383.086 161.906 380.805C161.906 378.524 163.754 376.676 166.033 376.676C168.313 376.676 170.161 378.524 170.161 380.805Z" stroke="#FACECE" strokeWidth="2.921" stroke-linecap="round"/>
<path id="Stroke 38" fillRule="evenodd" clipRule="evenodd" d="M167.706 52.2751C167.706 55.0045 165.494 57.2153 162.767 57.2153C160.04 57.2153 157.828 55.0045 157.828 52.2751C157.828 49.547 160.04 47.335 162.767 47.335C165.494 47.335 167.706 49.547 167.706 52.2751Z" stroke="#FACECE" strokeWidth="2.921" stroke-linecap="round"/>
<path id="Stroke 40" fillRule="evenodd" clipRule="evenodd" d="M293.688 426.533C290.532 427.734 287 426.148 285.8 422.992C284.599 419.836 286.183 416.301 289.341 415.102C292.495 413.901 296.027 415.485 297.228 418.642C298.43 421.799 296.844 425.332 293.688 426.533Z" stroke="#FACECE" strokeWidth="2.921" stroke-linecap="round"/>
</g>
</g>
<g id="search">
<g id="documents">
<path id="Fill 1" fillRule="evenodd" clipRule="evenodd" d="M291.804 309.774H171.119C162.625 309.774 155.672 302.801 155.672 294.278V122.175C155.672 113.652 162.625 106.682 171.119 106.682H291.804C300.302 106.682 307.255 113.652 307.255 122.175V294.278C307.255 302.801 300.302 309.774 291.804 309.774Z" fill="#F89696"/>
<path id="Fill 3" fillRule="evenodd" clipRule="evenodd" d="M281.504 317.131H160.819C152.324 317.131 145.371 310.157 145.371 301.634V129.531C145.371 121.008 152.324 114.038 160.819 114.038H281.504C290.002 114.038 296.955 121.008 296.955 129.531V301.634C296.955 310.157 290.002 317.131 281.504 317.131Z" fill="#E8EBF2"/>
<path id="Fill 5" fillRule="evenodd" clipRule="evenodd" d="M271.481 322.94H150.547C142.035 322.94 135.067 315.995 135.067 307.508V136.117C135.067 127.63 142.035 120.688 150.547 120.688H271.481C279.997 120.688 286.964 127.63 286.964 136.117V307.508C286.964 315.995 279.997 322.94 271.481 322.94Z" fill="#D8DBEA"/>
<path id="Fill 8" fillRule="evenodd" clipRule="evenodd" d="M271.481 322.94H150.547C142.035 322.94 135.067 315.995 135.067 307.508V136.117C135.067 127.63 142.035 120.688 150.547 120.688H271.481C279.997 120.688 286.964 127.63 286.964 136.117V307.508C286.964 315.995 279.997 322.94 271.481 322.94Z" fill="#F1F2F7"/>
<path id="Fill 11" fillRule="evenodd" clipRule="evenodd" d="M254.051 172.91H164.726C162.175 172.91 160.087 170.924 160.087 168.497C160.087 166.067 162.175 164.08 164.726 164.08H254.051C256.602 164.08 258.69 166.067 258.69 168.497C258.69 170.924 256.602 172.91 254.051 172.91Z" fill="#F89696"/>
<path id="Fill 13" fillRule="evenodd" clipRule="evenodd" d="M254.051 199.4H164.726C162.175 199.4 160.087 197.414 160.087 194.987C160.087 192.557 162.175 190.57 164.726 190.57H254.051C256.602 190.57 258.69 192.557 258.69 194.987C258.69 197.414 256.602 199.4 254.051 199.4Z" fill="#F89696"/>
<path id="Fill 15" fillRule="evenodd" clipRule="evenodd" d="M254.051 225.891H164.726C162.175 225.891 160.087 223.904 160.087 221.477C160.087 219.05 162.175 217.061 164.726 217.061H254.051C256.602 217.061 258.69 219.05 258.69 221.477C258.69 223.904 256.602 225.891 254.051 225.891Z" fill="#F89696"/>
<path id="Fill 17" fillRule="evenodd" clipRule="evenodd" d="M254.051 252.381H164.726C162.175 252.381 160.087 250.394 160.087 247.967C160.087 245.537 162.175 243.551 164.726 243.551H254.051C256.602 243.551 258.69 245.537 258.69 247.967C258.69 250.394 256.602 252.381 254.051 252.381Z" fill="#F89696"/>
<path id="Fill 19" fillRule="evenodd" clipRule="evenodd" d="M211.352 278.871H164.746C162.184 278.871 160.087 276.885 160.087 274.458C160.087 272.028 162.184 270.041 164.746 270.041H211.352C213.914 270.041 216.011 272.028 216.011 274.458C216.011 276.885 213.914 278.871 211.352 278.871Z" fill="#F89696"/>
</g>
<g id="search_2">
<path id="Fill 21" fillRule="evenodd" clipRule="evenodd" d="M305.42 244.634C287.559 262.493 259.907 264.507 239.832 250.72C237.267 248.926 234.825 246.911 232.547 244.634C231.375 243.466 230.27 242.26 229.229 240.991C227.147 238.456 225.323 235.752 223.828 232.959C221.195 228.24 219.405 223.234 218.428 218.058C215.274 201.829 219.989 184.36 232.547 171.808C245.135 159.218 262.607 154.534 278.84 157.657C284.012 158.664 289.023 160.454 293.742 163.057C296.54 164.584 299.207 166.408 301.746 168.49C303.012 169.527 304.218 170.636 305.386 171.808C307.667 174.085 309.712 176.523 311.472 179.091C325.266 199.159 323.248 226.81 305.42 244.634Z" fill="white" fill-opacity="0.1"/>
<path id="Fill 23" fillRule="evenodd" clipRule="evenodd" d="M300.417 241.118C281.835 259.703 251.721 259.7 233.135 241.118C214.573 222.556 214.573 192.438 233.159 173.856C251.721 155.294 281.835 155.294 300.397 173.856C318.979 192.438 318.979 222.556 300.417 241.118ZM309.955 164.309C286.103 140.457 247.451 140.457 223.599 164.309C199.75 188.158 199.73 226.834 223.578 250.686C245.287 272.387 279.312 274.344 303.243 256.526C305.581 254.783 307.832 252.829 309.979 250.686C312.123 248.538 314.077 246.287 315.816 243.95C333.634 220.015 331.66 186.014 309.955 164.309Z" fill="#F89696"/>
<path id="Fill 25" fillRule="evenodd" clipRule="evenodd" d="M403.828 340.594L402.827 341.596C396.202 348.224 385.353 348.224 378.725 341.596L317.555 280.425L342.658 255.322L403.828 316.493C410.456 323.121 410.456 333.966 403.828 340.594Z" fill="#DA6767"/>
<path id="Fill 27" fillRule="evenodd" clipRule="evenodd" d="M317.139 242.08L335.215 260.156L322.382 272.985L304.31 254.909C306.695 253.131 308.988 251.138 311.183 248.95C313.371 246.762 315.364 244.465 317.139 242.08Z" fill="#F89696"/>
<path id="Fill 29" fillRule="evenodd" clipRule="evenodd" d="M402.91 315.744L377.967 340.684L373.477 336.19L398.416 311.25L402.91 315.744Z" fill="#C20101"/>
<path id="Fill 31" fillRule="evenodd" clipRule="evenodd" d="M344.044 256.188L318.418 281.815L314.61 278.008L340.237 252.381L344.044 256.188Z" fill="url(#paint0_linear_2795_48346)"/>
<path id="Fill 33" fillRule="evenodd" clipRule="evenodd" d="M288.118 167.461L225.272 230.304C222.906 226.062 221.296 221.561 220.421 216.909L274.722 162.606C279.372 163.515 283.876 165.121 288.118 167.461Z" fill="white" fill-opacity="0.5"/>
<path id="Fill 35" fillRule="evenodd" clipRule="evenodd" d="M308.724 182.4L240.78 246.494C238.347 244.893 236.031 243.09 233.872 241.052C232.76 240.004 231.709 238.928 230.725 237.792L299.496 172.91C300.7 173.842 301.844 174.834 302.952 175.882C305.112 177.92 307.054 180.101 308.724 182.4Z" fill="white" fill-opacity="0.5"/>
</g>
</g>
</g>
<defs>
<linearGradient id="paint0_linear_2795_48346" x1="329.327" y1="252.381" x2="329.327" y2="281.815" gradientUnits="userSpaceOnUse">
<stop stop-color="#C20101"/>
<stop offset="1" stop-color="#7F0202"/>
</linearGradient>
</defs>
</svg>
