<svg width="650" height="375" viewBox="0 0 650 375" fill="none" xmlns="http://www.w3.org/2000/svg">
<path d="M583.259 134.02C588.9 130.235 590.405 122.594 586.62 116.953C582.835 111.312 575.194 109.807 569.553 113.592C563.912 117.377 562.407 125.018 566.192 130.659C569.977 136.3 577.618 137.805 583.259 134.02Z" fill="#E0E0E0"/>
<path d="M539.889 136.899C547.124 136.899 552.989 131.034 552.989 123.799C552.989 116.564 547.124 110.699 539.889 110.699C532.654 110.699 526.789 116.564 526.789 123.799C526.789 131.034 532.654 136.899 539.889 136.899Z" fill="#E0E0E0"/>
<path d="M511.83 114.521C519.506 114.521 525.73 108.297 525.73 100.621C525.73 92.944 519.506 86.7207 511.83 86.7207C504.153 86.7207 497.93 92.944 497.93 100.621C497.93 108.297 504.153 114.521 511.83 114.521Z" fill="#E0E0E0"/>
<path d="M506.129 79.5205C514.149 79.5205 520.649 73.0196 520.649 65.0005C520.649 56.9813 514.149 50.4805 506.129 50.4805C498.11 50.4805 491.609 56.9813 491.609 65.0005C491.609 73.0196 498.11 79.5205 506.129 79.5205Z" fill="#E0E0E0"/>
<path d="M523.919 48.8208C532.209 48.8208 538.929 42.1006 538.929 33.8108C538.929 25.521 532.209 18.8008 523.919 18.8008C515.629 18.8008 508.909 25.521 508.909 33.8108C508.909 42.1006 515.629 48.8208 523.919 48.8208Z" fill="#E0E0E0"/>
<path d="M558.089 37.8391C567.125 37.8391 574.45 30.5145 574.45 21.4791C574.45 12.4438 567.125 5.11914 558.089 5.11914C549.054 5.11914 541.729 12.4438 541.729 21.4791C541.729 30.5145 549.054 37.8391 558.089 37.8391Z" fill="#E0E0E0"/>
<path d="M615.057 103.026C616.556 96.6386 612.594 90.245 606.206 88.7456C599.819 87.2463 593.425 91.2089 591.926 97.5965C590.426 103.984 594.389 110.378 600.777 111.877C607.164 113.376 613.558 109.414 615.057 103.026Z" fill="#E0E0E0"/>
<path d="M609.879 75.6201C615.966 75.6201 620.899 70.6863 620.899 64.6001C620.899 58.5139 615.966 53.5801 609.879 53.5801C603.793 53.5801 598.859 58.5139 598.859 64.6001C598.859 70.6863 603.793 75.6201 609.879 75.6201Z" fill="#E0E0E0"/>
<path d="M591.549 43.4701C597.111 43.4701 601.62 38.9616 601.62 33.4001C601.62 27.8386 597.111 23.3301 591.549 23.3301C585.988 23.3301 581.479 27.8386 581.479 33.4001C581.479 38.9616 585.988 43.4701 591.549 43.4701Z" fill="#E0E0E0"/>
<path d="M169.55 24.9593C170.665 24.7132 171.814 24.6523 172.95 24.7793C175.603 25.0377 178.125 26.0578 180.211 27.7167C182.298 29.3757 183.86 31.6027 184.71 34.1293C185.513 36.5095 185.662 39.062 185.14 41.5193C184.549 44.2482 183.156 46.7382 181.14 48.6693C178.992 50.7638 176.228 52.1129 173.256 52.518C170.283 52.9231 167.26 52.3627 164.63 50.9193C162.182 49.5811 160.187 47.5447 158.9 45.0693C157.743 42.8388 157.207 40.3381 157.35 37.8293C157.471 35.6524 158.105 33.535 159.2 31.6493C160.766 28.898 163.241 26.777 166.2 25.6493C167.256 25.2263 168.374 24.9797 169.51 24.9193C169.51 25.0193 168.31 25.1093 166.31 25.9193C163.491 27.1222 161.157 29.2346 159.68 31.9193C158.592 33.8745 158.01 36.0706 157.987 38.3078C157.965 40.5451 158.502 42.7525 159.55 44.7293C160.142 45.8681 160.904 46.9101 161.81 47.8193C162.752 48.7879 163.846 49.5953 165.05 50.2093C167.536 51.5658 170.391 52.0917 173.198 51.7103C176.004 51.3288 178.615 50.0601 180.65 48.0893C182.554 46.2649 183.874 43.9154 184.44 41.3393C184.948 39.017 184.831 36.6015 184.1 34.3393C183.459 32.3545 182.359 30.5489 180.89 29.0693C178.75 26.8722 175.931 25.4626 172.89 25.0693C171.779 24.9768 170.664 24.9401 169.55 24.9593Z" fill="#E0E0E0"/>
<path d="M174.759 7.38C174.759 7.38 174.689 7.24 174.569 6.93L174.029 5.58C173.539 4.33 172.849 2.52 171.939 0.189999L172.079 0.27L159.419 2.06L159.589 1.88C159.399 4.21 159.179 6.8 158.949 9.57V9.71L158.819 9.77C156.266 10.8372 153.868 12.2432 151.689 13.95L151.569 14.05L151.419 13.98L144.419 10.8L144.759 10.71L137.049 20.9V20.52L142.049 26.43L142.179 26.58L142.099 26.76C141.053 29.3228 140.35 32.0128 140.009 34.76V34.97L139.809 35.04L132.579 37.75L132.809 37.38C133.349 41.38 133.939 45.65 134.539 50.04L134.209 49.73L141.899 50.4H142.129L142.219 50.61C143.281 53.1505 144.677 55.5381 146.369 57.71L146.509 57.89L146.409 58.1C145.409 60.31 144.319 62.71 143.209 65.1L143.099 64.63L153.269 72.37H152.779L158.699 67.37L158.879 67.22L159.099 67.31C161.645 68.3578 164.318 69.0639 167.049 69.41C167.189 69.52 166.729 69.16 167.369 69.67V69.79L167.459 70.01L167.629 70.47L167.969 71.38L168.639 73.19C169.099 74.4 169.539 75.6 169.989 76.8L169.569 76.55L182.239 74.83L181.899 75.18C182.126 72.5933 182.353 70.03 182.579 67.49V67.26L182.799 67.17C185.342 66.1115 187.733 64.7193 189.909 63.03L190.089 62.89L190.299 62.98L197.299 66.19L196.849 66.31L204.599 56.14V56.6C202.919 54.6 201.259 52.6 199.599 50.67L199.459 50.5L199.549 50.31C200.603 47.7483 201.313 45.0582 201.659 42.31V42.11L201.849 42.04L209.089 39.35L208.879 39.7C208.279 35.24 207.719 31.03 207.189 27.03L207.459 27.29L199.769 26.59H199.599L199.529 26.44C198.509 23.9546 197.171 21.6117 195.549 19.47L195.459 19.34L195.519 19.2C196.689 16.65 197.749 14.36 198.749 12.2L198.819 12.48L188.679 4.69H188.899L182.899 9.61H182.839H182.769C180.833 8.80062 178.824 8.1778 176.769 7.75L175.249 7.47L174.739 7.37C174.912 7.35636 175.086 7.35636 175.259 7.37C175.599 7.37 176.109 7.47 176.799 7.6C178.856 7.96988 180.867 8.55649 182.799 9.35H182.669C184.279 7.98 186.199 6.35 188.559 4.35L188.659 4.26L188.779 4.34L198.979 12.04L199.129 12.15L199.049 12.32C198.049 14.5 197.049 16.8 195.869 19.32V19.05C197.603 21.2662 199.033 23.7045 200.119 26.3L199.889 26.13L207.579 26.79H207.819V27.03C208.369 31.03 208.939 35.23 209.559 39.69V39.95L209.319 40.04L202.089 42.75L202.309 42.48C201.957 45.2789 201.238 48.0192 200.169 50.63L200.109 50.27C201.743 52.1967 203.409 54.1667 205.109 56.18L205.299 56.4L205.119 56.63L197.389 66.81L197.209 67.05L196.939 66.92L189.939 63.73H190.329C188.099 65.4637 185.647 66.8929 183.039 67.98L183.279 67.66C183.059 70.2 182.829 72.76 182.609 75.35V75.66H182.299L169.639 77.39H169.329L169.219 77.09L167.869 73.49L167.189 71.67L166.849 70.76L166.679 70.31L166.589 70.08V69.97V69.91C167.229 70.42 166.769 70.05 166.909 70.16C164.109 69.8079 161.369 69.0849 158.759 68.01L159.169 67.95L153.239 72.95L152.999 73.15L152.759 72.96L142.549 65.27L142.299 65.09L142.429 64.81L145.639 57.81L145.689 58.2C143.959 55.969 142.533 53.5175 141.449 50.91L141.759 51.14L134.069 50.46H133.779V50.17C133.179 45.77 132.609 41.48 132.069 37.5V37.22L132.329 37.13L139.559 34.43L139.349 34.71C139.699 31.9117 140.425 29.1735 141.509 26.57V26.9L136.549 20.91L136.389 20.72L136.539 20.53C139.213 16.9833 141.789 13.6 144.269 10.38L144.399 10.2L144.609 10.29L151.609 13.51H151.339C153.562 11.7863 156.008 10.3702 158.609 9.3L158.469 9.49C158.719 6.72 158.959 4.13 159.179 1.8V1.64H159.339L172.009 0H172.109V0.0900002L174.049 5.48C174.259 6.07 174.419 6.48 174.539 6.88C174.63 7.03827 174.704 7.20591 174.759 7.38Z" fill="#E0E0E0"/>
<path fill-rule="evenodd" clip-rule="evenodd" d="M113.55 81.2098C117.463 81.6982 121.293 82.7071 124.94 84.2098L133.31 77.2098L147.72 88.2098L143.19 98.1398C145.609 101.257 147.606 104.68 149.13 108.32L160 109.32L162.43 127.21L152.2 131.03C151.716 134.944 150.707 138.775 149.2 142.42L156.2 150.79L145.26 165.17L135.32 160.64C132.206 163.064 128.782 165.062 125.14 166.58L124.14 177.45L106.23 179.88L102.41 169.65C98.4965 169.16 94.6661 168.151 91.0196 166.65L82.6496 173.65L68.2696 162.71L72.7996 152.77C70.378 149.656 68.3837 146.232 66.8696 142.59L55.9896 141.59L53.5596 123.68L63.7896 119.86C64.2746 115.946 65.2836 112.115 66.7896 108.47L59.7896 100.1L70.7296 85.7198L80.6696 90.2498C83.7848 87.8303 87.2082 85.8361 90.8496 84.3198L91.8496 73.4398L109.76 71.0098L113.55 81.2098ZM106.2 106.07C102.399 106.583 98.8355 108.212 95.9606 110.751C93.0857 113.29 91.0283 116.624 90.0486 120.332C89.069 124.041 89.211 127.956 90.4568 131.583C91.7026 135.211 93.9962 138.387 97.0474 140.711C100.099 143.035 103.771 144.402 107.599 144.638C111.427 144.875 115.239 143.971 118.553 142.041C121.868 140.111 124.535 137.241 126.218 133.795C127.902 130.348 128.525 126.48 128.01 122.68C127.311 117.597 124.627 112.998 120.545 109.89C116.462 106.783 111.315 105.42 106.23 106.1L106.2 106.07Z" fill="#E0E0E0"/>
<path d="M554.649 78.4297H146.479C138.432 78.4297 131.909 84.9529 131.909 92.9997V353.05C131.909 361.096 138.432 367.62 146.479 367.62H554.649C562.696 367.62 569.219 361.096 569.219 353.05V92.9997C569.219 84.9529 562.696 78.4297 554.649 78.4297Z" fill="#455A64"/>
<path d="M114.819 348.939H588.609V356.449C588.609 361.17 586.734 365.698 583.396 369.036C580.058 372.374 575.53 374.249 570.809 374.249H132.619C127.898 374.249 123.371 372.374 120.033 369.036C116.695 365.698 114.819 361.17 114.819 356.449V348.939Z" fill="#455A64"/>
<path d="M556.259 89.9199H143.649V334.14H556.259V89.9199Z" fill="#263238"/>
<path d="M307.459 346.23L313.339 355.58H396.069L401.529 346.23H307.459Z" fill="#263238"/>
<path d="M545.339 98.1895H155.419C153.613 98.1895 152.149 99.6535 152.149 101.459V330.089C152.149 331.895 153.613 333.359 155.419 333.359H545.339C547.145 333.359 548.609 331.895 548.609 330.089V101.459C548.609 99.6535 547.145 98.1895 545.339 98.1895Z" fill="#EBEBEB"/>
<path d="M548.19 333.7H151.729L152.15 115.76H548.19V333.7Z" fill="#FAFAFA"/>
<path d="M184.659 107.27C184.659 107.897 184.473 108.51 184.124 109.032C183.776 109.553 183.28 109.96 182.7 110.199C182.12 110.439 181.482 110.501 180.867 110.378C180.252 110.255 179.687 109.952 179.244 109.508C178.801 109.063 178.5 108.497 178.379 107.882C178.258 107.266 178.322 106.629 178.564 106.05C178.805 105.471 179.213 104.976 179.735 104.629C180.258 104.282 180.872 104.098 181.499 104.1C181.915 104.1 182.327 104.182 182.711 104.341C183.095 104.501 183.444 104.734 183.737 105.029C184.031 105.323 184.263 105.673 184.422 106.057C184.58 106.442 184.661 106.854 184.659 107.27Z" fill="#263238"/>
<path d="M165.469 107.27C165.469 107.897 165.283 108.51 164.934 109.032C164.585 109.553 164.09 109.96 163.51 110.199C162.93 110.439 162.292 110.501 161.677 110.378C161.062 110.255 160.497 109.952 160.054 109.508C159.611 109.063 159.31 108.497 159.189 107.882C159.067 107.266 159.132 106.629 159.373 106.05C159.615 105.471 160.022 104.976 160.545 104.629C161.068 104.282 161.682 104.098 162.309 104.1C162.725 104.1 163.136 104.182 163.52 104.341C163.905 104.501 164.253 104.734 164.547 105.029C164.84 105.323 165.073 105.673 165.231 106.057C165.389 106.442 165.47 106.854 165.469 107.27Z" fill="#263238"/>
<path d="M174.69 107.27C174.69 107.897 174.504 108.509 174.155 109.031C173.807 109.552 173.312 109.958 172.733 110.198C172.153 110.438 171.516 110.501 170.901 110.379C170.286 110.256 169.721 109.954 169.278 109.511C168.835 109.068 168.533 108.503 168.411 107.888C168.288 107.273 168.351 106.636 168.591 106.057C168.831 105.477 169.237 104.982 169.758 104.634C170.28 104.286 170.893 104.1 171.52 104.1C172.36 104.1 173.167 104.434 173.761 105.028C174.356 105.623 174.69 106.429 174.69 107.27Z" fill="#263238"/>
<path d="M565.459 346.21C565.459 346.37 468.399 346.49 348.699 346.49C228.999 346.49 131.909 346.37 131.909 346.21C131.909 346.05 228.909 345.93 348.699 345.93C468.489 345.93 565.459 346.07 565.459 346.21Z" fill="#263238"/>
<path d="M489.15 223.96H219.74C216.576 223.96 213.541 222.703 211.304 220.466C209.066 218.228 207.81 215.194 207.81 212.03C207.81 208.865 209.066 205.829 211.303 203.591C213.54 201.352 216.575 200.092 219.74 200.09H489.15C492.315 200.092 495.349 201.352 497.586 203.591C499.823 205.829 501.08 208.865 501.08 212.03C501.08 215.194 499.823 218.228 497.585 220.466C495.348 222.703 492.314 223.96 489.15 223.96Z" fill="#EBEBEB"/>
<path d="M358.94 223.959H344.55C342.961 223.972 341.386 223.67 339.915 223.07C338.444 222.469 337.107 221.583 335.982 220.462C334.856 219.341 333.964 218.008 333.358 216.54C332.752 215.072 332.443 213.498 332.449 211.909C332.427 210.351 332.716 208.805 333.302 207.361C333.887 205.917 334.756 204.606 335.857 203.504C336.958 202.402 338.269 201.532 339.712 200.945C341.156 200.359 342.702 200.067 344.259 200.089L358.94 200.149C362.161 200.202 365.231 201.521 367.487 203.821C369.742 206.121 371 209.218 370.99 212.439C370.99 219.089 365.55 223.959 358.94 223.959Z" fill="#E0E0E0"/>
<mask id="mask0_2795_51926" style="mask-type:luminance" maskUnits="userSpaceOnUse" x="207" y="200" width="157" height="24">
<path d="M354.86 223.96H219.74C216.576 223.96 213.541 222.703 211.304 220.466C209.066 218.228 207.81 215.194 207.81 212.03C207.81 208.865 209.066 205.829 211.303 203.591C213.54 201.352 216.575 200.092 219.74 200.09H354.86C357.127 200.09 359.302 200.991 360.905 202.594C362.509 204.198 363.41 206.372 363.41 208.64V215.41C363.41 217.677 362.509 219.852 360.905 221.456C359.302 223.059 357.127 223.96 354.86 223.96Z" fill="white"/>
</mask>
<g mask="url(#mask0_2795_51926)">
<path d="M351.47 223.96H219.74C216.576 223.96 213.541 222.703 211.304 220.466C209.066 218.228 207.81 215.194 207.81 212.03C207.81 208.865 209.066 205.829 211.303 203.591C213.54 201.352 216.575 200.092 219.74 200.09H351.47C354.636 200.09 357.673 201.348 359.912 203.587C362.152 205.826 363.41 208.863 363.41 212.03C363.41 213.597 363.101 215.149 362.501 216.598C361.9 218.046 361.021 219.361 359.912 220.469C358.803 221.577 357.487 222.456 356.038 223.055C354.59 223.654 353.037 223.961 351.47 223.96Z" fill="#C80000"/>
<g opacity="0.2">
<path d="M224.299 200.09L238.879 223.96H249.189L234.029 200.09H224.299Z" fill="white"/>
</g>
<g opacity="0.2">
<path d="M202.239 200.09L216.819 223.96H227.129L211.969 200.09H202.239Z" fill="white"/>
</g>
<g opacity="0.2">
<path d="M245.64 200.09L260.21 223.96H270.53L255.37 200.09H245.64Z" fill="white"/>
</g>
<g opacity="0.2">
<path d="M266.979 200.09L281.549 223.96H291.87L276.71 200.09H266.979Z" fill="white"/>
</g>
<g opacity="0.2">
<path d="M288.31 200.09L302.89 223.96H313.2L298.04 200.09H288.31Z" fill="white"/>
</g>
<g opacity="0.2">
<path d="M309.649 200.09L324.219 223.96H334.539L319.379 200.09H309.649Z" fill="white"/>
</g>
<g opacity="0.2">
<path d="M330.989 200.09L345.559 223.96H355.879L340.719 200.09H330.989Z" fill="white"/>
</g>
<g opacity="0.2">
<path d="M352.319 200.09L366.899 223.96H377.209L362.049 200.09H352.319Z" fill="white"/>
</g>
</g>
<path d="M289.259 246.83C291.789 246.83 293.259 248.09 293.259 250.27C293.259 252.45 291.809 253.87 289.259 253.87H286.939V256.87H285.239V246.83H289.259ZM286.939 252.35H289.189C290.739 252.35 291.619 251.68 291.619 250.35C291.619 249.02 290.739 248.35 289.189 248.35H286.939V252.35Z" fill="#C80000"/>
<path d="M295.189 256.909V246.209H296.849V256.909H295.189Z" fill="#C80000"/>
<path d="M306.389 253.709H300.609C300.706 254.261 300.999 254.76 301.435 255.113C301.87 255.466 302.419 255.649 302.979 255.629C303.381 255.631 303.78 255.553 304.151 255.398C304.522 255.243 304.858 255.016 305.139 254.729L306.019 255.669C305.612 256.095 305.119 256.431 304.573 256.653C304.026 256.875 303.439 256.98 302.849 256.959C302.33 256.994 301.81 256.918 301.322 256.736C300.835 256.555 300.392 256.271 300.022 255.905C299.652 255.539 299.364 255.099 299.178 254.613C298.991 254.128 298.91 253.608 298.94 253.089C298.914 252.572 298.996 252.056 299.182 251.574C299.367 251.091 299.65 250.652 300.014 250.285C300.379 249.918 300.815 249.631 301.296 249.442C301.778 249.254 302.293 249.167 302.81 249.189C305.55 249.209 306.549 250.949 306.389 253.709ZM304.949 252.499C304.95 252.225 304.894 251.954 304.786 251.702C304.677 251.451 304.518 251.224 304.319 251.037C304.119 250.849 303.883 250.704 303.625 250.612C303.367 250.519 303.093 250.481 302.819 250.499C302.26 250.479 301.715 250.676 301.298 251.049C300.88 251.421 300.623 251.941 300.579 252.499H304.949Z" fill="#C80000"/>
<path d="M312.999 255.97C312.682 256.318 312.289 256.59 311.85 256.763C311.412 256.936 310.939 257.007 310.469 256.97C310.133 257.007 309.792 256.974 309.47 256.872C309.147 256.77 308.849 256.601 308.596 256.377C308.342 256.153 308.138 255.878 307.998 255.57C307.857 255.262 307.783 254.928 307.779 254.59C307.779 253.2 308.779 252.31 310.669 252.29H312.979V252.06C312.979 251.06 312.369 250.52 311.159 250.52C310.344 250.543 309.555 250.815 308.899 251.3L308.219 250.15C309.186 249.476 310.341 249.125 311.519 249.15C313.519 249.15 314.599 250.15 314.609 251.84V256.84H312.989L312.999 255.97ZM312.999 254.22V253.51H310.929C309.849 253.51 309.349 253.8 309.349 254.51C309.349 255.22 309.909 255.65 310.829 255.65C311.989 255.67 312.899 255.05 312.979 254.21L312.999 254.22Z" fill="#C80000"/>
<path d="M322.099 249.96L321.489 251.18C320.828 250.764 320.069 250.529 319.289 250.5C318.649 250.5 318.169 250.72 318.169 251.27C318.169 252.68 322.239 251.91 322.229 254.69C322.229 256.26 320.829 256.96 319.289 256.96C318.17 256.98 317.079 256.604 316.209 255.9L316.799 254.72C317.523 255.313 318.424 255.647 319.359 255.67C320.069 255.67 320.619 255.42 320.619 254.85C320.619 253.28 316.619 254.16 316.619 251.39C316.619 249.84 317.969 249.18 319.439 249.18C320.383 249.174 321.308 249.445 322.099 249.96Z" fill="#C80000"/>
<path d="M330.92 253.71H325.14C325.238 254.262 325.532 254.759 325.967 255.112C326.402 255.465 326.95 255.649 327.51 255.63C327.912 255.633 328.31 255.554 328.681 255.4C329.052 255.245 329.388 255.017 329.67 254.73L330.55 255.67C330.143 256.097 329.65 256.433 329.103 256.655C328.557 256.878 327.969 256.982 327.38 256.96C326.861 256.995 326.34 256.919 325.853 256.738C325.365 256.556 324.922 256.273 324.552 255.907C324.182 255.541 323.895 255.101 323.708 254.615C323.521 254.129 323.44 253.61 323.47 253.09C323.446 252.574 323.529 252.059 323.715 251.577C323.901 251.095 324.184 250.657 324.548 250.29C324.912 249.924 325.348 249.636 325.828 249.447C326.309 249.258 326.824 249.17 327.34 249.19C330.03 249.21 331.12 250.95 330.92 253.71ZM329.48 252.5C329.48 252.227 329.425 251.957 329.317 251.706C329.209 251.455 329.051 251.229 328.852 251.042C328.654 250.854 328.419 250.71 328.162 250.617C327.905 250.523 327.632 250.484 327.36 250.5C326.8 250.48 326.253 250.677 325.834 251.05C325.415 251.422 325.156 251.942 325.11 252.5H329.48Z" fill="#C80000"/>
<path d="M345.67 256.91L343.28 249.05L340.86 256.91H339.1L335.77 246.83H337.55L340 255.02L342.43 246.85H344.1L346.55 255.04L348.98 246.85H350.73L347.37 256.93L345.67 256.91Z" fill="#C80000"/>
<path d="M356.059 255.969C355.742 256.319 355.349 256.591 354.91 256.764C354.472 256.937 353.999 257.008 353.529 256.969C353.192 257.007 352.852 256.974 352.529 256.872C352.206 256.77 351.909 256.601 351.655 256.377C351.402 256.153 351.198 255.878 351.057 255.57C350.917 255.262 350.842 254.928 350.839 254.589C350.839 253.199 351.839 252.309 353.729 252.289H356.049V252.059C356.049 251.059 355.429 250.519 354.219 250.519C353.404 250.543 352.615 250.815 351.959 251.299L351.279 250.149C352.246 249.477 353.401 249.127 354.579 249.149C356.579 249.149 357.659 250.149 357.669 251.839V256.839H356.039L356.059 255.969ZM356.059 254.219V253.509H353.989C352.909 253.509 352.399 253.799 352.399 254.509C352.399 255.219 352.959 255.649 353.879 255.649C355.049 255.669 355.959 255.049 356.049 254.209L356.059 254.219Z" fill="#C80000"/>
<path d="M361.979 247.061C361.979 247.258 361.921 247.452 361.811 247.616C361.701 247.781 361.545 247.909 361.362 247.984C361.179 248.06 360.978 248.08 360.784 248.041C360.59 248.003 360.412 247.907 360.272 247.768C360.133 247.628 360.037 247.45 359.999 247.256C359.96 247.062 359.98 246.861 360.056 246.678C360.131 246.495 360.259 246.339 360.424 246.229C360.588 246.119 360.782 246.061 360.979 246.061C361.245 246.061 361.499 246.166 361.687 246.353C361.874 246.541 361.979 246.795 361.979 247.061ZM360.199 256.911V249.211H361.839V256.871L360.199 256.911Z" fill="#C80000"/>
<path d="M368.91 256.42C368.342 256.774 367.689 256.968 367.02 256.98C366.725 257.003 366.429 256.96 366.153 256.855C365.877 256.749 365.627 256.584 365.423 256.371C365.218 256.158 365.063 255.902 364.969 255.621C364.876 255.341 364.845 255.044 364.88 254.75V250.75H363.8V249.51H364.88V247.41H366.55V249.51H368.81V250.75H366.55V254.42C366.55 255.21 366.85 255.42 367.37 255.42C367.773 255.4 368.167 255.287 368.52 255.09L368.91 256.42Z" fill="#C80000"/>
<path d="M377.859 246.209C376.747 248.097 376.16 250.248 376.16 252.439C376.16 254.63 376.747 256.781 377.859 258.669H376.359C375.218 256.791 374.615 254.636 374.615 252.439C374.615 250.242 375.218 248.087 376.359 246.209H377.859Z" fill="#C80000"/>
<path d="M383.62 252.919V250.529H385.2V252.919H386.67V254.429H385.2V256.909H383.62V254.429H378.81V253.209L382.25 246.869H383.89L380.63 252.959L383.62 252.919Z" fill="#C80000"/>
<path d="M389.999 248.36V250.53H391.379C393.569 250.53 394.979 251.82 394.979 253.59C394.979 255.64 393.509 256.97 391.249 256.97C389.97 256.936 388.728 256.537 387.669 255.82L388.339 254.44C389.097 255.096 390.057 255.474 391.059 255.51C392.369 255.51 393.159 254.83 393.159 253.69C393.159 252.55 392.369 252.04 391.079 252.04C390.469 252.04 389.079 252.1 388.429 252.17V246.84H394.549V248.37L389.999 248.36Z" fill="#C80000"/>
<path d="M401.759 249.799C401.759 251.679 400.759 252.799 399.099 252.799C397.439 252.799 396.439 251.659 396.439 249.799C396.439 247.939 397.439 246.799 399.099 246.799C400.759 246.799 401.759 247.929 401.759 249.799ZM397.539 249.799C397.539 251.089 398.099 251.799 399.099 251.799C400.099 251.799 400.669 251.049 400.669 249.799C400.669 248.549 400.089 247.799 399.099 247.799C398.109 247.799 397.549 248.519 397.549 249.799H397.539ZM405.749 246.799H407.329L399.929 256.879H398.339L405.749 246.799ZM409.339 253.899C409.339 255.779 408.339 256.899 406.679 256.899C405.019 256.899 404.019 255.769 404.019 253.899C404.019 252.029 405.019 250.899 406.679 250.899C408.339 250.899 409.339 252.059 409.339 253.929V253.899ZM405.129 253.899C405.129 255.189 405.689 255.899 406.679 255.899C407.669 255.899 408.249 255.159 408.249 253.899C408.249 252.639 407.669 251.899 406.679 251.899C405.689 251.899 405.129 252.649 405.129 253.929V253.899Z" fill="#C80000"/>
<path d="M413.399 246.209C414.54 248.087 415.143 250.242 415.143 252.439C415.143 254.636 414.54 256.791 413.399 258.669H411.899C413.012 256.781 413.599 254.63 413.599 252.439C413.599 250.248 413.012 248.097 411.899 246.209H413.399Z" fill="#C80000"/>
<path d="M306.26 171.85H307.94V182.12H314.29V183.58H306.29L306.26 171.85Z" fill="black"/>
<path d="M315.04 177.71C314.992 176.468 315.317 175.239 315.972 174.182C316.628 173.125 317.584 172.288 318.719 171.778C319.853 171.269 321.114 171.11 322.34 171.322C323.565 171.534 324.699 172.108 325.597 172.969C326.494 173.83 327.113 174.94 327.375 176.156C327.637 177.372 327.53 178.638 327.067 179.793C326.604 180.947 325.807 181.937 324.777 182.635C323.748 183.333 322.534 183.708 321.29 183.71C320.481 183.744 319.674 183.614 318.917 183.328C318.16 183.041 317.468 182.605 316.885 182.044C316.301 181.483 315.836 180.811 315.519 180.066C315.202 179.321 315.039 178.52 315.04 177.71ZM325.83 177.71C325.84 176.806 325.58 175.918 325.084 175.161C324.588 174.405 323.879 173.812 323.045 173.46C322.212 173.108 321.292 173.012 320.404 173.184C319.515 173.355 318.698 173.788 318.056 174.425C317.414 175.063 316.977 175.877 316.799 176.765C316.621 177.652 316.711 178.572 317.058 179.408C317.405 180.243 317.992 180.957 318.746 181.458C319.499 181.959 320.385 182.224 321.29 182.22C321.889 182.24 322.485 182.136 323.043 181.917C323.6 181.698 324.107 181.367 324.532 180.944C324.957 180.522 325.292 180.017 325.515 179.461C325.738 178.905 325.845 178.309 325.83 177.71Z" fill="black"/>
<path d="M337.379 180.64H331.139L329.849 183.58H328.129L333.439 171.85H335.099L340.429 183.58H338.669L337.379 180.64ZM336.789 179.3L334.259 173.56L331.729 179.3H336.789Z" fill="black"/>
<path d="M342.169 171.85H347.109C350.879 171.85 353.439 174.23 353.439 177.71C353.439 181.19 350.879 183.58 347.109 183.58H342.169V171.85ZM347.009 182.12C349.909 182.12 351.769 180.34 351.769 177.71C351.769 175.08 349.909 173.31 347.009 173.31H343.839V182.12H347.009Z" fill="black"/>
<path d="M356.01 171.85H357.68V183.58H356.01V171.85Z" fill="black"/>
<path d="M371.289 171.85V183.58H369.909L362.909 174.83V183.58H361.229V171.85H362.549L369.549 180.59V171.85H371.289Z" fill="black"/>
<path d="M382.929 177.649H384.549V182.209C383.288 183.207 381.718 183.734 380.109 183.699C378.518 183.699 376.992 183.067 375.867 181.942C374.742 180.817 374.109 179.29 374.109 177.699C374.109 176.108 374.742 174.582 375.867 173.456C376.992 172.331 378.518 171.699 380.109 171.699C380.947 171.662 381.782 171.804 382.56 172.116C383.338 172.429 384.04 172.903 384.619 173.509L383.619 174.509C383.174 174.065 382.643 173.717 382.058 173.485C381.474 173.253 380.848 173.142 380.219 173.159C379.603 173.118 378.985 173.204 378.404 173.411C377.822 173.619 377.289 173.944 376.838 174.366C376.387 174.788 376.028 175.298 375.782 175.864C375.536 176.431 375.409 177.042 375.409 177.659C375.409 178.277 375.536 178.888 375.782 179.454C376.028 180.021 376.387 180.531 376.838 180.953C377.289 181.374 377.822 181.699 378.404 181.907C378.985 182.114 379.603 182.2 380.219 182.159C381.189 182.181 382.145 181.921 382.969 181.409L382.929 177.649Z" fill="black"/>
<path d="M386.919 182.519C386.916 182.369 386.944 182.219 387 182.08C387.057 181.94 387.141 181.813 387.247 181.707C387.353 181.601 387.48 181.517 387.62 181.46C387.759 181.404 387.909 181.376 388.059 181.379C388.207 181.379 388.353 181.409 388.49 181.466C388.626 181.524 388.749 181.609 388.851 181.715C388.954 181.822 389.034 181.948 389.087 182.086C389.14 182.224 389.164 182.371 389.159 182.519C389.164 182.668 389.14 182.816 389.087 182.955C389.035 183.095 388.955 183.222 388.853 183.33C388.75 183.438 388.627 183.524 388.491 183.584C388.355 183.644 388.208 183.677 388.059 183.679C387.908 183.679 387.758 183.649 387.618 183.59C387.479 183.532 387.352 183.446 387.246 183.338C387.14 183.23 387.056 183.102 387 182.962C386.944 182.821 386.916 182.67 386.919 182.519Z" fill="black"/>
<path d="M390.719 182.519C390.716 182.369 390.744 182.219 390.8 182.08C390.857 181.94 390.94 181.813 391.047 181.707C391.153 181.601 391.28 181.517 391.419 181.46C391.559 181.404 391.708 181.376 391.859 181.379C392.007 181.379 392.154 181.409 392.291 181.466C392.427 181.524 392.551 181.608 392.655 181.715C392.758 181.821 392.839 181.947 392.893 182.085C392.947 182.223 392.973 182.371 392.969 182.519C392.973 182.668 392.947 182.817 392.894 182.956C392.84 183.095 392.759 183.223 392.656 183.331C392.553 183.438 392.429 183.525 392.292 183.585C392.155 183.644 392.008 183.677 391.859 183.679C391.708 183.679 391.558 183.649 391.418 183.59C391.278 183.532 391.152 183.446 391.046 183.338C390.94 183.23 390.856 183.102 390.8 182.962C390.744 182.821 390.716 182.67 390.719 182.519Z" fill="black"/>
<path d="M394.549 182.519C394.546 182.369 394.574 182.219 394.63 182.08C394.687 181.94 394.77 181.813 394.877 181.707C394.983 181.601 395.11 181.517 395.25 181.46C395.389 181.404 395.539 181.376 395.689 181.379C395.838 181.378 395.985 181.406 396.122 181.464C396.26 181.521 396.384 181.605 396.488 181.712C396.592 181.818 396.673 181.945 396.726 182.083C396.78 182.222 396.804 182.37 396.799 182.519C396.804 182.669 396.78 182.818 396.726 182.958C396.673 183.098 396.592 183.225 396.489 183.333C396.385 183.442 396.261 183.528 396.124 183.587C395.987 183.647 395.839 183.678 395.689 183.679C395.538 183.679 395.388 183.649 395.248 183.59C395.108 183.532 394.982 183.446 394.876 183.338C394.77 183.23 394.686 183.102 394.63 182.962C394.574 182.821 394.546 182.67 394.549 182.519Z" fill="black"/>
<path d="M268.59 373.74L306.15 373.34L303.18 359.9L269.61 357.41L268.59 373.74Z" fill="#B78876"/>
<path d="M287.55 356.959L304.95 358.099C304.95 358.099 311.95 340.799 315.19 340.699L314.19 374.509L287.01 373.839L287.55 356.959Z" fill="#C80000"/>
<path d="M303.17 368.509C303.259 368.837 303.467 369.121 303.753 369.306C304.039 369.49 304.384 369.563 304.72 369.509C305.05 369.432 305.337 369.231 305.524 368.949C305.71 368.666 305.78 368.322 305.72 367.989C305.617 367.649 305.394 367.36 305.091 367.175C304.788 366.991 304.428 366.924 304.08 366.989C303.742 367.103 303.462 367.345 303.3 367.662C303.137 367.98 303.105 368.348 303.21 368.689" fill="#E0E0E0"/>
<path d="M314.18 374.508L311.44 374.338L313.44 341.978C313.44 341.978 314.14 340.498 315.2 340.698L314.18 374.508Z" fill="#E0E0E0"/>
<path d="M304.79 357.55C304.96 357.55 305.01 358.38 305.51 359.21C306.01 360.04 306.7 360.49 306.63 360.64C306.56 360.79 305.63 360.52 305.02 359.51C304.41 358.5 304.64 357.51 304.79 357.55Z" fill="#263238"/>
<path d="M306.36 354.039C306.52 354.039 306.78 354.729 307.46 355.309C308.14 355.889 308.88 356.079 308.87 356.239C308.86 356.399 307.92 356.489 307.09 355.749C306.26 355.009 306.21 354.039 306.36 354.039Z" fill="#263238"/>
<path d="M310.67 352.149C310.67 352.309 309.87 352.509 308.97 352.059C308.07 351.609 307.75 350.829 307.89 350.759C308.03 350.689 308.49 351.189 309.23 351.549C309.97 351.909 310.66 351.989 310.67 352.149Z" fill="#263238"/>
<path d="M300.8 357.73C300.94 357.8 300.69 358.55 300.73 359.48C300.77 360.41 301.04 361.16 300.89 361.24C300.74 361.32 300.18 360.6 300.16 359.5C300.14 358.4 300.67 357.64 300.8 357.73Z" fill="#263238"/>
<path d="M297.28 357.559C297.414 358.117 297.393 358.701 297.22 359.249C297.098 359.858 296.899 360.449 296.63 361.009C296.464 361.352 296.281 361.685 296.08 362.009C295.971 362.193 295.833 362.359 295.67 362.499C295.549 362.603 295.398 362.665 295.238 362.674C295.079 362.683 294.921 362.639 294.79 362.549C294.677 362.464 294.585 362.353 294.522 362.227C294.46 362.1 294.428 361.96 294.43 361.819C294.436 361.604 294.473 361.392 294.54 361.189C294.638 360.844 294.769 360.509 294.93 360.189C295.203 359.622 295.564 359.102 296 358.649C296.75 357.889 297.38 357.649 297.41 357.699C297.44 357.749 296.93 358.139 296.31 358.919C295.946 359.374 295.643 359.875 295.41 360.409C295.274 360.733 295.164 361.067 295.08 361.409C294.98 361.769 294.97 362.069 295.08 362.169C295.19 362.269 295.17 362.169 295.27 362.169C295.387 362.058 295.491 361.934 295.58 361.799C295.775 361.517 295.952 361.223 296.11 360.919C296.386 360.401 296.614 359.859 296.79 359.299C296.908 358.707 297.072 358.125 297.28 357.559Z" fill="#263238"/>
<path d="M297.55 357.78C297.058 358.089 296.479 358.229 295.9 358.18C295.275 358.191 294.652 358.093 294.06 357.89C293.711 357.773 293.376 357.619 293.06 357.43C292.84 357.334 292.648 357.182 292.504 356.989C292.36 356.796 292.269 356.569 292.24 356.33C292.249 356.179 292.299 356.034 292.385 355.91C292.472 355.787 292.591 355.69 292.73 355.63C292.932 355.551 293.144 355.5 293.36 355.48C293.868 355.417 294.384 355.457 294.877 355.596C295.37 355.735 295.83 355.971 296.23 356.29C297.08 356.97 297.23 357.67 297.23 357.68C297.23 357.69 296.85 357.15 296.02 356.62C295.543 356.31 295.004 356.109 294.44 356.03C294.109 355.982 293.772 355.982 293.44 356.03C293.07 356.03 292.78 356.19 292.81 356.33C292.84 356.47 293.07 356.79 293.35 356.94C293.638 357.117 293.943 357.264 294.26 357.38C294.799 357.586 295.365 357.714 295.94 357.76C296.87 357.85 297.49 357.69 297.55 357.78Z" fill="#263238"/>
<path d="M35.07 363.209L32.2 374.209L0 373.919C0 373.919 4.41 370.589 20.58 370.829L22.15 363.209H35.07Z" fill="#B78876"/>
<path d="M68.0296 214.209C67.0783 212.398 66.3047 210.499 65.7196 208.539C65.1325 206.582 65.1325 204.496 65.7196 202.539C66.0366 201.562 66.5863 200.676 67.3214 199.959C68.0565 199.241 68.955 198.713 69.9396 198.419C71.1596 198.119 72.4896 198.259 73.6496 197.759C74.9996 197.189 75.8496 195.879 76.8596 194.829C78.4722 193.177 80.5777 192.092 82.8596 191.739C84.0394 191.507 85.261 191.618 86.3796 192.059C86.9364 192.288 87.4263 192.653 87.8039 193.122C88.1816 193.59 88.4346 194.147 88.5396 194.739C89.8893 194.141 91.3113 193.72 92.7696 193.489C94.2431 193.266 95.7457 193.625 96.9596 194.489C97.5475 194.939 97.9762 195.565 98.1831 196.275C98.39 196.986 98.3643 197.744 98.1096 198.439C98.7178 198.097 99.4315 197.994 100.112 198.149C100.792 198.305 101.39 198.707 101.79 199.279C102.169 199.864 102.371 200.547 102.371 201.244C102.371 201.942 102.169 202.624 101.79 203.209C100.822 204.495 99.4292 205.395 97.8596 205.749C96.4508 206.097 94.983 206.131 93.5596 205.849" fill="#263238"/>
<path d="M83.9397 257.629C86.7145 257.289 89.2417 255.864 90.9693 253.666C92.6969 251.468 93.4844 248.676 93.1597 245.899C92.7797 242.669 92.4497 239.979 92.4497 239.979C92.4497 239.979 100.59 238.279 100.27 230.069C99.9497 221.859 97.5797 203.069 97.5797 203.069C92.8126 201.301 87.6599 200.836 82.6534 201.724C77.6469 202.612 72.968 204.819 69.0997 208.119L67.9297 209.119L72.1197 248.209C72.2634 249.61 72.6851 250.967 73.3601 252.202C74.0351 253.437 74.9497 254.526 76.0505 255.403C77.1513 256.28 78.416 256.929 79.7707 257.311C81.1254 257.694 82.5427 257.802 83.9397 257.629Z" fill="#B78876"/>
<path d="M92.4496 239.859C88.6651 240.12 84.8886 239.249 81.5996 237.359C81.5996 237.359 84.4296 243.139 92.5996 241.979L92.4496 239.859Z" fill="#AA6550"/>
<path d="M69.3799 217.589C69.2299 217.539 63.6499 216.209 64.1199 221.809C64.5899 227.409 70.1199 225.809 70.1199 225.629C70.1199 225.449 69.3799 217.589 69.3799 217.589Z" fill="#B78876"/>
<path d="M68.2202 223.65C68.2202 223.65 68.1302 223.73 67.9702 223.82C67.7445 223.935 67.4836 223.96 67.2402 223.89C66.8586 223.692 66.5369 223.396 66.3083 223.032C66.0797 222.668 65.9526 222.25 65.9402 221.82C65.8885 221.341 65.9432 220.856 66.1002 220.4C66.1387 220.221 66.2197 220.054 66.3363 219.913C66.4529 219.772 66.6017 219.661 66.7702 219.59C66.8803 219.553 66.9998 219.554 67.1089 219.594C67.2181 219.634 67.3102 219.71 67.3702 219.81C67.4602 219.96 67.4302 220.07 67.4602 220.08C67.4902 220.09 67.5802 219.98 67.4602 219.75C67.4195 219.613 67.3307 219.496 67.2102 219.42C67.1298 219.367 67.0398 219.332 66.9453 219.314C66.8509 219.297 66.7539 219.299 66.6602 219.32C66.4244 219.376 66.2076 219.493 66.0319 219.66C65.8563 219.827 65.728 220.037 65.6602 220.27C65.4659 220.776 65.394 221.321 65.4502 221.86C65.4644 222.361 65.6268 222.847 65.9169 223.257C66.2069 223.666 66.6117 223.98 67.0802 224.16C67.2339 224.195 67.3937 224.194 67.5466 224.155C67.6995 224.117 67.8413 224.043 67.9602 223.94C68.2202 223.79 68.2402 223.66 68.2202 223.65Z" fill="#AA6550"/>
<path d="M95.6898 216.629C95.7041 216.933 95.6011 217.231 95.402 217.462C95.203 217.693 94.923 217.838 94.6198 217.869C94.4712 217.887 94.3205 217.875 94.1765 217.835C94.0325 217.794 93.898 217.725 93.7807 217.632C93.6635 217.539 93.5659 217.424 93.4937 217.293C93.4214 217.161 93.3759 217.017 93.3598 216.869C93.3404 216.563 93.4416 216.262 93.6416 216.03C93.8417 215.798 94.1246 215.654 94.4298 215.629C94.5785 215.609 94.7297 215.62 94.8743 215.66C95.0189 215.7 95.154 215.769 95.2715 215.862C95.389 215.955 95.4866 216.071 95.5585 216.203C95.6303 216.335 95.675 216.479 95.6898 216.629Z" fill="#263238"/>
<path d="M96.6097 214.71C96.4797 214.87 95.5497 214.26 94.2897 214.33C93.0297 214.4 92.1397 215.07 91.9997 214.92C91.8597 214.77 92.0597 214.58 92.4497 214.26C92.9765 213.854 93.6154 213.62 94.2797 213.59C94.9338 213.556 95.5816 213.731 96.1297 214.09C96.5497 214.37 96.6797 214.64 96.6097 214.71Z" fill="#263238"/>
<path d="M83.6797 217.209C83.694 217.514 83.591 217.812 83.3919 218.043C83.1929 218.274 82.9129 218.419 82.6097 218.449C82.4611 218.468 82.3105 218.456 82.1664 218.415C82.0224 218.375 81.8878 218.306 81.7706 218.213C81.6534 218.12 81.5558 218.004 81.4836 217.873C81.4113 217.742 81.3658 217.598 81.3497 217.449C81.3276 217.143 81.4279 216.841 81.6284 216.608C81.829 216.376 82.1135 216.232 82.4197 216.209C82.5682 216.191 82.7189 216.203 82.8629 216.244C83.007 216.284 83.1415 216.353 83.2587 216.446C83.3759 216.539 83.4735 216.654 83.5458 216.786C83.618 216.917 83.6635 217.061 83.6797 217.209Z" fill="#263238"/>
<path d="M84.2301 215.578C84.0901 215.738 83.1701 215.118 81.9101 215.188C80.6501 215.258 79.7501 215.938 79.6101 215.788C79.4701 215.638 79.6701 215.438 80.0601 215.128C80.5856 214.72 81.2252 214.486 81.8901 214.458C82.5478 214.42 83.2004 214.595 83.7501 214.958C84.1501 215.208 84.3001 215.498 84.2301 215.578Z" fill="#263238"/>
<path d="M89.2797 224.699C89.9225 224.452 90.5949 224.291 91.2796 224.219C91.5996 224.169 91.8997 224.089 91.9397 223.869C91.9578 223.535 91.8665 223.205 91.6797 222.929C91.3397 222.159 90.9797 221.359 90.5997 220.519C89.6095 218.489 88.7867 216.382 88.1396 214.219C89.3023 216.164 90.3056 218.201 91.1396 220.309L92.1396 222.729C92.3622 223.109 92.4437 223.555 92.3697 223.989C92.3303 224.104 92.2645 224.208 92.1777 224.293C92.0909 224.378 91.9854 224.442 91.8697 224.479C91.6954 224.539 91.5137 224.576 91.3297 224.589C90.6531 224.707 89.9649 224.744 89.2797 224.699Z" fill="#263238"/>
<path d="M85.6105 225.76C85.8205 225.76 85.8905 227.1 87.1105 228.02C88.3305 228.94 89.7805 228.7 89.8005 228.89C89.8205 229.08 89.4905 229.18 88.8705 229.22C88.07 229.279 87.2752 229.048 86.6305 228.57C86.0107 228.111 85.5917 227.43 85.4605 226.67C85.3805 226.1 85.5505 225.75 85.6105 225.76Z" fill="#263238"/>
<path d="M96.0397 212.509C95.8297 212.809 94.9497 212.559 93.8997 212.599C92.8497 212.639 91.9797 212.889 91.7597 212.599C91.6597 212.459 91.7597 212.159 92.1597 211.869C92.6584 211.512 93.2563 211.319 93.8697 211.319C94.4871 211.293 95.0967 211.464 95.6097 211.809C95.9897 212.079 96.1297 212.369 96.0397 212.509Z" fill="#263238"/>
<path d="M82.3602 211.099C82.2202 211.259 81.9002 211.219 81.4702 211.149C80.951 211.066 80.4259 211.026 79.9002 211.029C79.376 211.044 78.8541 211.104 78.3402 211.209C77.9202 211.289 77.6002 211.339 77.4602 211.209C77.3202 211.079 77.4602 210.699 77.8502 210.309C78.4115 209.84 79.1189 209.582 79.8502 209.579C80.5724 209.566 81.2775 209.799 81.8502 210.239C82.3702 210.589 82.4802 210.949 82.3602 211.099Z" fill="#263238"/>
<path d="M98.1203 205.588C94.2211 206.859 90.0194 206.859 86.1203 205.588C81.7903 204.188 76.9503 203.918 76.0303 204.888C75.1103 205.858 75.5403 210.038 71.7303 211.888C71.7303 211.888 73.2203 219.768 70.0203 219.968C66.8203 220.168 66.9203 207.598 66.9203 207.598L74.0703 202.648L82.2503 199.778L90.1403 198.568L97.8303 199.708L98.1203 205.588Z" fill="#263238"/>
<path d="M110.17 256.74L134.81 279.8L173.81 253.18L185.99 267.18L148.53 297.18C144.772 300.531 139.971 302.481 134.94 302.7C131.539 302.847 128.15 302.195 125.045 300.797C121.94 299.4 119.205 297.294 117.06 294.65L103.86 283.51L110.17 256.74Z" fill="#C80000"/>
<path d="M87.2805 246.83L110.17 256.74L109.41 263.08L120.06 305.32L131.64 313.77L122.05 327.86C119.891 331.02 117.069 333.671 113.78 335.63L90.9504 349.21C88.8079 349.992 86.4485 349.931 84.349 349.04C82.2495 348.149 80.5666 346.494 79.6405 344.41L59.4505 298.6L39.1605 361.53C38.5251 363.504 37.2116 365.189 35.4527 366.287C33.6937 367.386 31.6029 367.826 29.5505 367.53L21.5505 366.36C20.906 366.265 20.2887 366.036 19.7384 365.688C19.1881 365.34 18.7172 364.879 18.3561 364.337C17.995 363.795 17.7519 363.183 17.6424 362.541C17.5329 361.899 17.5595 361.241 17.7205 360.61L40.4105 272.39C41.6044 267.808 43.5508 263.455 46.1705 259.51C48.6095 255.872 51.8859 252.873 55.7246 250.764C59.5632 248.655 63.8519 247.498 68.2305 247.39L87.2805 246.83Z" fill="#C80000"/>
<path d="M95.3004 247.49L94.4504 242.9L70.1904 241.27V247.37C70.3604 249.11 73.1904 248.59 75.8304 249.68L87.7104 252.05C90.6104 252.28 96.7904 251.21 95.3004 247.49Z" fill="#C80000"/>
<path d="M120.3 305.52C120.048 305.001 119.838 304.462 119.67 303.91C119.3 302.91 118.79 301.35 118.18 299.45C116.97 295.67 115.41 290.45 113.91 284.55C112.41 278.65 111.23 273.31 110.47 269.42C110.09 267.47 109.81 265.89 109.63 264.79C109.505 264.228 109.432 263.656 109.41 263.08C109.589 263.626 109.73 264.184 109.83 264.75C110.09 265.92 110.43 267.47 110.83 269.34C111.68 273.22 112.91 278.56 114.41 284.42C115.91 290.28 117.41 295.54 118.54 299.35C119.08 301.19 119.54 302.7 119.87 303.85C120.054 304.395 120.198 304.954 120.3 305.52Z" fill="#263238"/>
<path d="M66.7797 277.729C66.5312 278.804 66.1968 279.857 65.7797 280.879C65.0597 282.939 64.1597 285.529 63.1597 288.379C62.1597 291.229 61.2596 293.819 60.5396 295.879C60.2247 296.933 59.8406 297.965 59.3896 298.969C59.5556 297.879 59.8235 296.808 60.1897 295.769C60.7697 293.769 61.6397 291.139 62.6697 288.209C63.6997 285.279 64.6696 282.649 65.4296 280.749C65.7936 279.706 66.2452 278.695 66.7797 277.729Z" fill="#263238"/>
<g opacity="0.2">
<path d="M59.3701 298.699C61.3235 303.119 63.2668 307.539 65.2001 311.959C65.4712 312.689 65.8671 313.365 66.3701 313.959C66.6268 314.257 66.9551 314.486 67.3243 314.622C67.6934 314.758 68.0911 314.799 68.4801 314.739C69.9201 314.409 70.2801 312.559 70.3301 311.089C70.6701 301.419 70.3301 291.519 66.9601 282.439C66.7201 281.779 66.2701 280.999 65.5701 281.089C64.8701 281.179 64.6501 281.889 64.4801 282.489L59.7401 299.489" fill="black"/>
</g>
<g opacity="0.2">
<path d="M122.32 299.608C122.707 299.368 123.022 299.027 123.231 298.622C123.441 298.217 123.537 297.763 123.51 297.308C123.44 296.4 123.196 295.514 122.79 294.698C120.141 288.517 116.578 282.77 112.22 277.648L117.01 294.648L122.32 299.608Z" fill="black"/>
</g>
<path d="M46.6195 291.99C46.5595 291.99 46.7995 286.21 47.1595 279.08C47.5195 271.95 47.8395 266.18 47.8995 266.18C47.9595 266.18 47.7195 271.97 47.3695 279.09C47.0195 286.21 46.6795 292 46.6195 291.99Z" fill="#E0E0E0"/>
<path d="M51.1197 271.949C51.1664 272.101 51.1867 272.26 51.1796 272.419C51.2042 272.856 51.2042 273.293 51.1796 273.729C51.0238 276.634 50.0267 279.431 48.3097 281.779C48.0537 282.129 47.7765 282.463 47.4797 282.779C47.3783 282.901 47.2643 283.012 47.1396 283.109C47.1396 283.109 47.5696 282.579 48.1396 281.679C49.766 279.304 50.748 276.548 50.9897 273.679C51.1197 272.629 51.0897 271.949 51.1197 271.949Z" fill="#E0E0E0"/>
<path d="M42.9399 272.75C42.9399 272.75 43.0299 273.35 43.2099 274.29C43.459 275.524 43.8412 276.728 44.3499 277.88C44.8664 279.022 45.5105 280.103 46.2699 281.1C46.8599 281.87 47.2699 282.3 47.2699 282.33C47.1527 282.249 47.0453 282.156 46.9499 282.05C46.6764 281.779 46.4193 281.492 46.1799 281.19C45.3746 280.206 44.7021 279.12 44.1799 277.96C43.6558 276.801 43.2892 275.577 43.0899 274.32C43.0234 273.943 42.98 273.562 42.9599 273.18C42.9401 273.038 42.9334 272.894 42.9399 272.75Z" fill="#E0E0E0"/>
<path d="M50.0904 268.529C50.1056 268.656 50.1056 268.783 50.0904 268.909C50.1112 269.242 50.1112 269.576 50.0904 269.909C49.9918 271.028 49.7773 272.134 49.4504 273.209C49.1284 274.292 48.6927 275.338 48.1504 276.329C47.9947 276.633 47.8211 276.927 47.6304 277.209C47.5669 277.319 47.4896 277.42 47.4004 277.509C47.4004 277.509 47.6404 277.029 48.0204 276.259C48.512 275.277 48.9234 274.257 49.2504 273.209C49.5615 272.135 49.7889 271.039 49.9304 269.929C49.9589 269.46 50.0123 268.993 50.0904 268.529Z" fill="#E0E0E0"/>
<path d="M44.81 269.209C44.81 269.209 44.81 269.819 44.81 270.809C44.8407 272.089 45.0015 273.362 45.29 274.609C45.5897 275.848 46.0118 277.054 46.55 278.209C46.97 279.099 47.28 279.629 47.25 279.649C47.1566 279.54 47.0729 279.423 47 279.299C46.85 279.059 46.65 278.719 46.42 278.299C45.8397 277.141 45.3967 275.92 45.1 274.659C44.8094 273.4 44.6651 272.111 44.67 270.819C44.6711 270.428 44.6945 270.037 44.74 269.649C44.7397 269.5 44.7634 269.351 44.81 269.209Z" fill="#E0E0E0"/>
<path d="M46.4802 267.318C46.4802 267.318 46.3902 267.678 46.3202 268.258C46.242 269.01 46.2825 269.769 46.4402 270.508C46.8502 272.238 47.4402 273.578 47.4402 273.608C47.2696 273.336 47.1256 273.048 47.0102 272.748C46.6948 272.041 46.4503 271.304 46.2802 270.548C46.1078 269.787 46.0874 268.998 46.2202 268.228C46.2445 267.911 46.333 267.601 46.4802 267.318Z" fill="#E0E0E0"/>
<path d="M43.4004 280.43C43.4604 280.43 44.0404 281.52 45.0004 282.72C45.9604 283.92 46.9204 284.72 46.8804 284.8C46.6343 284.67 46.4086 284.505 46.2104 284.31C45.2199 283.419 44.3821 282.372 43.7304 281.21C43.5824 280.967 43.4712 280.705 43.4004 280.43Z" fill="#E0E0E0"/>
<path d="M51.22 281.76C51.0847 282.041 50.9132 282.303 50.71 282.54C50.2544 283.142 49.7635 283.716 49.24 284.26C48.7111 284.803 48.1465 285.311 47.55 285.78C47.3178 285.988 47.0629 286.169 46.79 286.32C46.9884 286.079 47.2131 285.861 47.46 285.67C47.88 285.28 48.46 284.74 49.07 284.11C49.68 283.48 50.2 282.89 50.58 282.45C50.7702 282.199 50.9845 281.968 51.22 281.76Z" fill="#E0E0E0"/>
<path d="M29.64 356.64C29.58 356.64 29.82 350.86 30.18 343.73C30.54 336.6 30.8601 330.83 30.9201 330.83C30.9801 330.83 30.7401 336.61 30.3801 343.74C30.0201 350.87 29.7 356.64 29.64 356.64Z" fill="#E0E0E0"/>
<path d="M34.1396 336.59C34.1602 336.749 34.1602 336.91 34.1396 337.07C34.1702 337.506 34.1702 337.944 34.1396 338.38C33.9838 341.285 32.9866 344.082 31.2696 346.43C31.0144 346.78 30.7372 347.114 30.4396 347.43C30.3397 347.556 30.2256 347.67 30.0996 347.77C30.0996 347.77 30.5296 347.24 31.1496 346.33C31.9568 345.152 32.6088 343.875 33.0896 342.53C33.5678 341.184 33.8736 339.783 33.9996 338.36C34.1396 337.28 34.0996 336.59 34.1396 336.59Z" fill="#E0E0E0"/>
<path d="M25.9604 337.398C25.9604 337.398 26.0504 337.988 26.2304 338.938C26.717 341.412 27.7637 343.742 29.2904 345.748C29.8804 346.518 30.2904 346.948 30.2904 346.968C30.1708 346.891 30.063 346.797 29.9704 346.688C29.694 346.424 29.4367 346.14 29.2004 345.838C27.5815 343.862 26.5153 341.491 26.1104 338.968C26.0438 338.588 26.0004 338.204 25.9804 337.818C25.9607 337.679 25.954 337.539 25.9604 337.398Z" fill="#E0E0E0"/>
<path d="M33.0997 333.209C33.0997 333.209 33.0997 333.339 33.0997 333.579C33.0997 333.819 33.0997 334.169 33.0997 334.579C32.9195 336.837 32.2653 339.031 31.1797 341.019C30.9697 341.399 30.7897 341.699 30.6597 341.899C30.5927 342.006 30.5157 342.106 30.4297 342.199C30.4297 342.199 30.6697 341.719 31.0497 340.949C31.542 339.947 31.9533 338.907 32.2797 337.839C32.5938 336.77 32.8179 335.676 32.9497 334.569C33.0497 333.709 33.0697 333.209 33.0997 333.209Z" fill="#E0E0E0"/>
<path d="M27.8304 333.869C27.8304 333.869 27.8304 334.479 27.8304 335.459C27.8604 336.739 28.0213 338.012 28.3104 339.259C28.6025 340.507 29.0179 341.723 29.5504 342.889C29.9704 343.779 30.2804 344.299 30.2504 344.319C30.2204 344.339 30.1504 344.209 30.0004 343.969C29.7851 343.649 29.5914 343.315 29.4204 342.969C28.8357 341.813 28.3925 340.591 28.1004 339.329C27.8052 338.067 27.6609 336.775 27.6704 335.479C27.6721 335.088 27.6955 334.698 27.7404 334.309C27.746 334.159 27.7764 334.01 27.8304 333.869Z" fill="#E0E0E0"/>
<path d="M29.55 331.969C29.55 331.969 29.46 332.319 29.39 332.899C29.3072 333.654 29.3477 334.417 29.51 335.159C29.91 336.889 30.51 338.219 30.51 338.249C30.3328 337.984 30.1884 337.698 30.08 337.399C29.7663 336.691 29.5218 335.954 29.35 335.199C29.1801 334.437 29.1564 333.65 29.28 332.879C29.3046 332.56 29.3966 332.25 29.55 331.969Z" fill="#E0E0E0"/>
<path d="M26.4199 345.068C26.4699 345.068 27.0599 346.158 28.0199 347.368C28.9799 348.578 29.9399 349.368 29.8999 349.448C29.6524 349.317 29.4265 349.148 29.2299 348.948C28.7328 348.505 28.2745 348.02 27.8599 347.498C27.4403 346.976 27.0688 346.417 26.7499 345.828C26.5967 345.596 26.485 345.339 26.4199 345.068Z" fill="#E0E0E0"/>
<path d="M34.24 346.398C34.1017 346.681 33.9305 346.946 33.73 347.188C33.2735 347.786 32.7827 348.357 32.26 348.898C31.7271 349.448 31.1556 349.96 30.55 350.428C30.3231 350.64 30.0672 350.819 29.79 350.958C29.9905 350.722 30.2151 350.508 30.46 350.318C30.88 349.928 31.46 349.388 32.07 348.758C32.68 348.128 33.2 347.528 33.57 347.098C33.7698 346.844 33.9942 346.609 34.24 346.398Z" fill="#E0E0E0"/>
<path d="M66.6401 273.708C66.5801 273.708 66.8201 267.928 67.1701 260.798C67.5201 253.668 67.8601 247.898 67.9201 247.898C67.9801 247.898 67.7301 253.678 67.3801 260.808C67.0301 267.938 66.7001 273.708 66.6401 273.708Z" fill="#E0E0E0"/>
<path d="M71.1396 253.66C71.1539 253.82 71.1539 253.98 71.1396 254.14C71.1702 254.576 71.1702 255.014 71.1396 255.45C70.9838 258.355 69.9866 261.152 68.2696 263.5C68.0114 263.848 67.7343 264.182 67.4396 264.5C67.3397 264.626 67.2256 264.74 67.0996 264.84C67.0996 264.84 67.5296 264.31 68.1496 263.4C69.7782 261.027 70.7573 258.269 70.9896 255.4C71.1296 254.34 71.0996 253.66 71.1396 253.66Z" fill="#E0E0E0"/>
<path d="M62.96 254.469C62.96 254.469 63.04 255.059 63.23 256.009C63.4691 257.241 63.8482 258.442 64.36 259.589C64.8819 260.734 65.5292 261.817 66.29 262.819C66.88 263.579 67.29 264.019 67.29 264.039C67.1751 263.959 67.0709 263.865 66.98 263.759C66.705 263.49 66.4446 263.206 66.2 262.909C65.3948 261.924 64.7224 260.838 64.2 259.679C63.6792 258.517 63.3095 257.294 63.1 256.039C63.03 255.549 62.99 255.159 62.98 254.889C62.9474 254.751 62.9406 254.609 62.96 254.469Z" fill="#E0E0E0"/>
<path d="M70.1 250.209C70.1 250.209 70.1 250.339 70.1 250.579C70.1 250.819 70.1 251.169 70.1 251.579C70.0038 252.704 69.7927 253.817 69.47 254.899C69.1537 255.982 68.7212 257.029 68.18 258.019C67.97 258.399 67.79 258.699 67.65 258.899C67.51 259.099 67.44 259.199 67.43 259.189C67.42 259.179 67.67 258.719 68.05 257.949C68.5427 256.948 68.9508 255.908 69.27 254.839C69.5915 253.771 69.819 252.677 69.95 251.569C70.05 250.779 70.07 250.209 70.1 250.209Z" fill="#E0E0E0"/>
<path d="M64.8199 250.93C64.8199 250.93 64.8199 251.55 64.8199 252.53C64.8506 253.809 65.0114 255.083 65.2999 256.33C65.5906 257.576 66.0095 258.789 66.5499 259.95C66.9599 260.85 67.2799 261.37 67.2399 261.39C67.1434 261.283 67.0595 261.166 66.9899 261.04C66.7823 260.717 66.592 260.383 66.4199 260.04C65.831 258.886 65.3876 257.663 65.0999 256.4C64.7998 255.139 64.6554 253.846 64.6699 252.55C64.6699 252.06 64.6699 251.66 64.7299 251.38C64.749 251.228 64.779 251.077 64.8199 250.93Z" fill="#E0E0E0"/>
<path d="M66.55 249.039C66.55 249.039 66.46 249.389 66.39 249.969C66.3072 250.724 66.3477 251.487 66.51 252.229C66.91 253.959 67.51 255.289 67.51 255.319C67.3281 255.057 67.1834 254.771 67.08 254.469C66.7632 253.762 66.5186 253.025 66.35 252.269C66.1801 251.507 66.1564 250.72 66.28 249.949C66.3046 249.63 66.3966 249.32 66.55 249.039Z" fill="#E0E0E0"/>
<path d="M63.4199 262.139C63.4199 262.139 64.0499 263.229 65.0199 264.439C65.9899 265.649 66.9399 266.439 66.8999 266.519C66.6524 266.387 66.4265 266.219 66.2299 266.019C65.2316 265.127 64.3929 264.072 63.7499 262.899C63.5984 262.665 63.4869 262.409 63.4199 262.139Z" fill="#E0E0E0"/>
<path d="M71.2403 263.469C71.102 263.751 70.9308 264.016 70.7303 264.259C70.2738 264.857 69.783 265.428 69.2603 265.969C68.7355 266.512 68.1777 267.023 67.5903 267.499C67.3597 267.711 67.1005 267.889 66.8203 268.029C67.0274 267.792 67.255 267.575 67.5003 267.379C67.9203 266.999 68.5003 266.459 69.1103 265.829C69.7203 265.199 70.2403 264.599 70.6103 264.159C70.7955 263.907 71.0067 263.676 71.2403 263.469Z" fill="#E0E0E0"/>
<path d="M88.3197 269.07C88.2597 269.07 88.4998 263.28 88.8498 256.16C89.1998 249.04 89.5398 243.26 89.5898 243.26C89.6398 243.26 89.4098 249.04 89.0598 256.17C88.7098 263.3 88.3697 269.07 88.3197 269.07Z" fill="#E0E0E0"/>
<path d="M92.8202 249.02C92.8344 249.179 92.8344 249.34 92.8202 249.5C92.8202 249.81 92.8202 250.26 92.8202 250.81C92.6404 253.694 91.6451 256.468 89.9502 258.81C89.6919 259.158 89.4148 259.492 89.1202 259.81C88.9102 260.04 88.7902 260.16 88.7702 260.15C88.7502 260.14 89.2002 259.62 89.8302 258.71C91.4588 256.336 92.4379 253.578 92.6702 250.71C92.8102 249.7 92.7802 249.02 92.8202 249.02Z" fill="#E0E0E0"/>
<path d="M84.6401 249.83C84.6401 249.83 84.7201 250.42 84.9101 251.37C85.1491 252.603 85.5283 253.804 86.0401 254.95C86.5619 256.095 87.2092 257.178 87.9701 258.18C88.5501 258.94 88.9701 259.38 88.9701 259.4C88.8528 259.32 88.7454 259.226 88.6501 259.12C88.4601 258.93 88.1901 258.64 87.8801 258.27C87.0804 257.282 86.4085 256.196 85.8801 255.04C85.3618 253.879 84.9955 252.655 84.7901 251.4C84.7201 250.91 84.6701 250.52 84.6601 250.25C84.6297 250.112 84.623 249.97 84.6401 249.83Z" fill="#E0E0E0"/>
<path d="M91.7797 245.61C91.7922 245.733 91.7922 245.856 91.7797 245.98C91.7797 246.22 91.7797 246.57 91.7797 246.98C91.6835 248.105 91.4724 249.217 91.1497 250.3C90.8247 251.38 90.3926 252.425 89.8597 253.42C89.7002 253.72 89.5232 254.01 89.3297 254.29C89.1997 254.5 89.1197 254.6 89.0997 254.59C89.0797 254.58 89.3497 254.12 89.7297 253.35C90.7183 251.345 91.3608 249.188 91.6297 246.97C91.7197 246.14 91.7497 245.6 91.7797 245.61Z" fill="#E0E0E0"/>
<path d="M86.5501 246.289C86.5501 246.289 86.5501 246.909 86.5501 247.889C86.5897 249.169 86.7538 250.441 87.0401 251.689C87.3307 252.936 87.7496 254.149 88.2901 255.309C88.7001 256.209 89.0101 256.729 88.9801 256.749C88.8835 256.642 88.7996 256.525 88.7301 256.399C88.5801 256.169 88.3801 255.819 88.1501 255.399C87.5698 254.241 87.1268 253.02 86.8301 251.759C86.5375 250.497 86.3965 249.205 86.4101 247.909C86.4093 247.518 86.4293 247.128 86.4701 246.739C86.4788 246.586 86.5057 246.435 86.5501 246.289Z" fill="#E0E0E0"/>
<path d="M88.1804 244.398C88.1804 244.398 88.0904 244.748 88.0104 245.328C87.9308 246.084 87.9747 246.847 88.1404 247.588C88.5404 249.318 89.1404 250.648 89.1404 250.678C88.9679 250.411 88.8238 250.126 88.7104 249.828C88.3981 249.12 88.1536 248.383 87.9804 247.628C87.808 246.867 87.7876 246.078 87.9204 245.308C87.9418 244.99 88.0305 244.68 88.1804 244.398Z" fill="#E0E0E0"/>
<path d="M85.0898 257.5C85.1498 257.5 85.7298 258.59 86.6998 259.8C87.6698 261.01 88.6098 261.8 88.5698 261.88C88.3266 261.746 88.1042 261.578 87.9098 261.38C87.4091 260.937 86.9474 260.452 86.5298 259.93C86.1187 259.404 85.7508 258.845 85.4298 258.26C85.2785 258.025 85.1638 257.769 85.0898 257.5Z" fill="#E0E0E0"/>
<path d="M92.91 258.83C92.7813 259.118 92.6093 259.384 92.4 259.62C91.9503 260.221 91.4627 260.792 90.94 261.33C90.4151 261.874 89.8574 262.385 89.27 262.86C89.0394 263.072 88.7802 263.25 88.5 263.39C88.7049 263.155 88.929 262.938 89.17 262.74C89.6 262.36 90.17 261.82 90.79 261.19C91.41 260.56 91.92 259.96 92.29 259.52C92.4773 259.273 92.6846 259.043 92.91 258.83Z" fill="#E0E0E0"/>
<path d="M97.2299 289.31C97.1699 289.31 97.4099 283.52 97.7599 276.4C98.1099 269.28 98.4499 263.5 98.5099 263.5C98.5699 263.5 98.3299 269.28 97.9699 276.41C97.6099 283.54 97.2899 289.31 97.2299 289.31Z" fill="#E0E0E0"/>
<path d="M101.73 269.26C101.751 269.419 101.751 269.58 101.73 269.74C101.761 270.176 101.761 270.614 101.73 271.05C101.575 273.955 100.577 276.752 98.8604 279.1C98.6022 279.448 98.3251 279.782 98.0304 280.1C97.9306 280.226 97.8165 280.34 97.6904 280.44C97.6904 280.44 98.1204 279.91 98.7404 279C100.369 276.627 101.348 273.869 101.58 271C101.73 269.94 101.69 269.26 101.73 269.26Z" fill="#E0E0E0"/>
<path d="M93.5503 270.068C93.5503 270.068 93.6303 270.658 93.8203 271.608C94.0584 272.842 94.4411 274.044 94.9603 275.188C95.4756 276.334 96.1197 277.418 96.8803 278.418C97.4703 279.178 97.8803 279.618 97.8803 279.638C97.7608 279.561 97.653 279.467 97.5603 279.358C97.3603 279.168 97.1003 278.878 96.7803 278.508C95.9751 277.524 95.3027 276.438 94.7803 275.278C94.2595 274.117 93.8898 272.894 93.6803 271.638C93.6103 271.148 93.5703 270.758 93.5603 270.488C93.544 270.349 93.5406 270.208 93.5503 270.068Z" fill="#E0E0E0"/>
<path d="M100.69 265.85C100.69 265.85 100.69 265.98 100.69 266.22C100.69 266.46 100.69 266.81 100.69 267.22C100.593 268.344 100.385 269.456 100.07 270.54C99.7463 271.622 99.3106 272.668 98.7698 273.66C98.5598 274.04 98.3798 274.34 98.2498 274.53C98.1198 274.72 98.0298 274.84 98.0198 274.83C98.0098 274.82 98.2598 274.36 98.6398 273.59C99.1321 272.588 99.5434 271.548 99.8698 270.48C100.187 269.411 100.415 268.317 100.55 267.21C100.64 266.38 100.66 265.84 100.69 265.85Z" fill="#E0E0E0"/>
<path d="M95.4098 266.529C95.4098 266.529 95.4098 267.149 95.4098 268.129C95.4404 269.409 95.6012 270.682 95.8898 271.929C96.1849 273.175 96.6037 274.387 97.1398 275.549C97.5598 276.449 97.8698 276.969 97.8398 276.989C97.8098 277.009 97.7298 276.869 97.5898 276.639C97.3746 276.319 97.1808 275.985 97.0098 275.639C96.4251 274.483 95.9819 273.261 95.6898 271.999C95.3897 270.738 95.2453 269.445 95.2598 268.149C95.2615 267.758 95.2849 267.368 95.3298 266.979C95.3429 266.827 95.3697 266.677 95.4098 266.529Z" fill="#E0E0E0"/>
<path d="M97.0901 264.639C97.0901 264.639 97.0001 264.989 96.9301 265.569C96.8472 266.324 96.8877 267.087 97.0501 267.829C97.4501 269.559 98.0501 270.889 98.0501 270.919C97.8728 270.654 97.7284 270.368 97.6201 270.069C97.3078 269.36 97.0633 268.623 96.8901 267.869C96.7202 267.107 96.6964 266.319 96.8201 265.549C96.8446 265.23 96.9367 264.919 97.0901 264.639Z" fill="#E0E0E0"/>
<path d="M94.0098 277.738C94.0098 277.738 94.6398 278.828 95.6098 280.038C96.5798 281.248 97.5298 282.038 97.4898 282.118C97.2423 281.987 97.0163 281.818 96.8198 281.618C96.3267 281.185 95.8686 280.714 95.4498 280.208C95.0324 279.685 94.661 279.126 94.3398 278.538C94.1841 278.293 94.0724 278.022 94.0098 277.738Z" fill="#E0E0E0"/>
<path d="M101.83 279.068C101.692 279.351 101.521 279.616 101.32 279.858C100.864 280.456 100.373 281.027 99.8502 281.568C99.3253 282.112 98.7676 282.623 98.1802 283.098C97.9495 283.31 97.6903 283.489 97.4102 283.628C97.6205 283.395 97.8478 283.178 98.0901 282.978C98.5101 282.598 99.0901 282.058 99.7001 281.428C100.31 280.798 100.83 280.198 101.2 279.758C101.389 279.51 101.6 279.279 101.83 279.068Z" fill="#E0E0E0"/>
<path d="M128.16 297.33C128.1 297.33 126.27 291.86 124.07 285.07C121.87 278.28 120.13 272.77 120.18 272.75C120.23 272.73 122.06 278.22 124.27 285.01C126.48 291.8 128.21 297.31 128.16 297.33Z" fill="#E0E0E0"/>
<path d="M125.24 276.988C125.327 277.124 125.401 277.268 125.46 277.418C125.635 277.816 125.789 278.223 125.92 278.638C126.36 280.017 126.599 281.452 126.63 282.898C126.657 284.346 126.478 285.791 126.1 287.188C125.986 287.609 125.849 288.023 125.69 288.428C125.635 288.58 125.568 288.727 125.49 288.868C125.49 288.868 125.7 288.218 125.96 287.148C126.29 285.76 126.445 284.335 126.42 282.908C126.388 281.48 126.173 280.062 125.78 278.688C125.48 277.628 125.21 276.998 125.24 276.988Z" fill="#E0E0E0"/>
<path d="M117.88 280.648C117.88 280.648 118.17 281.178 118.68 281.998C119.348 283.063 120.133 284.049 121.02 284.938C121.907 285.826 122.893 286.608 123.96 287.268C124.78 287.778 125.32 288.038 125.31 288.068C125.171 288.035 125.036 287.985 124.91 287.918C124.566 287.766 124.232 287.592 123.91 287.398C122.815 286.761 121.806 285.984 120.91 285.088C120.008 284.195 119.228 283.186 118.59 282.088C118.4 281.764 118.226 281.43 118.07 281.088C117.986 280.951 117.922 280.803 117.88 280.648Z" fill="#E0E0E0"/>
<path d="M123.06 274.209C123.131 274.313 123.185 274.428 123.22 274.549C123.344 274.876 123.451 275.21 123.54 275.549C123.857 276.631 124.058 277.744 124.14 278.869C124.22 279.993 124.187 281.122 124.04 282.239C123.98 282.669 123.91 283.019 123.86 283.239C123.838 283.363 123.801 283.484 123.75 283.599C123.75 283.599 123.81 283.069 123.89 282.219C123.979 281.104 123.979 279.984 123.89 278.869C123.805 277.759 123.628 276.659 123.36 275.579C123.19 274.679 123.03 274.209 123.06 274.209Z" fill="#E0E0E0"/>
<path d="M118.37 276.689C118.37 276.689 118.58 277.259 118.95 278.169C119.913 280.554 121.364 282.71 123.21 284.499C123.91 285.179 124.39 285.559 124.37 285.589C124.239 285.528 124.118 285.447 124.01 285.349C123.691 285.119 123.387 284.869 123.1 284.599C121.188 282.844 119.718 280.661 118.81 278.229C118.64 277.759 118.52 277.379 118.45 277.109C118.405 276.973 118.379 276.832 118.37 276.689Z" fill="#E0E0E0"/>
<path d="M119.26 274.318C119.26 274.318 119.26 274.678 119.44 275.248C119.633 275.98 119.944 276.676 120.36 277.308C121.36 278.788 122.42 279.808 122.36 279.858C122.101 279.675 121.866 279.46 121.66 279.218C121.114 278.666 120.622 278.063 120.19 277.418C119.761 276.769 119.462 276.042 119.31 275.278C119.226 274.965 119.209 274.638 119.26 274.318Z" fill="#E0E0E0"/>
<path d="M121.04 287.658C121.04 287.608 122.04 288.448 123.35 289.238C124.66 290.028 125.86 290.448 125.84 290.508C125.566 290.482 125.298 290.408 125.05 290.288C124.423 290.05 123.818 289.759 123.24 289.418C122.665 289.079 122.123 288.687 121.62 288.248C121.394 288.086 121.198 287.887 121.04 287.658Z" fill="#E0E0E0"/>
<path d="M128.82 286.129C128.789 286.439 128.721 286.744 128.62 287.039C128.411 287.764 128.157 288.475 127.86 289.169C127.572 289.857 127.238 290.525 126.86 291.169C126.721 291.453 126.543 291.715 126.33 291.949C126.44 291.655 126.574 291.371 126.73 291.099C126.99 290.589 127.34 289.879 127.73 289.099C128.12 288.319 128.35 287.559 128.54 287.019C128.6 286.713 128.694 286.414 128.82 286.129Z" fill="#E0E0E0"/>
<path d="M161.19 269.069C161.19 269.069 157.61 273.619 153.11 279.149C148.61 284.679 144.91 289.149 144.87 289.149C144.83 289.149 148.44 284.599 152.95 279.059C157.46 273.519 161.14 269.039 161.19 269.069Z" fill="#E0E0E0"/>
<path d="M145.68 282.55C145.751 282.409 145.831 282.272 145.92 282.14C146.161 281.774 146.422 281.42 146.7 281.08C148.554 278.842 151.011 277.183 153.78 276.3C154.196 276.169 154.62 276.062 155.05 275.98C155.206 275.935 155.367 275.911 155.53 275.91C155.53 275.91 154.87 276.08 153.83 276.44C152.482 276.917 151.199 277.558 150.01 278.35C148.828 279.155 147.753 280.106 146.81 281.18C146.09 282.01 145.72 282.58 145.68 282.55Z" fill="#E0E0E0"/>
<path d="M152.75 286.748C152.75 286.748 153.04 286.218 153.45 285.348C153.981 284.21 154.384 283.016 154.65 281.788C154.915 280.56 155.039 279.305 155.02 278.048C155.02 277.048 154.92 276.488 154.96 276.488C155.002 276.622 155.032 276.759 155.05 276.898C155.107 277.279 155.144 277.663 155.16 278.048C155.227 279.319 155.126 280.594 154.86 281.838C154.578 283.08 154.138 284.279 153.55 285.408C153.383 285.756 153.189 286.09 152.97 286.408C152.912 286.531 152.838 286.645 152.75 286.748Z" fill="#E0E0E0"/>
<path d="M144.55 285.92C144.55 285.92 144.61 285.8 144.75 285.6C144.949 285.322 145.162 285.055 145.39 284.8C146.13 283.952 146.954 283.182 147.85 282.5C148.75 281.821 149.718 281.238 150.74 280.76C151.065 280.606 151.399 280.473 151.74 280.36C151.855 280.309 151.976 280.272 152.1 280.25C152.1 280.25 151.62 280.49 150.86 280.89C149.867 281.401 148.92 281.997 148.03 282.67C147.143 283.347 146.31 284.092 145.54 284.9C144.86 285.53 144.55 285.94 144.55 285.92Z" fill="#E0E0E0"/>
<path d="M149.16 288.489C149.16 288.489 149.53 287.999 150.09 287.199C150.823 286.147 151.449 285.025 151.96 283.849C152.462 282.671 152.841 281.445 153.09 280.189C153.29 279.189 153.35 278.619 153.39 278.619C153.406 278.762 153.406 278.906 153.39 279.049C153.366 279.442 153.319 279.832 153.25 280.219C153.032 281.494 152.666 282.739 152.16 283.929C151.649 285.122 150.998 286.25 150.22 287.289C149.92 287.679 149.66 287.989 149.47 288.189C149.38 288.302 149.276 288.403 149.16 288.489Z" fill="#E0E0E0"/>
<path d="M146.68 289.03C146.68 289.03 146.97 288.8 147.37 288.37C147.881 287.812 148.297 287.174 148.6 286.48C149.31 284.85 149.6 283.4 149.67 283.42C149.653 283.758 149.6 284.094 149.51 284.42C149.341 285.175 149.1 285.912 148.79 286.62C148.477 287.336 148.029 287.985 147.47 288.53C147.244 288.749 146.975 288.92 146.68 289.03Z" fill="#E0E0E0"/>
<path d="M156.93 280.299C156.87 280.299 157.06 279.039 157 277.499C156.94 275.959 156.66 274.729 156.72 274.709C156.84 274.962 156.921 275.232 156.96 275.509C157.102 276.167 157.186 276.836 157.21 277.509C157.234 278.177 157.201 278.846 157.11 279.509C157.093 279.78 157.032 280.047 156.93 280.299Z" fill="#E0E0E0"/>
<path d="M151.42 274.589C151.696 274.445 151.988 274.334 152.29 274.259C153.012 274.045 153.747 273.875 154.49 273.749C155.235 273.625 155.986 273.545 156.74 273.509C157.052 273.476 157.367 273.476 157.68 273.509C157.375 273.583 157.063 273.627 156.75 273.639C156.18 273.699 155.39 273.789 154.53 273.939C153.67 274.089 152.89 274.249 152.33 274.389C152.034 274.487 151.729 274.554 151.42 274.589Z" fill="#E0E0E0"/>
<path d="M94.0105 339.799C93.9505 339.799 93.7605 334.019 93.5705 326.889C93.3805 319.759 93.2905 313.969 93.3505 313.969C93.4105 313.969 93.6004 319.749 93.7804 326.879C93.9604 334.009 94.0705 339.799 94.0105 339.799Z" fill="#E0E0E0"/>
<path d="M96.9896 319.469C97.0431 319.623 97.0734 319.785 97.0796 319.949C97.1379 320.38 97.1713 320.814 97.1796 321.249C97.2313 324.155 96.4469 327.015 94.9196 329.489C94.6196 329.959 94.3596 330.329 94.1696 330.569C94.0786 330.702 93.9711 330.823 93.8496 330.929C93.8496 330.929 94.2396 330.369 94.7896 329.419C95.5093 328.183 96.0641 326.858 96.4396 325.479C96.8133 324.099 97.0115 322.678 97.0296 321.249C97.0396 320.209 96.9496 319.479 96.9896 319.469Z" fill="#E0E0E0"/>
<path d="M88.8899 320.889C88.8899 320.889 89.0199 321.479 89.2799 322.409C89.6139 323.621 90.0835 324.792 90.6799 325.899C91.2859 326.998 92.0102 328.027 92.8399 328.969C93.4899 329.689 93.9299 330.089 93.9099 330.119C93.7855 330.048 93.6711 329.96 93.5699 329.859C93.2768 329.613 92.9995 329.349 92.7399 329.069C91.8621 328.148 91.109 327.116 90.4999 325.999C89.8951 324.879 89.4379 323.686 89.1399 322.449C89.0487 322.073 88.9786 321.692 88.9299 321.309C88.9009 321.171 88.8875 321.03 88.8899 320.889Z" fill="#E0E0E0"/>
<path d="M95.6999 316.148C95.738 316.268 95.7582 316.393 95.7599 316.518C95.7599 316.758 95.7599 317.108 95.7599 317.518C95.7526 318.648 95.6286 319.774 95.3899 320.878C95.1509 321.98 94.7956 323.052 94.3299 324.078C94.1499 324.468 93.9999 324.788 93.8799 324.998C93.828 325.113 93.757 325.218 93.6699 325.308C93.6699 325.308 93.8799 324.818 94.1999 324.018C94.6213 322.985 94.9558 321.918 95.1999 320.828C95.4296 319.738 95.5734 318.631 95.6299 317.518C95.6799 316.678 95.6699 316.148 95.6999 316.148Z" fill="#E0E0E0"/>
<path d="M90.4901 317.209C90.4901 317.209 90.4901 317.819 90.6201 318.799C90.7521 320.075 91.01 321.334 91.3901 322.559C91.7758 323.778 92.2851 324.954 92.9101 326.069C93.3901 326.929 93.7401 327.429 93.7101 327.449C93.6038 327.351 93.5098 327.24 93.4301 327.119C93.2601 326.899 93.0401 326.569 92.7801 326.119C92.1133 325.009 91.5796 323.824 91.1901 322.589C90.8009 321.352 90.5625 320.073 90.4801 318.779C90.4801 318.289 90.4801 317.889 90.4801 317.609C90.4689 317.476 90.4723 317.342 90.4901 317.209Z" fill="#E0E0E0"/>
<path d="M92.0198 315.209C92.0198 315.209 91.9498 315.569 91.9298 316.149C91.8991 316.907 91.9971 317.664 92.2198 318.389C92.7498 320.089 93.4898 321.389 93.4098 321.389C93.2102 321.137 93.0423 320.862 92.9098 320.569C92.5448 319.886 92.2468 319.169 92.0198 318.429C91.7902 317.682 91.7086 316.897 91.7798 316.119C91.7993 315.803 91.8808 315.494 92.0198 315.209Z" fill="#E0E0E0"/>
<path d="M89.9297 328.51C89.9797 328.51 90.6497 329.51 91.6997 330.68C92.7497 331.85 93.7597 332.56 93.6997 332.61C93.4437 332.503 93.2072 332.354 92.9997 332.17C92.467 331.765 91.9716 331.313 91.5197 330.82C91.0579 330.336 90.6458 329.806 90.2897 329.24C90.1267 329.02 90.0047 328.773 89.9297 328.51Z" fill="#E0E0E0"/>
<path d="M97.8295 329.209C97.7127 329.499 97.5616 329.775 97.3795 330.029C96.558 331.297 95.5878 332.462 94.4895 333.499C94.2761 333.726 94.0341 333.924 93.7695 334.089C93.9561 333.839 94.1635 333.604 94.3895 333.389C94.7795 332.979 95.3195 332.389 95.8795 331.719C96.4395 331.049 96.8795 330.409 97.2495 329.949C97.4131 329.68 97.6078 329.432 97.8295 329.209Z" fill="#E0E0E0"/>
<path d="M116.02 319.34C115.96 319.34 114.13 313.87 111.93 307.09C109.73 300.31 107.98 294.78 108.04 294.76C108.1 294.74 109.92 300.23 112.13 307.02C114.34 313.81 116.07 319.32 116.02 319.34Z" fill="#E0E0E0"/>
<path d="M113.1 299C113.185 299.137 113.258 299.281 113.32 299.43C113.497 299.831 113.65 300.241 113.78 300.66C114.22 302.038 114.46 303.473 114.49 304.92C114.517 306.365 114.338 307.806 113.96 309.2C113.845 309.621 113.704 310.036 113.54 310.44C113.43 310.73 113.36 310.89 113.34 310.88C113.32 310.87 113.55 310.23 113.81 309.16C114.149 307.773 114.307 306.348 114.28 304.92C114.247 303.492 114.032 302.074 113.64 300.7C113.34 299.64 113.06 299.02 113.1 299Z" fill="#E0E0E0"/>
<path d="M105.74 302.66C105.74 302.66 106.03 303.19 106.54 304.01C107.204 305.074 107.985 306.061 108.87 306.95C109.781 307.838 110.787 308.623 111.87 309.29C112.69 309.79 113.23 310.05 113.22 310.08C113.21 310.11 113.07 310.08 112.82 309.94C112.57 309.8 112.22 309.65 111.82 309.41C110.725 308.773 109.716 307.996 108.82 307.1C107.918 306.206 107.138 305.198 106.5 304.1C106.308 303.777 106.134 303.443 105.98 303.1C105.78 302.81 105.72 302.67 105.74 302.66Z" fill="#E0E0E0"/>
<path d="M110.92 296.209C110.982 296.317 111.032 296.431 111.07 296.549C111.16 296.779 111.28 297.109 111.4 297.549C112.022 299.725 112.189 302.006 111.89 304.249C111.848 304.585 111.788 304.919 111.71 305.249C111.692 305.376 111.658 305.5 111.61 305.619C111.628 305.153 111.675 304.689 111.75 304.229C111.839 303.117 111.839 302.001 111.75 300.889C111.66 299.777 111.483 298.673 111.22 297.589C111.093 297.135 110.993 296.674 110.92 296.209Z" fill="#E0E0E0"/>
<path d="M106.23 298.699C106.23 298.699 106.43 299.279 106.81 300.189C107.295 301.374 107.898 302.506 108.61 303.569C109.328 304.628 110.148 305.613 111.06 306.509C111.77 307.199 112.25 307.579 112.22 307.609C112.094 307.54 111.973 307.46 111.86 307.369C111.64 307.209 111.33 306.949 110.96 306.619C110.01 305.741 109.161 304.758 108.43 303.689C107.713 302.611 107.122 301.453 106.67 300.239C106.5 299.769 106.38 299.389 106.31 299.119C106.259 298.985 106.232 298.843 106.23 298.699Z" fill="#E0E0E0"/>
<path d="M107.12 296.33C107.12 296.33 107.12 296.7 107.3 297.26C107.484 297.995 107.796 298.692 108.22 299.32C109.22 300.8 110.28 301.82 110.22 301.88C109.973 301.681 109.749 301.456 109.55 301.21C109.004 300.664 108.515 300.064 108.09 299.42C107.659 298.766 107.357 298.037 107.2 297.27C107.111 296.965 107.084 296.646 107.12 296.33Z" fill="#E0E0E0"/>
<path d="M108.89 309.68C108.89 309.63 109.89 310.47 111.21 311.25C112.53 312.03 113.72 312.47 113.7 312.53C113.424 312.491 113.154 312.413 112.9 312.3C112.276 312.061 111.674 311.77 111.1 311.43C110.526 311.087 109.981 310.699 109.47 310.27C109.253 310.098 109.058 309.9 108.89 309.68Z" fill="#E0E0E0"/>
<path d="M116.68 308.139C116.65 308.449 116.583 308.755 116.48 309.049C116.05 310.497 115.453 311.889 114.7 313.199C114.551 313.474 114.374 313.732 114.17 313.969C114.281 313.679 114.415 313.398 114.57 313.129C114.83 312.609 115.18 311.899 115.52 311.129C115.86 310.359 116.14 309.579 116.34 309.039C116.421 308.727 116.535 308.426 116.68 308.139Z" fill="#E0E0E0"/>
<path d="M47.71 327.369C47.65 327.369 45.82 321.899 43.62 315.119C41.42 308.339 39.67 302.809 39.73 302.789C39.79 302.769 41.61 308.259 43.82 315.049C46.03 321.839 47.76 327.359 47.71 327.369Z" fill="#E0E0E0"/>
<path d="M44.79 307.029C44.875 307.166 44.9486 307.31 45.01 307.459C45.1871 307.86 45.3407 308.271 45.47 308.689C45.9109 310.068 46.15 311.502 46.18 312.949C46.2053 314.387 46.0269 315.821 45.65 317.209C45.5351 317.631 45.3949 318.045 45.23 318.449C45.12 318.739 45.05 318.899 45.03 318.889C45.01 318.879 45.25 318.239 45.51 317.169C45.8407 315.781 45.9952 314.356 45.97 312.929C45.9372 311.501 45.7222 310.083 45.33 308.709C45.03 307.679 44.75 307.049 44.79 307.029Z" fill="#E0E0E0"/>
<path d="M37.4297 310.699C37.4297 310.699 37.7197 311.219 38.2297 312.039C38.8904 313.103 39.6686 314.089 40.5497 314.979C41.4602 315.868 42.4664 316.652 43.5497 317.319C44.3697 317.829 44.9097 318.079 44.8997 318.119C44.7606 318.086 44.6262 318.036 44.4997 317.969C44.2497 317.859 43.8997 317.679 43.4997 317.439C42.4044 316.802 41.396 316.025 40.4997 315.129C39.5979 314.236 38.8179 313.227 38.1797 312.129C37.9875 311.806 37.8139 311.472 37.6597 311.129C37.5658 310.996 37.4885 310.851 37.4297 310.699Z" fill="#E0E0E0"/>
<path d="M42.6104 304.209C42.6745 304.316 42.7249 304.43 42.7604 304.549C42.8504 304.779 42.9704 305.109 43.0904 305.549C43.697 307.714 43.8536 309.981 43.5504 312.209C43.4904 312.639 43.4304 312.979 43.3704 313.209C43.3513 313.332 43.3177 313.453 43.2704 313.569C43.2704 313.569 43.3304 313.029 43.4104 312.179C43.499 311.067 43.499 309.951 43.4104 308.839C43.3204 307.727 43.1431 306.623 42.8804 305.539C42.7655 305.101 42.6753 304.657 42.6104 304.209Z" fill="#E0E0E0"/>
<path d="M37.9199 306.729C37.9199 306.729 38.1299 307.309 38.4999 308.219C38.9825 309.404 39.5857 310.537 40.2999 311.599C41.0172 312.657 41.8379 313.642 42.7499 314.539C43.4599 315.229 43.9399 315.609 43.9099 315.639L43.5599 315.399C43.2432 315.165 42.9394 314.915 42.6499 314.649C41.6943 313.775 40.8451 312.791 40.1199 311.719C39.4023 310.64 38.8117 309.482 38.3599 308.269C38.1899 307.809 38.0699 307.419 37.9999 307.149C37.9477 307.015 37.9206 306.872 37.9199 306.729Z" fill="#E0E0E0"/>
<path d="M38.8097 304.359C38.8097 304.359 38.8097 304.729 38.9897 305.289C39.1759 306.027 39.4871 306.727 39.9097 307.359C40.9097 308.829 41.9697 309.849 41.9097 309.909C41.6504 309.719 41.4123 309.501 41.1997 309.259C40.6544 308.713 40.1653 308.113 39.7397 307.469C39.3138 306.813 39.0121 306.085 38.8497 305.319C38.7721 305.005 38.7585 304.679 38.8097 304.359Z" fill="#E0E0E0"/>
<path d="M40.5498 317.709C40.5498 317.659 41.5498 318.499 42.8698 319.279C44.1898 320.059 45.3798 320.499 45.3598 320.559C45.0837 320.52 44.8145 320.443 44.5598 320.329C43.9364 320.09 43.3343 319.799 42.7598 319.459C42.1879 319.119 41.6459 318.731 41.1398 318.299C40.9187 318.129 40.7204 317.93 40.5498 317.709Z" fill="#E0E0E0"/>
<path d="M48.3699 316.209C48.3397 316.522 48.2725 316.831 48.1699 317.129C47.9556 317.849 47.7019 318.557 47.4099 319.249C47.1148 319.934 46.781 320.602 46.4099 321.249C46.2766 321.533 46.0976 321.793 45.8799 322.019C45.9913 321.729 46.125 321.448 46.2799 321.179C46.5399 320.659 46.8899 319.949 47.2799 319.179C47.6699 318.409 47.9099 317.629 48.0999 317.089C48.1596 316.787 48.2501 316.492 48.3699 316.209Z" fill="#E0E0E0"/>
<path d="M76.7797 307.609C76.7197 307.609 76.9597 301.819 77.3097 294.699C77.6597 287.579 77.9997 281.799 78.0597 281.799C78.1197 281.799 77.8697 287.579 77.5197 294.709C77.1697 301.839 76.8397 307.609 76.7797 307.609Z" fill="#E0E0E0"/>
<path d="M81.2802 287.559C81.2945 287.718 81.2945 287.879 81.2802 288.039C81.3109 288.475 81.3109 288.912 81.2802 289.349C81.1244 292.253 80.1273 295.05 78.4102 297.399C78.152 297.747 77.8749 298.081 77.5802 298.399C77.4804 298.525 77.3663 298.639 77.2402 298.739C77.2402 298.739 77.6702 298.199 78.2902 297.299C79.9188 294.925 80.898 292.167 81.1302 289.299C81.2702 288.209 81.2402 287.559 81.2802 287.559Z" fill="#E0E0E0"/>
<path d="M73.1002 288.369C73.1002 288.369 73.1802 288.959 73.3702 289.909C73.6093 291.142 73.9884 292.343 74.5002 293.489C75.0221 294.634 75.6694 295.717 76.4302 296.719C77.0102 297.479 77.4302 297.919 77.4302 297.939C77.3152 297.86 77.211 297.765 77.1202 297.659C76.8452 297.39 76.5848 297.106 76.3402 296.809C75.5386 295.818 74.8666 294.73 74.3402 293.569C73.8193 292.409 73.4529 291.185 73.2502 289.929C73.1911 289.551 73.1511 289.171 73.1302 288.789C73.0942 288.652 73.0841 288.51 73.1002 288.369Z" fill="#E0E0E0"/>
<path d="M80.2403 284.139C80.2403 284.139 80.2403 284.279 80.2403 284.519C80.2403 284.759 80.2403 285.109 80.2403 285.519C80.1441 286.644 79.933 287.756 79.6103 288.839C79.2897 289.921 78.8573 290.966 78.3203 291.959C78.1585 292.257 77.9816 292.548 77.7903 292.829C77.7317 292.939 77.6576 293.04 77.5703 293.129C77.5703 293.129 77.8103 292.659 78.1903 291.889C78.683 290.888 79.0911 289.848 79.4103 288.779C79.7318 287.711 79.9594 286.616 80.0903 285.509C80.1803 284.679 80.2103 284.139 80.2403 284.139Z" fill="#E0E0E0"/>
<path d="M74.9605 284.83C74.9605 284.83 74.9605 285.45 74.9605 286.43C74.9911 287.71 75.1519 288.983 75.4405 290.23C75.7311 291.477 76.15 292.69 76.6905 293.85C77.1005 294.75 77.4105 295.27 77.3805 295.29C77.2839 295.183 77.2 295.066 77.1305 294.94C76.9228 294.617 76.7326 294.283 76.5605 293.94C75.972 292.785 75.5254 291.563 75.2305 290.3C74.9379 289.038 74.7969 287.746 74.8105 286.45C74.8105 285.96 74.8105 285.55 74.8705 285.28C74.8895 285.128 74.9196 284.978 74.9605 284.83Z" fill="#E0E0E0"/>
<path d="M76.6399 282.939C76.6399 282.939 76.5499 283.289 76.4799 283.869C76.3965 284.621 76.437 285.381 76.5999 286.119C76.9999 287.859 77.5999 289.189 77.5999 289.219C77.4166 288.955 77.2719 288.665 77.1699 288.359C76.8514 287.657 76.6068 286.923 76.4399 286.169C76.27 285.407 76.2462 284.62 76.3699 283.849C76.3944 283.53 76.4865 283.22 76.6399 282.939Z" fill="#E0E0E0"/>
<path d="M73.5498 296.039C73.5498 296.039 74.1798 297.129 75.1498 298.339C76.1198 299.549 77.0698 300.339 77.0198 300.419C76.7785 300.283 76.5565 300.114 76.3598 299.919C75.3615 299.028 74.5228 297.973 73.8798 296.799C73.7283 296.566 73.6168 296.309 73.5498 296.039Z" fill="#E0E0E0"/>
<path d="M81.38 297.369C81.2425 297.649 81.0712 297.911 80.87 298.149C79.9628 299.356 78.9079 300.445 77.73 301.389C77.501 301.606 77.2416 301.788 76.96 301.929C77.1671 301.693 77.3946 301.475 77.64 301.279C78.06 300.899 78.64 300.349 79.25 299.729C79.86 299.109 80.38 298.499 80.75 298.059C80.9352 297.808 81.1463 297.576 81.38 297.369Z" fill="#E0E0E0"/>
<g opacity="0.3">
<path d="M70.9502 247.898C74.866 251.004 79.3252 253.354 84.1002 254.828C86.1198 255.567 88.2862 255.814 90.4202 255.548C91.4837 255.401 92.4868 254.966 93.3219 254.291C94.157 253.617 94.7925 252.727 95.1602 251.718C95.3102 251.208 95.2902 250.528 94.8102 250.308C94.3302 250.088 93.8102 250.528 93.3202 250.868C91.8902 251.938 87.6302 252.198 85.8502 251.988C80.0202 251.308 76.2302 249.888 70.9502 247.918" fill="black"/>
</g>
<path d="M108.55 288.479C108.621 288.632 108.675 288.793 108.71 288.959C108.8 289.289 108.95 289.759 109.07 290.389C109.458 292.161 109.682 293.965 109.74 295.779C110.003 301.816 108.599 307.809 105.681 313.1C102.764 318.392 98.4453 322.778 93.1999 325.779C91.6316 326.693 89.9851 327.466 88.2799 328.089C87.6899 328.319 87.1999 328.439 86.8799 328.549C86.7196 328.61 86.5511 328.647 86.3799 328.659C86.976 328.373 87.5868 328.119 88.2099 327.899C89.8692 327.212 91.4739 326.399 93.0099 325.469C98.1241 322.427 102.336 318.078 105.211 312.868C108.086 307.659 109.522 301.777 109.37 295.829C109.347 294.031 109.18 292.239 108.87 290.469C108.726 289.812 108.619 289.147 108.55 288.479Z" fill="#263238"/>
<g opacity="0.2">
<path d="M109.37 295.049C109.44 297.217 109.019 299.372 108.14 301.355C107.26 303.337 105.944 305.096 104.29 306.499C102.14 308.289 99.4904 309.419 97.2904 311.229C95.3215 312.894 93.8508 315.071 93.0404 317.519C92.6304 318.789 92.4504 320.339 93.3704 321.299C94.2904 322.259 96.2004 322.119 97.5804 321.529C102.09 319.619 105.3 315.389 107.03 310.809C108.76 306.229 109.18 301.259 109.48 296.369" fill="black"/>
</g>
<path d="M134.67 291.349C133.115 287.411 133.165 283.02 134.81 279.119C134.424 281.137 134.174 283.178 134.06 285.229C134.124 287.281 134.328 289.325 134.67 291.349Z" fill="#263238"/>
<path d="M137.69 290.14C136.434 288.595 135.588 286.758 135.23 284.8C134.704 282.882 134.677 280.861 135.15 278.93C135.197 280.862 135.394 282.788 135.74 284.69C136.26 286.55 136.911 288.372 137.69 290.14Z" fill="#263238"/>
<path d="M187.14 261.888C187.14 261.888 186.83 261.648 186.28 261.388C185.535 261.031 184.687 260.953 183.89 261.168L183.44 261.298L183.67 260.878C183.986 260.293 184.196 259.657 184.29 258.998C184.478 257.709 184.276 256.392 183.71 255.218C183.27 254.308 182.8 253.868 182.86 253.818C183.34 254.127 183.724 254.563 183.97 255.078C184.66 256.29 184.921 257.7 184.71 259.078C184.597 259.781 184.36 260.459 184.01 261.078L183.78 260.788C184.667 260.568 185.605 260.709 186.39 261.178C186.96 261.528 187.16 261.868 187.14 261.888Z" fill="#AA6550"/>
<path d="M193.85 257.52C194.78 255.24 204.1 251.22 202.85 249.79C201.26 247.93 193.3 254.43 192.59 254.93C191.88 255.43 191.16 254.4 191.83 253.93C192.78 253.33 202.69 246.8 201.15 244.93C200.29 243.93 198.63 245.67 198.63 245.67C198.63 245.67 189.79 252.48 189.09 251.58C188.39 250.68 193.43 246.5 195.23 245.22C197.03 243.94 197.16 242.57 195.96 242.22C195.14 241.99 189.54 245.79 187.78 247.11C186.02 248.43 181.28 252.11 182.2 248.35C183.12 244.59 182.43 241.35 181.66 240.63C180.89 239.91 179.59 240.74 179.8 241.92C179.911 243.219 179.844 244.528 179.6 245.81C179.385 246.845 179.05 247.852 178.6 248.81C177.666 250.99 176.155 252.874 174.23 254.26L184.08 265.86L185.34 265.01C190.21 261.7 194.78 260.43 197.42 258.91C202.33 256.07 202.09 255.62 201.68 255.09C200.63 253.74 192.92 259.8 193.85 257.52Z" fill="#B78876"/>
<path d="M180.55 239.209L183.74 259.919L196.22 259.709L196.8 255.839C196.8 255.839 203.87 255.839 204.42 249.839C204.97 243.839 198.9 243.779 198.9 243.779L199.82 238.369L180.55 239.209ZM197.1 253.729L198.57 246.049C198.57 246.049 202.84 245.979 202.51 249.429C202.18 252.879 197.05 253.699 197.05 253.699L197.1 253.729Z" fill="#455A64"/>
<path d="M189.83 211.318C189.83 211.318 189.92 211.368 190.06 211.498C190.248 211.707 190.41 211.939 190.54 212.188C190.959 213.152 191.063 214.222 190.84 215.248C190.495 216.729 189.943 218.153 189.2 219.478C188.821 220.259 188.536 221.081 188.35 221.928C188.168 222.821 188.244 223.747 188.57 224.598C189.345 226.234 190.416 227.712 191.73 228.958C192.826 230.049 193.619 231.407 194.03 232.898C194.255 233.915 194.109 234.979 193.62 235.898C193.479 236.145 193.3 236.367 193.09 236.558C192.94 236.678 192.85 236.738 192.84 236.718C193.061 236.43 193.262 236.126 193.44 235.808C193.842 234.906 193.923 233.893 193.67 232.938C193.229 231.53 192.437 230.257 191.37 229.238C189.997 227.961 188.881 226.433 188.08 224.738C187.727 223.8 187.647 222.78 187.85 221.798C188.047 220.91 188.356 220.049 188.77 219.238C189.51 217.949 190.085 216.572 190.48 215.138C190.727 214.181 190.685 213.172 190.36 212.238C190.08 211.628 189.79 211.348 189.83 211.318Z" fill="#263238"/>
<path d="M186.55 211.369C186.55 211.369 186.64 211.369 186.78 211.559C186.977 211.763 187.142 211.996 187.27 212.249C187.693 213.211 187.798 214.283 187.57 215.309C187.219 216.787 186.667 218.211 185.93 219.539C185.544 220.317 185.259 221.14 185.08 221.989C184.901 222.881 184.973 223.806 185.29 224.659C186.074 226.29 187.144 227.766 188.45 229.019C189.551 230.102 190.345 231.459 190.75 232.949C190.994 233.982 190.848 235.068 190.34 235.999C190.203 236.245 190.023 236.465 189.81 236.649C189.66 236.779 189.58 236.829 189.57 236.819C189.56 236.809 189.86 236.529 190.16 235.899C190.563 234.997 190.644 233.984 190.39 233.029C189.949 231.626 189.161 230.357 188.1 229.339C186.724 228.063 185.604 226.535 184.8 224.839C184.45 223.896 184.374 222.874 184.58 221.889C184.771 221 185.077 220.139 185.49 219.329C186.237 218.047 186.812 216.672 187.2 215.239C187.454 214.279 187.412 213.265 187.08 212.329C186.77 211.689 186.47 211.399 186.55 211.369Z" fill="#263238"/>
<path d="M181.72 247.69C181.72 247.69 181.72 247.39 182.15 247.06C182.437 246.859 182.766 246.725 183.112 246.668C183.458 246.611 183.813 246.632 184.15 246.73C185.112 247.085 185.973 247.668 186.66 248.43C187.024 248.872 187.483 249.227 188.002 249.469C188.521 249.711 189.087 249.834 189.66 249.83C190.84 249.68 191.83 248.83 192.88 248.4C193.38 248.154 193.924 248.008 194.48 247.97C194.972 247.962 195.46 248.061 195.91 248.26C196.554 248.54 197.09 249.021 197.44 249.63C197.67 250.06 197.7 250.33 197.67 250.34C197.64 250.35 197.54 250.11 197.27 249.74C196.887 249.226 196.367 248.831 195.77 248.6C195.364 248.449 194.932 248.381 194.5 248.4C194.005 248.459 193.524 248.604 193.08 248.83C192.049 249.514 190.914 250.027 189.72 250.35C189.021 250.439 188.313 250.28 187.72 249.9C187.208 249.586 186.738 249.21 186.32 248.78C185.697 248.049 184.918 247.468 184.04 247.08C183.744 246.981 183.43 246.943 183.119 246.969C182.808 246.994 182.505 247.083 182.23 247.23C181.88 247.46 181.76 247.71 181.72 247.69Z" fill="#FAFAFA"/>
<path d="M181.27 245.02C181.27 245.02 181.27 244.7 181.72 244.37C182.028 244.152 182.381 244.007 182.753 243.945C183.126 243.882 183.507 243.905 183.87 244.01C184.886 244.395 185.798 245.016 186.53 245.82C187.36 246.6 188.42 247.49 189.7 247.32C190.98 247.15 192.01 246.32 193.12 245.79C193.652 245.532 194.229 245.379 194.82 245.34C195.451 245.326 196.075 245.481 196.627 245.788C197.179 246.096 197.639 246.545 197.96 247.09C198.21 247.54 198.24 247.84 198.21 247.84C198.18 247.84 198.07 247.59 197.79 247.2C197.379 246.654 196.825 246.231 196.19 245.98C195.758 245.821 195.299 245.75 194.84 245.77C194.309 245.83 193.794 245.986 193.32 246.23C192.32 246.7 191.25 247.62 189.75 247.84C189.03 247.919 188.304 247.753 187.69 247.37C187.147 247.031 186.646 246.628 186.2 246.17C185.534 245.396 184.704 244.781 183.77 244.37C183.454 244.261 183.12 244.219 182.788 244.247C182.455 244.274 182.132 244.371 181.84 244.53C181.43 244.78 181.31 245.05 181.27 245.02Z" fill="#FAFAFA"/>
<path d="M87.7998 349.76L105.03 374.08L294.18 373.99L294.07 352.52L198.42 343.42L118.95 331.6L87.7998 349.76Z" fill="#263238"/>
<path d="M118.21 332.308L131.64 313.768L169.48 267.048C172.087 264.237 175.314 262.073 178.903 260.728C182.493 259.382 186.348 258.893 190.16 259.298C194.799 259.788 199.205 261.585 202.863 264.479C206.522 267.373 209.285 271.246 210.83 275.648L235.83 351.888L202.73 346.688L185.91 299.528L159.39 336.528L118.21 332.308Z" fill="#263238"/>
<path d="M235.8 346.97H235.55H234.69L231.38 346.73L219.22 345.73L179.1 342.36L157.01 340.44C153.62 340.12 150.39 339.88 147.37 339.55C144.571 339.246 141.793 338.779 139.05 338.15C136.761 337.674 134.547 336.89 132.47 335.82C130.917 334.981 129.514 333.889 128.32 332.59C127.561 331.769 126.93 330.839 126.45 329.83C126.274 329.487 126.13 329.129 126.02 328.76C126.633 330.113 127.46 331.359 128.47 332.45C129.665 333.712 131.064 334.764 132.61 335.56C134.673 336.593 136.866 337.343 139.13 337.79C141.865 338.394 144.633 338.838 147.42 339.12C150.42 339.43 153.66 339.66 157.06 339.96L179.14 341.84L219.25 345.36L231.4 346.49L234.7 346.82L235.56 346.92L235.8 346.97Z" fill="#455A64"/>
<path d="M188.55 282.469C188.345 283.297 188.088 284.112 187.78 284.909C186.521 288.813 185.909 292.897 185.97 296.999C186.03 297.851 186.03 298.706 185.97 299.559C185.726 298.734 185.598 297.879 185.59 297.019C185.452 294.945 185.539 292.863 185.85 290.809C186.162 288.758 186.692 286.747 187.43 284.809C187.693 283.98 188.07 283.193 188.55 282.469Z" fill="#455A64"/>
<path d="M181.25 288.829C181.755 290.766 182.362 292.676 183.07 294.549C183.934 296.351 184.892 298.107 185.94 299.809C183.084 296.839 181.416 292.925 181.25 288.809V288.829Z" fill="#455A64"/>
<path d="M289.26 358.949C288.508 361.4 287.976 363.914 287.67 366.459C287.545 369.02 287.645 371.586 287.97 374.129C287.657 373.428 287.454 372.682 287.37 371.919C287.069 370.099 286.995 368.248 287.15 366.409C287.307 364.572 287.693 362.761 288.3 361.019C288.502 360.281 288.826 359.581 289.26 358.949Z" fill="#455A64"/>
<path d="M95.36 249.68C95.36 249.68 95.36 249.77 95.2 249.9C95.0336 250.103 94.8458 250.287 94.64 250.45C93.8805 251.051 93.0059 251.49 92.07 251.74C89.71 252.47 86.3 252.29 82.68 251.74C79.5891 251.231 76.5684 250.362 73.68 249.15C72.57 248.69 71.68 248.25 71.1 247.94C70.7793 247.795 70.4799 247.606 70.21 247.38C70.21 247.31 71.58 247.97 73.82 248.81C76.7335 249.907 79.748 250.714 82.82 251.22C86.41 251.78 89.75 252 92.04 251.4C93.2562 251.069 94.3879 250.483 95.36 249.68Z" fill="#263238"/>
<path d="M627.069 294.671C631.259 292.511 636.199 292.231 640.849 293.001C643.359 293.411 645.959 294.161 647.669 296.001C649.379 297.841 649.669 301.181 647.739 302.801C646.476 303.651 644.955 304.033 643.439 303.881C639.799 303.881 635.749 303.201 632.839 305.391C631.179 306.641 630.069 308.721 628.089 309.341C627.095 309.571 626.052 309.471 625.119 309.056C624.187 308.641 623.414 307.934 622.919 307.041C621.972 305.215 621.765 303.095 622.339 301.121C622.577 299.754 623.128 298.46 623.948 297.342C624.769 296.223 625.837 295.309 627.069 294.671Z" fill="#C80000"/>
<path d="M617.459 276.12C620.019 279.79 625.009 278.57 627.319 276.34C629.629 274.11 630.609 270.86 631.499 267.77C633.499 260.71 635.579 253.31 634.059 246.12C633.699 243.94 632.744 241.902 631.299 240.23C630.564 239.398 629.622 238.774 628.568 238.423C627.514 238.072 626.387 238.005 625.299 238.23C622.789 238.9 621.229 241.36 620.099 243.7C616.775 250.613 615.033 258.18 614.999 265.85C614.999 269.42 615.409 273.16 617.419 276.1" fill="#C80000"/>
<path d="M610.419 281.381C613.199 278.081 613.729 273.261 612.489 269.121C611.081 265.009 608.569 261.363 605.229 258.581C601.435 255.204 597.02 252.599 592.229 250.911C590.376 250.155 588.379 249.813 586.379 249.911C585.379 249.974 584.409 250.281 583.553 250.803C582.698 251.326 581.982 252.049 581.469 252.911C580.109 255.521 581.469 258.691 582.839 261.271C585.341 265.821 588.197 270.168 591.379 274.271C593.939 277.571 596.869 280.831 600.779 282.271C604.689 283.711 608.729 283.591 610.779 280.881" fill="#C80000"/>
<path d="M617.29 331.37C617.416 330.825 617.493 330.269 617.52 329.71C617.64 328.49 617.78 326.97 617.96 325.16C618.179 322.924 618.512 320.701 618.96 318.5C619.558 315.82 620.367 313.192 621.38 310.64C622.374 308.094 623.72 305.701 625.38 303.53C626.736 301.765 628.468 300.323 630.45 299.31C631.797 298.643 633.242 298.194 634.73 297.98C635.289 297.953 635.845 297.872 636.39 297.74C635.828 297.675 635.261 297.675 634.7 297.74C633.156 297.858 631.646 298.251 630.24 298.9C628.151 299.887 626.319 301.345 624.89 303.16C623.151 305.357 621.749 307.8 620.73 310.41C619.696 313.002 618.889 315.678 618.32 318.41C617.892 320.64 617.598 322.894 617.44 325.16C617.29 327.09 617.24 328.65 617.21 329.73C617.177 330.278 617.204 330.828 617.29 331.37Z" fill="#263238"/>
<path d="M617.599 327.881C617.629 327.622 617.629 327.36 617.599 327.101V324.901C617.599 322.981 617.599 320.211 617.699 316.781C617.869 309.931 618.459 302.561 619.599 292.171C620.669 282.401 622.119 271.031 623.599 263.631C623.929 261.951 624.259 260.441 624.599 259.111C624.939 257.781 625.149 256.641 625.389 255.711C625.629 254.781 625.769 254.131 625.909 253.571C625.983 253.32 626.026 253.062 626.039 252.801C625.928 253.036 625.838 253.28 625.769 253.531C625.599 254.081 625.389 254.781 625.129 255.641C624.869 256.501 624.559 257.701 624.219 259.021C623.879 260.341 623.509 261.851 623.149 263.531C621.259 272.275 619.837 281.114 618.889 290.011C617.749 300.421 617.239 309.911 617.189 316.771C617.189 320.211 617.189 322.981 617.309 324.901C617.369 325.801 617.409 326.531 617.449 327.111C617.468 327.373 617.518 327.631 617.599 327.881Z" fill="#263238"/>
<path d="M617.649 309.59C617.699 308.821 617.699 308.05 617.649 307.28C617.559 305.8 617.359 303.66 616.939 301.03C616.447 297.961 615.779 294.923 614.939 291.93C613.949 288.244 612.675 284.64 611.129 281.15C608.485 274.72 604.697 268.821 599.949 263.74C599.128 262.87 598.249 262.055 597.319 261.3C596.919 260.96 596.559 260.61 596.199 260.35L595.199 259.64C594.569 259.171 593.9 258.756 593.199 258.4C595.441 260.156 597.569 262.054 599.569 264.08C604.166 269.2 607.852 275.068 610.469 281.43C611.986 284.896 613.266 288.461 614.299 292.1C615.17 295.062 615.891 298.066 616.459 301.1C616.939 303.69 617.219 305.81 617.379 307.28C617.407 308.056 617.497 308.829 617.649 309.59Z" fill="#263238"/>
<path d="M599.97 341.85L601.8 366.95H634.05L635.89 341.85H599.97Z" fill="#263238"/>
<path d="M639.73 331.951H596.85V341.851H639.73V331.951Z" fill="#263238"/>
<path d="M596.85 365.99V368.73H598.87H639.03V365.99H596.85Z" fill="#455A64"/>
<path d="M600.839 373.56L598.869 368.73H637.489L635.189 373.56H600.839Z" fill="#455A64"/>
<path d="M635.29 350.05C635.247 350.131 635.196 350.208 635.14 350.28L634.66 350.92L632.78 353.33L632.69 353.43L632.61 353.32L628 346.94H628.26L623.72 353.37L623.57 353.57L623.42 353.38L618.03 346.97H618.34L618.04 347.34L613.22 353.34L613.06 353.54L612.91 353.33L608.36 346.9H608.63L603.03 353.28L602.93 353.4L602.85 353.27L601.1 350.32L600.65 349.54C600.598 349.449 600.551 349.356 600.51 349.26C600.51 349.26 600.59 349.34 600.7 349.51L601.2 350.26L603.04 353.16H602.86C604.3 351.48 606.17 349.29 608.37 346.7L608.51 346.54L608.64 346.72L613.23 353.12H612.92L617.73 347.07L618.02 346.7L618.18 346.51L618.33 346.69L623.71 353.12H623.41L628 346.72L628.13 346.53L628.26 346.72L632.78 353.17H632.62L634.57 350.82L635.09 350.22C635.149 350.155 635.216 350.097 635.29 350.05Z" fill="#E0E0E0"/>
<path d="M636.34 341.68C636.34 341.79 628.25 341.88 618.34 341.88C608.43 341.88 600.34 341.79 600.34 341.68C600.34 341.57 608.42 341.48 618.34 341.48C628.26 341.48 636.34 341.57 636.34 341.68Z" fill="#455A64"/>
<path d="M637.959 369.011C637.959 369.121 629.179 369.211 618.349 369.211C607.519 369.211 598.729 369.121 598.729 369.011C598.729 368.901 607.509 368.811 618.349 368.811C629.189 368.811 637.959 368.901 637.959 369.011Z" fill="#263238"/>
</svg>
