<svg width="137" height="144" viewBox="0 0 137 144" fill="none" xmlns="http://www.w3.org/2000/svg">
<g clipPath="url(#clip0_2795_58288)">
<path d="M68.5 0C30.688 0 0 32.256 0 72C0 111.744 30.688 144 68.5 144C106.312 144 137 111.744 137 72C137 32.256 106.312 0 68.5 0ZM68.5 21.6C79.871 21.6 89.05 31.248 89.05 43.2C89.05 55.152 79.871 64.8 68.5 64.8C57.129 64.8 47.95 55.152 47.95 43.2C47.95 31.248 57.129 21.6 68.5 21.6ZM68.5 123.84C51.375 123.84 36.2365 114.624 27.4 100.656C27.6055 86.328 54.8 78.48 68.5 78.48C82.1315 78.48 109.395 86.328 109.6 100.656C100.763 114.624 85.625 123.84 68.5 123.84Z" fill="#D5D7DB"/>
</g>
<defs>
<clipPath id="clip0_2795_58288">
<rect width="137" height="144" fill="white"/>
</clipPath>
</defs>
</svg>
