<svg width="500" height="500" viewBox="0 0 500 500" fill="none" xmlns="http://www.w3.org/2000/svg">
<path d="M165.85 147.91C157.62 152.81 149.06 157.27 140.72 162.15C102.33 184.61 70.7199 214.74 66.8499 260.89C63.9999 294.68 74.6599 334 104.38 353.55C111.717 358.355 119.903 361.715 128.5 363.45C140.63 365.92 153.5 364.95 165.85 364.24V147.91Z" fill="#C80000"/>
<path d="M344.07 99.8496H224.88C217.205 104.638 210.008 110.153 203.39 116.32H367.2C359.978 110.174 352.24 104.663 344.07 99.8496Z" fill="#C80000"/>
<path d="M338.5 96.7505C329.867 92.1209 320.761 88.433 311.34 85.7505C282.83 77.7505 254.6 83.0805 230.17 96.7505H338.5Z" fill="#C80000"/>
<path d="M408.37 164.53C398.022 147.796 385.36 132.609 370.76 119.42H260.29V378.74C268.541 381.491 276.984 383.63 285.55 385.14C341.88 394.14 404.9 374.09 426.74 317.33C446.33 266.45 436.59 209.83 408.37 164.53Z" fill="#C80000"/>
<path d="M253.52 119.42H200.14C197.933 121.6 195.787 123.843 193.7 126.15C187.476 132.902 180.388 138.803 172.62 143.7V363.9C191.917 363.176 211.222 365.091 230 369.59C238 371.5 245.72 374.04 253.48 376.59L253.52 119.42Z" fill="#C80000"/>
<g opacity="0.8">
<path d="M165.85 147.91C157.62 152.81 149.06 157.27 140.72 162.15C102.33 184.61 70.7199 214.74 66.8499 260.89C63.9999 294.68 74.6599 334 104.38 353.55C111.717 358.355 119.903 361.715 128.5 363.45C140.63 365.92 153.5 364.95 165.85 364.24V147.91Z" fill="white"/>
<path d="M344.07 99.8496H224.88C217.205 104.638 210.008 110.153 203.39 116.32H367.2C359.978 110.174 352.24 104.663 344.07 99.8496Z" fill="white"/>
<path d="M338.5 96.7505C329.867 92.1209 320.761 88.433 311.34 85.7505C282.83 77.7505 254.6 83.0805 230.17 96.7505H338.5Z" fill="white"/>
<path d="M408.37 164.53C398.022 147.796 385.36 132.609 370.76 119.42H260.29V378.74C268.541 381.491 276.984 383.63 285.55 385.14C341.88 394.14 404.9 374.09 426.74 317.33C446.33 266.45 436.59 209.83 408.37 164.53Z" fill="white"/>
<path d="M253.52 119.42H200.14C197.933 121.6 195.787 123.843 193.7 126.15C187.476 132.902 180.388 138.803 172.62 143.7V363.9C191.917 363.176 211.222 365.091 230 369.59C238 371.5 245.72 374.04 253.48 376.59L253.52 119.42Z" fill="white"/>
</g>
<path d="M214.32 128.27H199.77V131.44V150.1V153.28H230.63V131.44H215.35L214.32 128.27Z" fill="#C80000"/>
<path d="M214.32 175.859H199.77V179.029V197.689V200.869H230.63V179.029H215.35L214.32 175.859Z" fill="#C80000"/>
<path d="M214.32 223.449H199.77V226.619V245.279V248.459H230.63V226.619H215.35L214.32 223.449Z" fill="#C80000"/>
<path d="M214.32 271.039H199.77V274.209V292.869V296.049H230.63V274.209H215.35L214.32 271.039Z" fill="#C80000"/>
<path d="M214.32 318.629H199.77V321.809V340.459V343.639H230.63V321.809H215.35L214.32 318.629Z" fill="#C80000"/>
<path d="M307.6 128.27H293.05V131.44V150.1V153.28H323.92V131.44H308.64L307.6 128.27Z" fill="#C80000"/>
<path d="M368.129 131.44L367.089 128.27H352.539V131.44V150.1V153.28H383.399V131.44H368.129Z" fill="#C80000"/>
<path d="M307.6 175.859H293.05V179.029V197.689V200.869H323.92V179.029H308.64L307.6 175.859Z" fill="#C80000"/>
<path d="M367.089 223.449H352.539V226.619V245.279V248.459H383.399V226.619H368.129L367.089 223.449Z" fill="#C80000"/>
<path d="M367.089 175.859H352.539V179.029V197.689V200.869H383.399V179.029H368.129L367.089 175.859Z" fill="#C80000"/>
<path d="M307.6 223.449H293.05V226.619V245.279V248.459H323.92V226.619H308.64L307.6 223.449Z" fill="#C80000"/>
<path d="M307.6 271.039H293.05V274.209V292.869V296.049H323.92V274.209H308.64L307.6 271.039Z" fill="#C80000"/>
<path d="M367.089 271.039H352.539V274.209V292.869V296.049H383.399V274.209H368.129L367.089 271.039Z" fill="#C80000"/>
<path d="M307.6 318.629H293.05V321.809V340.459V343.639H323.92V321.809H308.64L307.6 318.629Z" fill="#C80000"/>
<path d="M367.089 318.629H352.539V321.809V340.459V343.639H383.399V321.809H368.129L367.089 318.629Z" fill="#C80000"/>
<g opacity="0.5">
<path d="M214.32 128.27H199.77V131.44V150.1V153.28H230.63V131.44H215.35L214.32 128.27Z" fill="white"/>
<path d="M214.32 175.859H199.77V179.029V197.689V200.869H230.63V179.029H215.35L214.32 175.859Z" fill="white"/>
<path d="M214.32 223.449H199.77V226.619V245.279V248.459H230.63V226.619H215.35L214.32 223.449Z" fill="white"/>
<path d="M214.32 271.039H199.77V274.209V292.869V296.049H230.63V274.209H215.35L214.32 271.039Z" fill="white"/>
<path d="M214.32 318.629H199.77V321.809V340.459V343.639H230.63V321.809H215.35L214.32 318.629Z" fill="white"/>
<path d="M307.6 128.27H293.05V131.44V150.1V153.28H323.92V131.44H308.64L307.6 128.27Z" fill="white"/>
<path d="M368.129 131.44L367.089 128.27H352.539V131.44V150.1V153.28H383.399V131.44H368.129Z" fill="white"/>
<path d="M307.6 175.859H293.05V179.029V197.689V200.869H323.92V179.029H308.64L307.6 175.859Z" fill="white"/>
<path d="M367.089 223.449H352.539V226.619V245.279V248.459H383.399V226.619H368.129L367.089 223.449Z" fill="white"/>
<path d="M367.089 175.859H352.539V179.029V197.689V200.869H383.399V179.029H368.129L367.089 175.859Z" fill="white"/>
<path d="M307.6 223.449H293.05V226.619V245.279V248.459H323.92V226.619H308.64L307.6 223.449Z" fill="white"/>
<path d="M307.6 271.039H293.05V274.209V292.869V296.049H323.92V274.209H308.64L307.6 271.039Z" fill="white"/>
<path d="M367.089 271.039H352.539V274.209V292.869V296.049H383.399V274.209H368.129L367.089 271.039Z" fill="white"/>
<path d="M307.6 318.629H293.05V321.809V340.459V343.639H323.92V321.809H308.64L307.6 318.629Z" fill="white"/>
<path d="M367.089 318.629H352.539V321.809V340.459V343.639H383.399V321.809H368.129L367.089 318.629Z" fill="white"/>
</g>
<path d="M216.5 432C244.39 432 267 427.299 267 421.5C267 415.701 244.39 411 216.5 411C188.61 411 166 415.701 166 421.5C166 427.299 188.61 432 216.5 432Z" fill="#C80000"/>
<path opacity="0.5" d="M216.5 432C244.39 432 267 427.299 267 421.5C267 415.701 244.39 411 216.5 411C188.61 411 166 415.701 166 421.5C166 427.299 188.61 432 216.5 432Z" fill="white"/>
<path d="M253.921 198.541C253.921 198.541 253.721 193.191 253.721 187.631C253.721 182.071 256.601 180.841 258.451 180.841C259.349 180.813 260.247 180.88 261.131 181.041C261.131 181.041 262.131 172.191 268.751 170.751C275.371 169.311 280.281 174.661 282.541 172.811C284.801 170.961 277.191 171.161 280.481 168.491C283.771 165.821 293.251 165.601 294.281 175.491C295.311 185.381 288.511 189.901 285.221 190.721C281.931 191.541 277.391 185.571 273.071 185.781C268.751 185.991 269.371 190.931 266.691 192.991C264.011 195.051 261.951 193.991 261.951 196.691C261.951 199.391 260.721 200.811 257.421 201.011C254.121 201.211 253.921 198.541 253.921 198.541Z" fill="#263238" stroke="#263238" stroke-linecap="round" stroke-linejoin="round"/>
<path d="M284.431 182.621C284.431 182.621 287.641 184.101 291.831 181.391C296.021 178.681 293.301 172.521 292.571 172.271" stroke="white" stroke-linecap="round" stroke-linejoin="round"/>
<path d="M265.7 181.14C265.7 181.14 267.18 174.73 272.35 174.98C277.52 175.23 276.79 179.91 281.23 181.39" stroke="white" stroke-linecap="round" stroke-linejoin="round"/>
<path d="M263 185.16C263 185.16 260 182.16 257.34 182.87C254.68 183.58 255.86 188.29 256.11 189.77C256.36 191.25 254.38 195.44 254.38 195.44" stroke="white" stroke-linecap="round" stroke-linejoin="round"/>
<path d="M193.471 202.051L200.911 228.611L212.821 228.111L205.871 201.311L193.471 202.051Z" fill="#263238" stroke="#263238" stroke-linecap="round" stroke-linejoin="round"/>
<path d="M213.07 251.69L209.84 253.42C209.84 253.42 205.84 241.01 204.14 236.3C202.44 231.59 201.9 229.6 201.9 229.6H201.98C202.83 229.109 203.499 228.359 203.89 227.458C204.28 226.558 204.372 225.556 204.15 224.6L203.58 222.07C203.667 222.302 203.806 222.509 203.987 222.677C204.169 222.844 204.387 222.967 204.624 223.035C204.861 223.103 205.111 223.114 205.353 223.068C205.596 223.022 205.824 222.92 206.02 222.77C206.85 222.23 205.97 216.77 204.97 214.77C203.97 212.77 200.66 214.24 199.67 214.77C198.941 215.178 198.269 215.678 197.67 216.26L196.93 213.26C196.93 213.26 200.65 213.01 201.4 213.01C202.15 213.01 204.87 210.53 203.63 210.28C202.39 210.03 195.44 210.03 193.7 211.52C191.96 213.01 194.94 218.97 195.44 220.21C195.94 221.45 198.44 234.11 199.44 237.58C200.44 241.05 202.92 266.58 204.44 268.85C205.96 271.12 217 260.62 217 260.62L213.07 251.69Z" fill="white" stroke="#263238" stroke-linecap="round" stroke-linejoin="round"/>
<path d="M198.521 218.051C198.521 218.051 202.01 215.051 205.15 215.791" stroke="#263238" stroke-linecap="round" stroke-linejoin="round"/>
<path d="M199.57 221.001C200.321 220.235 201.215 219.625 202.202 219.206C203.188 218.788 204.248 218.568 205.32 218.561" stroke="#263238" stroke-linecap="round" stroke-linejoin="round"/>
<path d="M239.51 219.751C239.51 219.751 234.91 224.141 232.92 227.861C230.93 231.581 212.08 251.691 212.08 251.691L217.54 270.301L230.94 258.881C230.94 258.881 238.38 244.491 240.37 235.311C242.36 226.131 244.12 219.581 239.51 219.751Z" fill="#C80000" stroke="#263238" stroke-linecap="round" stroke-linejoin="round"/>
<path d="M280.691 224.691C280.691 224.691 266.071 223.451 257.841 222.221C249.611 220.991 240.541 218.721 239.511 219.751C238.481 220.781 232.021 253.121 225.721 266.071C217.381 283.221 211.641 292.311 211.641 292.311C217.424 290.089 223.709 289.511 229.801 290.641C240.091 292.491 256.111 303.431 256.111 303.431C256.111 303.431 263.811 286.861 272.041 270.191C280.271 253.521 284.601 228.601 284.601 227.191C284.601 225.781 281.921 224.481 280.691 224.691Z" fill="#C80000" stroke="#263238" stroke-linecap="round" stroke-linejoin="round"/>
<path d="M274.431 224.121C269.431 223.651 262.591 222.931 257.841 222.221C257.141 222.121 256.451 222.001 255.751 221.891C254.765 224.65 254.149 227.529 253.921 230.451C253.511 236.451 257.011 243.011 259.691 243.011C262.371 243.011 270.601 231.901 272.451 228.811C273.366 227.368 274.035 225.783 274.431 224.121Z" fill="white" stroke="#263238" stroke-linecap="round" stroke-linejoin="round"/>
<path d="M260.92 210.691C260.92 210.691 258.87 221.191 257.22 225.511C255.57 229.831 257.42 237.451 259.48 237.661C261.54 237.871 269.78 227.161 269.78 227.161L272.66 215.221C272.66 215.221 262.16 212.341 260.92 210.691Z" fill="white" stroke="#263238" stroke-linecap="round" stroke-linejoin="round"/>
<path d="M282.56 225.131C283.658 225.303 284.7 225.729 285.605 226.375C286.509 227.021 287.25 227.869 287.77 228.851C289.77 232.331 309.61 265.331 309.61 265.331L296.2 268.811L277.59 252.181C277.59 252.181 273.13 246.471 278.09 236.301" fill="#C80000"/>
<path d="M282.56 225.131C283.658 225.303 284.7 225.729 285.605 226.375C286.509 227.021 287.25 227.869 287.77 228.851C289.77 232.331 309.61 265.331 309.61 265.331L296.2 268.811L277.59 252.181C277.59 252.181 273.13 246.471 278.09 236.301" stroke="#263238" stroke-linecap="round" stroke-linejoin="round"/>
<path d="M243.841 256.4C243.841 256.4 239.131 260.62 238.841 261.61C238.551 262.6 241.321 266.61 242.071 266.82C242.821 267.03 243.071 264.82 242.811 263.82C242.551 262.82 242.071 261.33 242.071 261.33L244.791 258.11C244.791 258.11 245.831 256.9 243.841 256.4Z" fill="white" stroke="#263238" stroke-linecap="round" stroke-linejoin="round"/>
<path d="M304.39 257.391C301.388 256.286 298.198 255.78 295 255.901C289.79 256.151 278.87 258.901 271.92 259.131C264.97 259.361 265.22 259.631 261.5 258.631C257.78 257.631 250.09 251.691 248.35 251.691C246.61 251.691 241.4 260.371 242.15 261.361C242.9 262.351 249.09 267.071 250.83 267.361C252.57 267.651 256.29 265.361 256.29 265.361C256.29 265.361 274.9 268.091 283.59 269.091C292.28 270.091 302.95 271.321 307.16 268.591C311.37 265.861 310.101 259.871 304.39 257.391Z" fill="white" stroke="#263238" stroke-linecap="round" stroke-linejoin="round"/>
<path d="M248.31 254.66L243.59 262.11" stroke="#263238" stroke-linecap="round" stroke-linejoin="round"/>
<path d="M251.78 257.391L246.32 264.841" stroke="#263238" stroke-linecap="round" stroke-linejoin="round"/>
<path d="M254.27 260.621L249.55 266.331" stroke="#263238" stroke-linecap="round" stroke-linejoin="round"/>
<path d="M256.251 265.332L255.751 263.602L253.271 265.092" stroke="#263238" stroke-linecap="round" stroke-linejoin="round"/>
<path d="M285.63 197.72C285.63 197.72 287.69 196.28 288.1 200.19C288.51 204.1 287.1 206.78 286.04 207.4C284.98 208.02 283.78 206.98 283.78 206.98L285.63 197.72Z" fill="white" stroke="#263238" stroke-linecap="round" stroke-linejoin="round"/>
<path d="M256 198.341C256 198.341 252.71 194.011 250.86 197.721C249.01 201.431 250.44 206.161 252.92 208.011C255.4 209.861 257.86 207.191 257.86 207.191C257.86 207.191 263.21 218.101 267.74 218.511C272.27 218.921 280.74 215.631 283.8 209.251C286.86 202.871 286.47 192.571 286.88 188.661C287.29 184.751 282.97 179.811 274.94 179.811C272.677 179.756 270.43 180.208 268.364 181.134C266.298 182.059 264.465 183.435 263 185.161C263.305 185.32 263.569 185.546 263.773 185.823C263.976 186.1 264.113 186.42 264.173 186.758C264.233 187.097 264.214 187.444 264.119 187.774C264.023 188.104 263.852 188.408 263.62 188.661C261.97 190.931 259.92 192.371 259.3 193.811C258.68 195.251 259.3 196.691 258.47 197.931C257.64 199.171 256 198.341 256 198.341Z" fill="white" stroke="#263238" stroke-linecap="round" stroke-linejoin="round"/>
<path d="M274.651 191.77C274.471 192.92 273.891 193.77 273.361 193.71C272.831 193.65 272.531 192.62 272.711 191.47C272.891 190.32 273.471 189.47 274.001 189.53C274.531 189.59 274.831 190.61 274.651 191.77Z" fill="#263238"/>
<path d="M282.88 194.001C282.7 195.161 282.12 196.001 281.59 195.941C281.06 195.881 280.76 194.861 280.94 193.701C281.12 192.541 281.7 191.701 282.23 191.761C282.76 191.821 283.06 192.881 282.88 194.001Z" fill="#263238"/>
<path d="M270.58 186.94C270.58 186.94 273.15 183.94 276.47 185.58" stroke="#263238" stroke-linecap="round" stroke-linejoin="round"/>
<path d="M281.46 188.001C281.46 188.001 285.23 186.641 285.99 191.781" stroke="#263238" stroke-linecap="round" stroke-linejoin="round"/>
<path d="M279.801 191.92C279.801 191.92 278.441 194.49 278.741 195.24C279.041 195.99 282.821 196.9 281.611 197.96C280.401 199.02 277.381 200.23 276.471 199.62" stroke="#263238" stroke-linecap="round" stroke-linejoin="round"/>
<path d="M268.471 200.07C268.471 200.07 269.531 203.7 274.361 204.45" stroke="#263238" stroke-linecap="round" stroke-linejoin="round"/>
<path d="M213.42 290.64C213.42 290.64 207.9 296.15 199.97 304.43C192.04 312.71 171.69 340.64 173.76 350C175.83 359.36 226.87 373.45 226.87 373.45L232.38 369.66C232.38 369.66 201.69 346.9 199.62 341.72C197.55 336.54 224.11 319.65 224.11 319.65L253.77 300.65C253.77 300.65 240.49 278.22 213.42 290.64Z" fill="#263238" stroke="#263238" stroke-linecap="round" stroke-linejoin="round"/>
<path d="M250.66 276.841C250.66 276.841 257.21 287.841 256.52 300.981C255.83 314.121 250.66 325.811 237.9 325.471C225.14 325.131 226.18 305.811 230.32 296.151C234.46 286.491 235.14 273.741 250.66 276.841Z" fill="#263238" stroke="#263238" stroke-linecap="round" stroke-linejoin="round"/>
<path d="M232 283.392C232 283.392 224.76 316.842 221.31 323.392C217.86 329.942 211.65 345.802 211.65 345.802L219.24 347.872C219.24 347.872 229.93 333.042 242.69 317.522C255.45 302.002 253.38 281.312 250.62 276.832C247.86 272.352 237.21 272.702 232 283.392Z" fill="#263238" stroke="#263238" stroke-linecap="round" stroke-linejoin="round"/>
<path d="M252.56 290C252.56 290 246.87 313.79 239.11 323.62" stroke="white" stroke-linecap="round" stroke-linejoin="round"/>
<path d="M226.87 373.401C226.87 373.401 227.87 378.921 225.87 382.711C223.87 386.501 218.97 394.441 222.42 394.781C225.87 395.121 230.7 389.951 234.15 385.781C237.6 381.611 237.94 377.841 240.36 374.781C242.78 371.721 232.42 369.611 232.42 369.611L227.9 372.001L226.87 373.401Z" fill="#C80000" stroke="#263238" stroke-linecap="round" stroke-linejoin="round"/>
<path d="M240.32 374.78C241.14 373.72 240.47 372.78 239.23 372C236.832 377.236 233.903 382.212 230.49 386.85C226.88 391.54 223.55 392.85 221.2 393C221.13 394 221.43 394.69 222.38 394.78C225.83 395.13 230.66 389.95 234.11 385.78C237.56 381.61 237.9 377.88 240.32 374.78Z" fill="white" stroke="#263238" stroke-linecap="round" stroke-linejoin="round"/>
<path d="M211.69 345.811C207.431 345.253 203.326 343.845 199.62 341.671C194.11 338.231 193.07 338.231 193.07 344.431C193.07 350.631 200.66 353.741 204.8 356.851C208.94 359.961 211.35 361.681 214.45 361.331C217.55 360.981 219.28 347.881 219.28 347.881C219.28 347.881 217.56 344.431 211.69 345.811Z" fill="#C80000" stroke="#263238" stroke-linecap="round" stroke-linejoin="round"/>
<path d="M193.07 344.431C193.07 350.641 200.66 353.741 204.8 356.851C208.94 359.961 211.31 361.641 214.37 361.331C207.14 356.731 206.37 349.331 199.62 341.671C194.11 338.231 193.07 338.231 193.07 344.431Z" fill="white" stroke="#263238" stroke-linecap="round" stroke-linejoin="round"/>
<path d="M209.8 353.401C208.021 350.013 205.975 346.773 203.68 343.711C202.27 343.167 200.911 342.497 199.62 341.711C194.11 338.271 193.07 338.271 193.07 344.471C193.07 350.671 200.66 353.781 204.8 356.891C208.94 360.001 211.35 361.721 214.45 361.371C215.21 361.291 215.88 360.441 216.45 359.211C214.973 358.812 213.605 358.082 212.453 357.075C211.301 356.068 210.393 354.811 209.8 353.401Z" stroke="#263238" stroke-linecap="round" stroke-linejoin="round"/>
<path d="M106.909 236.65C106.909 236.15 106.999 235.65 107.049 235.16" stroke="#263238" stroke-miterlimit="10"/>
<path d="M107.39 232.189C111.805 196.915 128.923 164.459 155.539 140.894C182.154 117.329 216.445 104.269 251.994 104.159C287.542 104.049 321.913 116.895 348.675 140.295C375.437 163.694 392.755 196.043 397.39 231.289" stroke="#263238" stroke-miterlimit="10" stroke-dasharray="2.98 2.98"/>
<path d="M397.6 232.779C397.66 233.269 397.72 233.779 397.77 234.269" stroke="#263238" stroke-miterlimit="10"/>
<path d="M126.69 135.279L113.75 175.629L165 183.389L173.8 146.139C173.8 146.139 142.72 144.069 126.69 135.279Z" fill="white" stroke="#263238" stroke-linecap="round" stroke-linejoin="round"/>
<path d="M180 109.41C180 109.41 204.31 112 221.9 100.1C221.9 100.1 243.62 117.17 251.9 118.73C251.9 118.73 238.97 132.73 225.52 136.83C225.49 136.83 192.38 121.83 180 109.41Z" fill="white" stroke="#263238" stroke-linecap="round" stroke-linejoin="round"/>
<path d="M180 109.41C183.569 106.702 187.652 104.749 192 103.67C192.444 111.083 195.375 118.129 200.32 123.67C200.32 123.67 185.29 115.56 180 109.41Z" fill="#263238" stroke="#263238" stroke-linecap="round" stroke-linejoin="round"/>
<path d="M276 126.399C276 126.399 275.14 128.989 280.31 133.299C282.66 135.299 287.96 136.039 287.96 136.039L301.86 118.639C301.86 118.639 279.05 121.739 276 126.399Z" fill="#263238" stroke="#263238" stroke-linecap="round" stroke-linejoin="round"/>
<path d="M276 126.4C283.646 123.764 291.706 122.537 299.79 122.78C303.644 122.968 307.419 123.936 310.888 125.625C314.357 127.315 317.447 129.691 319.97 132.61L334.97 113.98C334.97 113.98 322 102.09 307.5 102.6C293 103.11 277 122.26 276 126.4Z" fill="white" stroke="#263238" stroke-linecap="round" stroke-linejoin="round"/>
<path d="M363.15 136.35C363.15 136.35 353.84 160.84 333.5 164.29C333.5 164.29 353.84 188.43 365.22 191.19C365.22 191.19 388.33 180.84 394.54 169.81C394.54 169.81 374.19 158.08 363.15 136.35Z" fill="white" stroke="#263238" stroke-linecap="round" stroke-linejoin="round"/>
<path d="M141.169 261.089L150.209 222.779H89.5293L88.2393 261.089H141.169Z" fill="#263238" stroke="#263238" stroke-linecap="round" stroke-linejoin="round"/>
<path d="M96.3394 208.59L96.1494 252.59L141.549 257.2L144.969 210.42L96.3394 208.59Z" fill="white" stroke="#263238" stroke-linecap="round" stroke-linejoin="round"/>
<path d="M81.3496 215.899L88.2396 261.089H141.17L137.73 220.199H109.33L106.74 215.039L81.3496 215.899Z" fill="#C80000" stroke="#263238" stroke-linecap="round" stroke-linejoin="round"/>
<path d="M369.109 261.089L360.069 222.779H420.749L422.039 261.089H369.109Z" fill="#263238" stroke="#263238" stroke-linecap="round" stroke-linejoin="round"/>
<path d="M413.94 208.59L414.13 252.59L368.73 257.2L365.31 210.42L413.94 208.59Z" fill="white" stroke="#263238" stroke-linecap="round" stroke-linejoin="round"/>
<path d="M428.929 215.899L422.039 261.089H369.109L372.549 220.199H400.959L403.539 215.039L428.929 215.899Z" fill="#C80000" stroke="#263238" stroke-linecap="round" stroke-linejoin="round"/>
</svg>
